%TF.GenerationSoftware,KiCad,Pcbnew,(5.1.12)-1*%
%TF.CreationDate,2021-12-07T00:39:26+01:00*%
%TF.ProjectId,boneIO - relay board,626f6e65-494f-4202-9d20-72656c617920,rev?*%
%TF.SameCoordinates,Original*%
%TF.FileFunction,Legend,Top*%
%TF.FilePolarity,Positive*%
%FSLAX46Y46*%
G04 Gerber Fmt 4.6, Leading zero omitted, Abs format (unit mm)*
G04 Created by KiCad (PCBNEW (5.1.12)-1) date 2021-12-07 00:39:26*
%MOMM*%
%LPD*%
G01*
G04 APERTURE LIST*
%ADD10C,0.150000*%
%ADD11C,0.120000*%
%ADD12C,0.100000*%
%ADD13C,0.200000*%
%ADD14C,0.050000*%
%ADD15C,0.010000*%
%ADD16C,0.254000*%
G04 APERTURE END LIST*
D10*
X294016666Y-317990380D02*
X293683333Y-317514190D01*
X293445238Y-317990380D02*
X293445238Y-316990380D01*
X293826190Y-316990380D01*
X293921428Y-317038000D01*
X293969047Y-317085619D01*
X294016666Y-317180857D01*
X294016666Y-317323714D01*
X293969047Y-317418952D01*
X293921428Y-317466571D01*
X293826190Y-317514190D01*
X293445238Y-317514190D01*
X294826190Y-317942761D02*
X294730952Y-317990380D01*
X294540476Y-317990380D01*
X294445238Y-317942761D01*
X294397619Y-317847523D01*
X294397619Y-317466571D01*
X294445238Y-317371333D01*
X294540476Y-317323714D01*
X294730952Y-317323714D01*
X294826190Y-317371333D01*
X294873809Y-317466571D01*
X294873809Y-317561809D01*
X294397619Y-317657047D01*
X295445238Y-317990380D02*
X295350000Y-317942761D01*
X295302380Y-317847523D01*
X295302380Y-316990380D01*
X296254761Y-317990380D02*
X296254761Y-317466571D01*
X296207142Y-317371333D01*
X296111904Y-317323714D01*
X295921428Y-317323714D01*
X295826190Y-317371333D01*
X296254761Y-317942761D02*
X296159523Y-317990380D01*
X295921428Y-317990380D01*
X295826190Y-317942761D01*
X295778571Y-317847523D01*
X295778571Y-317752285D01*
X295826190Y-317657047D01*
X295921428Y-317609428D01*
X296159523Y-317609428D01*
X296254761Y-317561809D01*
X296635714Y-317323714D02*
X296873809Y-317990380D01*
X297111904Y-317323714D02*
X296873809Y-317990380D01*
X296778571Y-318228476D01*
X296730952Y-318276095D01*
X296635714Y-318323714D01*
X298588095Y-317466571D02*
X298730952Y-317514190D01*
X298778571Y-317561809D01*
X298826190Y-317657047D01*
X298826190Y-317799904D01*
X298778571Y-317895142D01*
X298730952Y-317942761D01*
X298635714Y-317990380D01*
X298254761Y-317990380D01*
X298254761Y-316990380D01*
X298588095Y-316990380D01*
X298683333Y-317038000D01*
X298730952Y-317085619D01*
X298778571Y-317180857D01*
X298778571Y-317276095D01*
X298730952Y-317371333D01*
X298683333Y-317418952D01*
X298588095Y-317466571D01*
X298254761Y-317466571D01*
X299397619Y-317990380D02*
X299302380Y-317942761D01*
X299254761Y-317895142D01*
X299207142Y-317799904D01*
X299207142Y-317514190D01*
X299254761Y-317418952D01*
X299302380Y-317371333D01*
X299397619Y-317323714D01*
X299540476Y-317323714D01*
X299635714Y-317371333D01*
X299683333Y-317418952D01*
X299730952Y-317514190D01*
X299730952Y-317799904D01*
X299683333Y-317895142D01*
X299635714Y-317942761D01*
X299540476Y-317990380D01*
X299397619Y-317990380D01*
X300588095Y-317990380D02*
X300588095Y-317466571D01*
X300540476Y-317371333D01*
X300445238Y-317323714D01*
X300254761Y-317323714D01*
X300159523Y-317371333D01*
X300588095Y-317942761D02*
X300492857Y-317990380D01*
X300254761Y-317990380D01*
X300159523Y-317942761D01*
X300111904Y-317847523D01*
X300111904Y-317752285D01*
X300159523Y-317657047D01*
X300254761Y-317609428D01*
X300492857Y-317609428D01*
X300588095Y-317561809D01*
X301064285Y-317990380D02*
X301064285Y-317323714D01*
X301064285Y-317514190D02*
X301111904Y-317418952D01*
X301159523Y-317371333D01*
X301254761Y-317323714D01*
X301350000Y-317323714D01*
X302111904Y-317990380D02*
X302111904Y-316990380D01*
X302111904Y-317942761D02*
X302016666Y-317990380D01*
X301826190Y-317990380D01*
X301730952Y-317942761D01*
X301683333Y-317895142D01*
X301635714Y-317799904D01*
X301635714Y-317514190D01*
X301683333Y-317418952D01*
X301730952Y-317371333D01*
X301826190Y-317323714D01*
X302016666Y-317323714D01*
X302111904Y-317371333D01*
X303302380Y-317085619D02*
X303350000Y-317038000D01*
X303445238Y-316990380D01*
X303683333Y-316990380D01*
X303778571Y-317038000D01*
X303826190Y-317085619D01*
X303873809Y-317180857D01*
X303873809Y-317276095D01*
X303826190Y-317418952D01*
X303254761Y-317990380D01*
X303873809Y-317990380D01*
X304730952Y-317323714D02*
X304730952Y-317990380D01*
X304492857Y-316942761D02*
X304254761Y-317657047D01*
X304873809Y-317657047D01*
X305159523Y-317990380D02*
X305683333Y-317323714D01*
X305159523Y-317323714D02*
X305683333Y-317990380D01*
X306588095Y-317990380D02*
X306016666Y-317990380D01*
X306302380Y-317990380D02*
X306302380Y-316990380D01*
X306207142Y-317133238D01*
X306111904Y-317228476D01*
X306016666Y-317276095D01*
X307445238Y-316990380D02*
X307254761Y-316990380D01*
X307159523Y-317038000D01*
X307111904Y-317085619D01*
X307016666Y-317228476D01*
X306969047Y-317418952D01*
X306969047Y-317799904D01*
X307016666Y-317895142D01*
X307064285Y-317942761D01*
X307159523Y-317990380D01*
X307350000Y-317990380D01*
X307445238Y-317942761D01*
X307492857Y-317895142D01*
X307540476Y-317799904D01*
X307540476Y-317561809D01*
X307492857Y-317466571D01*
X307445238Y-317418952D01*
X307350000Y-317371333D01*
X307159523Y-317371333D01*
X307064285Y-317418952D01*
X307016666Y-317466571D01*
X306969047Y-317561809D01*
X307921428Y-317704666D02*
X308397619Y-317704666D01*
X307826190Y-317990380D02*
X308159523Y-316990380D01*
X308492857Y-317990380D01*
X309492857Y-317323714D02*
X309730952Y-317990380D01*
X309969047Y-317323714D01*
X310540476Y-316990380D02*
X310635714Y-316990380D01*
X310730952Y-317038000D01*
X310778571Y-317085619D01*
X310826190Y-317180857D01*
X310873809Y-317371333D01*
X310873809Y-317609428D01*
X310826190Y-317799904D01*
X310778571Y-317895142D01*
X310730952Y-317942761D01*
X310635714Y-317990380D01*
X310540476Y-317990380D01*
X310445238Y-317942761D01*
X310397619Y-317895142D01*
X310350000Y-317799904D01*
X310302380Y-317609428D01*
X310302380Y-317371333D01*
X310350000Y-317180857D01*
X310397619Y-317085619D01*
X310445238Y-317038000D01*
X310540476Y-316990380D01*
X311302380Y-317895142D02*
X311350000Y-317942761D01*
X311302380Y-317990380D01*
X311254761Y-317942761D01*
X311302380Y-317895142D01*
X311302380Y-317990380D01*
X311683333Y-316990380D02*
X312302380Y-316990380D01*
X311969047Y-317371333D01*
X312111904Y-317371333D01*
X312207142Y-317418952D01*
X312254761Y-317466571D01*
X312302380Y-317561809D01*
X312302380Y-317799904D01*
X312254761Y-317895142D01*
X312207142Y-317942761D01*
X312111904Y-317990380D01*
X311826190Y-317990380D01*
X311730952Y-317942761D01*
X311683333Y-317895142D01*
X467654000Y-322113000D02*
X451906000Y-322113000D01*
X467654000Y-311064000D02*
X467654000Y-322113000D01*
X467654000Y-311064000D02*
X467654000Y-307381000D01*
X467654000Y-307381000D02*
X451906000Y-307381000D01*
X451906000Y-311064000D02*
X451906000Y-322113000D01*
X451906000Y-307381000D02*
X451906000Y-311064000D01*
X469217619Y-310008904D02*
X469217619Y-310580333D01*
X468217619Y-310294619D02*
X469217619Y-310294619D01*
X468265238Y-311294619D02*
X468217619Y-311199380D01*
X468217619Y-311008904D01*
X468265238Y-310913666D01*
X468360476Y-310866047D01*
X468741428Y-310866047D01*
X468836666Y-310913666D01*
X468884285Y-311008904D01*
X468884285Y-311199380D01*
X468836666Y-311294619D01*
X468741428Y-311342238D01*
X468646190Y-311342238D01*
X468550952Y-310866047D01*
X468217619Y-311770809D02*
X468884285Y-311770809D01*
X468789047Y-311770809D02*
X468836666Y-311818428D01*
X468884285Y-311913666D01*
X468884285Y-312056523D01*
X468836666Y-312151761D01*
X468741428Y-312199380D01*
X468217619Y-312199380D01*
X468741428Y-312199380D02*
X468836666Y-312247000D01*
X468884285Y-312342238D01*
X468884285Y-312485095D01*
X468836666Y-312580333D01*
X468741428Y-312627952D01*
X468217619Y-312627952D01*
X468884285Y-313104142D02*
X467884285Y-313104142D01*
X468836666Y-313104142D02*
X468884285Y-313199380D01*
X468884285Y-313389857D01*
X468836666Y-313485095D01*
X468789047Y-313532714D01*
X468693809Y-313580333D01*
X468408095Y-313580333D01*
X468312857Y-313532714D01*
X468265238Y-313485095D01*
X468217619Y-313389857D01*
X468217619Y-313199380D01*
X468265238Y-313104142D01*
X468265238Y-314723190D02*
X468217619Y-314866047D01*
X468217619Y-315104142D01*
X468265238Y-315199380D01*
X468312857Y-315247000D01*
X468408095Y-315294619D01*
X468503333Y-315294619D01*
X468598571Y-315247000D01*
X468646190Y-315199380D01*
X468693809Y-315104142D01*
X468741428Y-314913666D01*
X468789047Y-314818428D01*
X468836666Y-314770809D01*
X468931904Y-314723190D01*
X469027142Y-314723190D01*
X469122380Y-314770809D01*
X469170000Y-314818428D01*
X469217619Y-314913666D01*
X469217619Y-315151761D01*
X469170000Y-315294619D01*
X468265238Y-316104142D02*
X468217619Y-316008904D01*
X468217619Y-315818428D01*
X468265238Y-315723190D01*
X468360476Y-315675571D01*
X468741428Y-315675571D01*
X468836666Y-315723190D01*
X468884285Y-315818428D01*
X468884285Y-316008904D01*
X468836666Y-316104142D01*
X468741428Y-316151761D01*
X468646190Y-316151761D01*
X468550952Y-315675571D01*
X468884285Y-316580333D02*
X468217619Y-316580333D01*
X468789047Y-316580333D02*
X468836666Y-316627952D01*
X468884285Y-316723190D01*
X468884285Y-316866047D01*
X468836666Y-316961285D01*
X468741428Y-317008904D01*
X468217619Y-317008904D01*
X468265238Y-317437476D02*
X468217619Y-317532714D01*
X468217619Y-317723190D01*
X468265238Y-317818428D01*
X468360476Y-317866047D01*
X468408095Y-317866047D01*
X468503333Y-317818428D01*
X468550952Y-317723190D01*
X468550952Y-317580333D01*
X468598571Y-317485095D01*
X468693809Y-317437476D01*
X468741428Y-317437476D01*
X468836666Y-317485095D01*
X468884285Y-317580333D01*
X468884285Y-317723190D01*
X468836666Y-317818428D01*
X468217619Y-318437476D02*
X468265238Y-318342238D01*
X468312857Y-318294619D01*
X468408095Y-318247000D01*
X468693809Y-318247000D01*
X468789047Y-318294619D01*
X468836666Y-318342238D01*
X468884285Y-318437476D01*
X468884285Y-318580333D01*
X468836666Y-318675571D01*
X468789047Y-318723190D01*
X468693809Y-318770809D01*
X468408095Y-318770809D01*
X468312857Y-318723190D01*
X468265238Y-318675571D01*
X468217619Y-318580333D01*
X468217619Y-318437476D01*
X468217619Y-319199380D02*
X468884285Y-319199380D01*
X468693809Y-319199380D02*
X468789047Y-319247000D01*
X468836666Y-319294619D01*
X468884285Y-319389857D01*
X468884285Y-319485095D01*
X380991428Y-320033714D02*
X380991428Y-319271809D01*
X381372380Y-319652761D02*
X380610476Y-319652761D01*
X380372380Y-318319428D02*
X380372380Y-318795619D01*
X380848571Y-318843238D01*
X380800952Y-318795619D01*
X380753333Y-318700380D01*
X380753333Y-318462285D01*
X380800952Y-318367047D01*
X380848571Y-318319428D01*
X380943809Y-318271809D01*
X381181904Y-318271809D01*
X381277142Y-318319428D01*
X381324761Y-318367047D01*
X381372380Y-318462285D01*
X381372380Y-318700380D01*
X381324761Y-318795619D01*
X381277142Y-318843238D01*
X380372380Y-317986095D02*
X381372380Y-317652761D01*
X380372380Y-317319428D01*
X380280000Y-310999904D02*
X380232380Y-311095142D01*
X380232380Y-311238000D01*
X380280000Y-311380857D01*
X380375238Y-311476095D01*
X380470476Y-311523714D01*
X380660952Y-311571333D01*
X380803809Y-311571333D01*
X380994285Y-311523714D01*
X381089523Y-311476095D01*
X381184761Y-311380857D01*
X381232380Y-311238000D01*
X381232380Y-311142761D01*
X381184761Y-310999904D01*
X381137142Y-310952285D01*
X380803809Y-310952285D01*
X380803809Y-311142761D01*
X381232380Y-310523714D02*
X380232380Y-310523714D01*
X381232380Y-309952285D01*
X380232380Y-309952285D01*
X381232380Y-309476095D02*
X380232380Y-309476095D01*
X380232380Y-309238000D01*
X380280000Y-309095142D01*
X380375238Y-308999904D01*
X380470476Y-308952285D01*
X380660952Y-308904666D01*
X380803809Y-308904666D01*
X380994285Y-308952285D01*
X381089523Y-308999904D01*
X381184761Y-309095142D01*
X381232380Y-309238000D01*
X381232380Y-309476095D01*
X386194761Y-319798476D02*
X386242380Y-319655619D01*
X386242380Y-319417523D01*
X386194761Y-319322285D01*
X386147142Y-319274666D01*
X386051904Y-319227047D01*
X385956666Y-319227047D01*
X385861428Y-319274666D01*
X385813809Y-319322285D01*
X385766190Y-319417523D01*
X385718571Y-319608000D01*
X385670952Y-319703238D01*
X385623333Y-319750857D01*
X385528095Y-319798476D01*
X385432857Y-319798476D01*
X385337619Y-319750857D01*
X385290000Y-319703238D01*
X385242380Y-319608000D01*
X385242380Y-319369904D01*
X385290000Y-319227047D01*
X386147142Y-318227047D02*
X386194761Y-318274666D01*
X386242380Y-318417523D01*
X386242380Y-318512761D01*
X386194761Y-318655619D01*
X386099523Y-318750857D01*
X386004285Y-318798476D01*
X385813809Y-318846095D01*
X385670952Y-318846095D01*
X385480476Y-318798476D01*
X385385238Y-318750857D01*
X385290000Y-318655619D01*
X385242380Y-318512761D01*
X385242380Y-318417523D01*
X385290000Y-318274666D01*
X385337619Y-318227047D01*
X386242380Y-317322285D02*
X386242380Y-317798476D01*
X385242380Y-317798476D01*
X386204761Y-311602285D02*
X386252380Y-311459428D01*
X386252380Y-311221333D01*
X386204761Y-311126095D01*
X386157142Y-311078476D01*
X386061904Y-311030857D01*
X385966666Y-311030857D01*
X385871428Y-311078476D01*
X385823809Y-311126095D01*
X385776190Y-311221333D01*
X385728571Y-311411809D01*
X385680952Y-311507047D01*
X385633333Y-311554666D01*
X385538095Y-311602285D01*
X385442857Y-311602285D01*
X385347619Y-311554666D01*
X385300000Y-311507047D01*
X385252380Y-311411809D01*
X385252380Y-311173714D01*
X385300000Y-311030857D01*
X386252380Y-310602285D02*
X385252380Y-310602285D01*
X385252380Y-310364190D01*
X385300000Y-310221333D01*
X385395238Y-310126095D01*
X385490476Y-310078476D01*
X385680952Y-310030857D01*
X385823809Y-310030857D01*
X386014285Y-310078476D01*
X386109523Y-310126095D01*
X386204761Y-310221333D01*
X386252380Y-310364190D01*
X386252380Y-310602285D01*
X385966666Y-309649904D02*
X385966666Y-309173714D01*
X386252380Y-309745142D02*
X385252380Y-309411809D01*
X386252380Y-309078476D01*
X382720000Y-311019904D02*
X382672380Y-311115142D01*
X382672380Y-311258000D01*
X382720000Y-311400857D01*
X382815238Y-311496095D01*
X382910476Y-311543714D01*
X383100952Y-311591333D01*
X383243809Y-311591333D01*
X383434285Y-311543714D01*
X383529523Y-311496095D01*
X383624761Y-311400857D01*
X383672380Y-311258000D01*
X383672380Y-311162761D01*
X383624761Y-311019904D01*
X383577142Y-310972285D01*
X383243809Y-310972285D01*
X383243809Y-311162761D01*
X383672380Y-310543714D02*
X382672380Y-310543714D01*
X383672380Y-309972285D01*
X382672380Y-309972285D01*
X383672380Y-309496095D02*
X382672380Y-309496095D01*
X382672380Y-309258000D01*
X382720000Y-309115142D01*
X382815238Y-309019904D01*
X382910476Y-308972285D01*
X383100952Y-308924666D01*
X383243809Y-308924666D01*
X383434285Y-308972285D01*
X383529523Y-309019904D01*
X383624761Y-309115142D01*
X383672380Y-309258000D01*
X383672380Y-309496095D01*
X383561428Y-321408000D02*
X383561428Y-320646095D01*
X383942380Y-321027047D02*
X383180476Y-321027047D01*
X382942380Y-320265142D02*
X382942380Y-319646095D01*
X383323333Y-319979428D01*
X383323333Y-319836571D01*
X383370952Y-319741333D01*
X383418571Y-319693714D01*
X383513809Y-319646095D01*
X383751904Y-319646095D01*
X383847142Y-319693714D01*
X383894761Y-319741333D01*
X383942380Y-319836571D01*
X383942380Y-320122285D01*
X383894761Y-320217523D01*
X383847142Y-320265142D01*
X383847142Y-319217523D02*
X383894761Y-319169904D01*
X383942380Y-319217523D01*
X383894761Y-319265142D01*
X383847142Y-319217523D01*
X383942380Y-319217523D01*
X382942380Y-318836571D02*
X382942380Y-318217523D01*
X383323333Y-318550857D01*
X383323333Y-318408000D01*
X383370952Y-318312761D01*
X383418571Y-318265142D01*
X383513809Y-318217523D01*
X383751904Y-318217523D01*
X383847142Y-318265142D01*
X383894761Y-318312761D01*
X383942380Y-318408000D01*
X383942380Y-318693714D01*
X383894761Y-318788952D01*
X383847142Y-318836571D01*
X382942380Y-317931809D02*
X383942380Y-317598476D01*
X382942380Y-317265142D01*
X378391428Y-321039904D02*
X378391428Y-320278000D01*
X378772380Y-320658952D02*
X378010476Y-320658952D01*
X377867619Y-319849428D02*
X377820000Y-319801809D01*
X377772380Y-319706571D01*
X377772380Y-319468476D01*
X377820000Y-319373238D01*
X377867619Y-319325619D01*
X377962857Y-319278000D01*
X378058095Y-319278000D01*
X378200952Y-319325619D01*
X378772380Y-319897047D01*
X378772380Y-319278000D01*
X378105714Y-318420857D02*
X378772380Y-318420857D01*
X377724761Y-318658952D02*
X378439047Y-318897047D01*
X378439047Y-318278000D01*
X377772380Y-318039904D02*
X378772380Y-317706571D01*
X377772380Y-317373238D01*
X377700000Y-310919904D02*
X377652380Y-311015142D01*
X377652380Y-311158000D01*
X377700000Y-311300857D01*
X377795238Y-311396095D01*
X377890476Y-311443714D01*
X378080952Y-311491333D01*
X378223809Y-311491333D01*
X378414285Y-311443714D01*
X378509523Y-311396095D01*
X378604761Y-311300857D01*
X378652380Y-311158000D01*
X378652380Y-311062761D01*
X378604761Y-310919904D01*
X378557142Y-310872285D01*
X378223809Y-310872285D01*
X378223809Y-311062761D01*
X378652380Y-310443714D02*
X377652380Y-310443714D01*
X378652380Y-309872285D01*
X377652380Y-309872285D01*
X378652380Y-309396095D02*
X377652380Y-309396095D01*
X377652380Y-309158000D01*
X377700000Y-309015142D01*
X377795238Y-308919904D01*
X377890476Y-308872285D01*
X378080952Y-308824666D01*
X378223809Y-308824666D01*
X378414285Y-308872285D01*
X378509523Y-308919904D01*
X378604761Y-309015142D01*
X378652380Y-309158000D01*
X378652380Y-309396095D01*
D11*
%TO.C,R4*%
X465087742Y-316150500D02*
X465562258Y-316150500D01*
X465087742Y-315105500D02*
X465562258Y-315105500D01*
%TO.C,JP10*%
X400200000Y-311048000D02*
X400200000Y-312448000D01*
X399500000Y-313148000D02*
X398900000Y-313148000D01*
X398200000Y-312448000D02*
X398200000Y-311048000D01*
X398900000Y-310348000D02*
X399500000Y-310348000D01*
X399500000Y-310348000D02*
G75*
G02*
X400200000Y-311048000I0J-700000D01*
G01*
X398200000Y-311048000D02*
G75*
G02*
X398900000Y-310348000I700000J0D01*
G01*
X398900000Y-313148000D02*
G75*
G02*
X398200000Y-312448000I0J700000D01*
G01*
X400200000Y-312448000D02*
G75*
G02*
X399500000Y-313148000I-700000J0D01*
G01*
%TO.C,JP9*%
X402580000Y-311038000D02*
X402580000Y-312438000D01*
X401880000Y-313138000D02*
X401280000Y-313138000D01*
X400580000Y-312438000D02*
X400580000Y-311038000D01*
X401280000Y-310338000D02*
X401880000Y-310338000D01*
X401880000Y-310338000D02*
G75*
G02*
X402580000Y-311038000I0J-700000D01*
G01*
X400580000Y-311038000D02*
G75*
G02*
X401280000Y-310338000I700000J0D01*
G01*
X401280000Y-313138000D02*
G75*
G02*
X400580000Y-312438000I0J700000D01*
G01*
X402580000Y-312438000D02*
G75*
G02*
X401880000Y-313138000I-700000J0D01*
G01*
%TO.C,JP8*%
X405030000Y-311038000D02*
X405030000Y-312438000D01*
X404330000Y-313138000D02*
X403730000Y-313138000D01*
X403030000Y-312438000D02*
X403030000Y-311038000D01*
X403730000Y-310338000D02*
X404330000Y-310338000D01*
X404330000Y-310338000D02*
G75*
G02*
X405030000Y-311038000I0J-700000D01*
G01*
X403030000Y-311038000D02*
G75*
G02*
X403730000Y-310338000I700000J0D01*
G01*
X403730000Y-313138000D02*
G75*
G02*
X403030000Y-312438000I0J700000D01*
G01*
X405030000Y-312438000D02*
G75*
G02*
X404330000Y-313138000I-700000J0D01*
G01*
%TO.C,JP7*%
X347410000Y-319318000D02*
X347410000Y-317918000D01*
X348110000Y-317218000D02*
X348710000Y-317218000D01*
X349410000Y-317918000D02*
X349410000Y-319318000D01*
X348710000Y-320018000D02*
X348110000Y-320018000D01*
X348110000Y-320018000D02*
G75*
G02*
X347410000Y-319318000I0J700000D01*
G01*
X349410000Y-319318000D02*
G75*
G02*
X348710000Y-320018000I-700000J0D01*
G01*
X348710000Y-317218000D02*
G75*
G02*
X349410000Y-317918000I0J-700000D01*
G01*
X347410000Y-317918000D02*
G75*
G02*
X348110000Y-317218000I700000J0D01*
G01*
%TO.C,JP6*%
X350030000Y-319308000D02*
X350030000Y-317908000D01*
X350730000Y-317208000D02*
X351330000Y-317208000D01*
X352030000Y-317908000D02*
X352030000Y-319308000D01*
X351330000Y-320008000D02*
X350730000Y-320008000D01*
X350730000Y-320008000D02*
G75*
G02*
X350030000Y-319308000I0J700000D01*
G01*
X352030000Y-319308000D02*
G75*
G02*
X351330000Y-320008000I-700000J0D01*
G01*
X351330000Y-317208000D02*
G75*
G02*
X352030000Y-317908000I0J-700000D01*
G01*
X350030000Y-317908000D02*
G75*
G02*
X350730000Y-317208000I700000J0D01*
G01*
%TO.C,JP5*%
X352550000Y-319308000D02*
X352550000Y-317908000D01*
X353250000Y-317208000D02*
X353850000Y-317208000D01*
X354550000Y-317908000D02*
X354550000Y-319308000D01*
X353850000Y-320008000D02*
X353250000Y-320008000D01*
X353250000Y-320008000D02*
G75*
G02*
X352550000Y-319308000I0J700000D01*
G01*
X354550000Y-319308000D02*
G75*
G02*
X353850000Y-320008000I-700000J0D01*
G01*
X353850000Y-317208000D02*
G75*
G02*
X354550000Y-317908000I0J-700000D01*
G01*
X352550000Y-317908000D02*
G75*
G02*
X353250000Y-317208000I700000J0D01*
G01*
%TO.C,JP3*%
X464080000Y-314138000D02*
X462680000Y-314138000D01*
X461980000Y-313438000D02*
X461980000Y-312838000D01*
X462680000Y-312138000D02*
X464080000Y-312138000D01*
X464780000Y-312838000D02*
X464780000Y-313438000D01*
X464780000Y-313438000D02*
G75*
G02*
X464080000Y-314138000I-700000J0D01*
G01*
X464080000Y-312138000D02*
G75*
G02*
X464780000Y-312838000I0J-700000D01*
G01*
X461980000Y-312838000D02*
G75*
G02*
X462680000Y-312138000I700000J0D01*
G01*
X462680000Y-314138000D02*
G75*
G02*
X461980000Y-313438000I0J700000D01*
G01*
%TO.C,JP2*%
X464080000Y-311928000D02*
X462680000Y-311928000D01*
X461980000Y-311228000D02*
X461980000Y-310628000D01*
X462680000Y-309928000D02*
X464080000Y-309928000D01*
X464780000Y-310628000D02*
X464780000Y-311228000D01*
X464780000Y-311228000D02*
G75*
G02*
X464080000Y-311928000I-700000J0D01*
G01*
X464080000Y-309928000D02*
G75*
G02*
X464780000Y-310628000I0J-700000D01*
G01*
X461980000Y-310628000D02*
G75*
G02*
X462680000Y-309928000I700000J0D01*
G01*
X462680000Y-311928000D02*
G75*
G02*
X461980000Y-311228000I0J700000D01*
G01*
%TO.C,JP1*%
X464090000Y-309768000D02*
X462690000Y-309768000D01*
X461990000Y-309068000D02*
X461990000Y-308468000D01*
X462690000Y-307768000D02*
X464090000Y-307768000D01*
X464790000Y-308468000D02*
X464790000Y-309068000D01*
X464790000Y-309068000D02*
G75*
G02*
X464090000Y-309768000I-700000J0D01*
G01*
X464090000Y-307768000D02*
G75*
G02*
X464790000Y-308468000I0J-700000D01*
G01*
X461990000Y-308468000D02*
G75*
G02*
X462690000Y-307768000I700000J0D01*
G01*
X462690000Y-309768000D02*
G75*
G02*
X461990000Y-309068000I0J700000D01*
G01*
%TO.C,U1*%
X458410000Y-315288000D02*
X454960000Y-315288000D01*
X458410000Y-315288000D02*
X460360000Y-315288000D01*
X458410000Y-320408000D02*
X456460000Y-320408000D01*
X458410000Y-320408000D02*
X460360000Y-320408000D01*
%TO.C,R3*%
X456427258Y-313240500D02*
X455952742Y-313240500D01*
X456427258Y-312195500D02*
X455952742Y-312195500D01*
%TO.C,R2*%
X456427258Y-311540500D02*
X455952742Y-311540500D01*
X456427258Y-310495500D02*
X455952742Y-310495500D01*
%TO.C,R1*%
X456427258Y-309810500D02*
X455952742Y-309810500D01*
X456427258Y-308765500D02*
X455952742Y-308765500D01*
%TO.C,R8*%
X345290000Y-318615779D02*
X345290000Y-318290221D01*
X346310000Y-318615779D02*
X346310000Y-318290221D01*
%TO.C,R15*%
X399712500Y-316230742D02*
X399712500Y-316705258D01*
X398667500Y-316230742D02*
X398667500Y-316705258D01*
%TO.C,R14*%
X402139166Y-316230742D02*
X402139166Y-316705258D01*
X401094166Y-316230742D02*
X401094166Y-316705258D01*
%TO.C,R13*%
X404565832Y-316230742D02*
X404565832Y-316705258D01*
X403520832Y-316230742D02*
X403520832Y-316705258D01*
%TO.C,R11*%
X347907500Y-314060258D02*
X347907500Y-313585742D01*
X348952500Y-314060258D02*
X348952500Y-313585742D01*
%TO.C,R10*%
X350517500Y-314060258D02*
X350517500Y-313585742D01*
X351562500Y-314060258D02*
X351562500Y-313585742D01*
%TO.C,R9*%
X353027500Y-314070258D02*
X353027500Y-313595742D01*
X354072500Y-314070258D02*
X354072500Y-313595742D01*
D12*
%TO.C,K24*%
X481910000Y-351508000D02*
X469210000Y-351508000D01*
X481910000Y-322508000D02*
X481910000Y-351508000D01*
X469210000Y-322508000D02*
X481910000Y-322508000D01*
X469210000Y-351508000D02*
X469210000Y-322508000D01*
%TO.C,K23*%
X466880000Y-351468000D02*
X454180000Y-351468000D01*
X466880000Y-322468000D02*
X466880000Y-351468000D01*
X454180000Y-322468000D02*
X466880000Y-322468000D01*
X454180000Y-351468000D02*
X454180000Y-322468000D01*
%TO.C,K22*%
X454130000Y-277958000D02*
X466830000Y-277958000D01*
X454130000Y-306958000D02*
X454130000Y-277958000D01*
X466830000Y-306958000D02*
X454130000Y-306958000D01*
X466830000Y-277958000D02*
X466830000Y-306958000D01*
%TO.C,K21*%
X469180000Y-277888000D02*
X481880000Y-277888000D01*
X469180000Y-306888000D02*
X469180000Y-277888000D01*
X481880000Y-306888000D02*
X469180000Y-306888000D01*
X481880000Y-277888000D02*
X481880000Y-306888000D01*
%TO.C,K20*%
X436650000Y-277948000D02*
X449350000Y-277948000D01*
X436650000Y-306948000D02*
X436650000Y-277948000D01*
X449350000Y-306948000D02*
X436650000Y-306948000D01*
X449350000Y-277948000D02*
X449350000Y-306948000D01*
%TO.C,K19*%
X421730000Y-277928000D02*
X434430000Y-277928000D01*
X421730000Y-306928000D02*
X421730000Y-277928000D01*
X434430000Y-306928000D02*
X421730000Y-306928000D01*
X434430000Y-277928000D02*
X434430000Y-306928000D01*
%TO.C,K18*%
X404230000Y-277938000D02*
X416930000Y-277938000D01*
X404230000Y-306938000D02*
X404230000Y-277938000D01*
X416930000Y-306938000D02*
X404230000Y-306938000D01*
X416930000Y-277938000D02*
X416930000Y-306938000D01*
%TO.C,K17*%
X389220000Y-277978000D02*
X401920000Y-277978000D01*
X389220000Y-306978000D02*
X389220000Y-277978000D01*
X401920000Y-306978000D02*
X389220000Y-306978000D01*
X401920000Y-277978000D02*
X401920000Y-306978000D01*
%TO.C,K16*%
X323990000Y-277908000D02*
X336690000Y-277908000D01*
X323990000Y-306908000D02*
X323990000Y-277908000D01*
X336690000Y-306908000D02*
X323990000Y-306908000D01*
X336690000Y-277908000D02*
X336690000Y-306908000D01*
%TO.C,K15*%
X339070000Y-277928000D02*
X351770000Y-277928000D01*
X339070000Y-306928000D02*
X339070000Y-277928000D01*
X351770000Y-306928000D02*
X339070000Y-306928000D01*
X351770000Y-277928000D02*
X351770000Y-306928000D01*
%TO.C,K14*%
X356650000Y-277928000D02*
X369350000Y-277928000D01*
X356650000Y-306928000D02*
X356650000Y-277928000D01*
X369350000Y-306928000D02*
X356650000Y-306928000D01*
X369350000Y-277928000D02*
X369350000Y-306928000D01*
%TO.C,K13*%
X371660000Y-277908000D02*
X384360000Y-277908000D01*
X371660000Y-306908000D02*
X371660000Y-277908000D01*
X384360000Y-306908000D02*
X371660000Y-306908000D01*
X384360000Y-277908000D02*
X384360000Y-306908000D01*
%TO.C,K12*%
X306400000Y-277938000D02*
X319100000Y-277938000D01*
X306400000Y-306938000D02*
X306400000Y-277938000D01*
X319100000Y-306938000D02*
X306400000Y-306938000D01*
X319100000Y-277938000D02*
X319100000Y-306938000D01*
%TO.C,K11*%
X291390000Y-277908000D02*
X304090000Y-277908000D01*
X291390000Y-306908000D02*
X291390000Y-277908000D01*
X304090000Y-306908000D02*
X291390000Y-306908000D01*
X304090000Y-277908000D02*
X304090000Y-306908000D01*
%TO.C,K10*%
X449310000Y-351548000D02*
X436610000Y-351548000D01*
X449310000Y-322548000D02*
X449310000Y-351548000D01*
X436610000Y-322548000D02*
X449310000Y-322548000D01*
X436610000Y-351548000D02*
X436610000Y-322548000D01*
%TO.C,K9*%
X434300000Y-351528000D02*
X421600000Y-351528000D01*
X434300000Y-322528000D02*
X434300000Y-351528000D01*
X421600000Y-322528000D02*
X434300000Y-322528000D01*
X421600000Y-351528000D02*
X421600000Y-322528000D01*
%TO.C,K8*%
X416710000Y-351548000D02*
X404010000Y-351548000D01*
X416710000Y-322548000D02*
X416710000Y-351548000D01*
X404010000Y-322548000D02*
X416710000Y-322548000D01*
X404010000Y-351548000D02*
X404010000Y-322548000D01*
%TO.C,K7*%
X401620000Y-351518000D02*
X388920000Y-351518000D01*
X401620000Y-322518000D02*
X401620000Y-351518000D01*
X388920000Y-322518000D02*
X401620000Y-322518000D01*
X388920000Y-351518000D02*
X388920000Y-322518000D01*
%TO.C,K6*%
X384170000Y-351398000D02*
X371470000Y-351398000D01*
X384170000Y-322398000D02*
X384170000Y-351398000D01*
X371470000Y-322398000D02*
X384170000Y-322398000D01*
X371470000Y-351398000D02*
X371470000Y-322398000D01*
%TO.C,K5*%
X369060000Y-351488000D02*
X356360000Y-351488000D01*
X369060000Y-322488000D02*
X369060000Y-351488000D01*
X356360000Y-322488000D02*
X369060000Y-322488000D01*
X356360000Y-351488000D02*
X356360000Y-322488000D01*
%TO.C,K4*%
X351730000Y-351438000D02*
X339030000Y-351438000D01*
X351730000Y-322438000D02*
X351730000Y-351438000D01*
X339030000Y-322438000D02*
X351730000Y-322438000D01*
X339030000Y-351438000D02*
X339030000Y-322438000D01*
%TO.C,K3*%
X336620000Y-351488000D02*
X323920000Y-351488000D01*
X336620000Y-322488000D02*
X336620000Y-351488000D01*
X323920000Y-322488000D02*
X336620000Y-322488000D01*
X323920000Y-351488000D02*
X323920000Y-322488000D01*
%TO.C,K2*%
X319120000Y-351478000D02*
X306420000Y-351478000D01*
X319120000Y-322478000D02*
X319120000Y-351478000D01*
X306420000Y-322478000D02*
X319120000Y-322478000D01*
X306420000Y-351478000D02*
X306420000Y-322478000D01*
%TO.C,K1*%
X304030000Y-351428000D02*
X291330000Y-351428000D01*
X304030000Y-322428000D02*
X304030000Y-351428000D01*
X291330000Y-322428000D02*
X304030000Y-322428000D01*
X291330000Y-351428000D02*
X291330000Y-322428000D01*
D11*
%TO.C,U4*%
X358895000Y-314658000D02*
X358895000Y-318518000D01*
X358895000Y-318518000D02*
X359140000Y-318518000D01*
X358895000Y-314658000D02*
X358895000Y-310798000D01*
X358895000Y-310798000D02*
X359140000Y-310798000D01*
X370665000Y-314658000D02*
X370665000Y-318518000D01*
X370665000Y-318518000D02*
X370420000Y-318518000D01*
X370665000Y-314658000D02*
X370665000Y-310798000D01*
X370665000Y-310798000D02*
X370420000Y-310798000D01*
X370420000Y-310798000D02*
X370420000Y-308983000D01*
%TO.C,U3*%
X327375000Y-314878000D02*
X327375000Y-311018000D01*
X327375000Y-311018000D02*
X327130000Y-311018000D01*
X327375000Y-314878000D02*
X327375000Y-318738000D01*
X327375000Y-318738000D02*
X327130000Y-318738000D01*
X315605000Y-314878000D02*
X315605000Y-311018000D01*
X315605000Y-311018000D02*
X315850000Y-311018000D01*
X315605000Y-314878000D02*
X315605000Y-318738000D01*
X315605000Y-318738000D02*
X315850000Y-318738000D01*
X315850000Y-318738000D02*
X315850000Y-320553000D01*
D10*
%TO.C,U7*%
X415215000Y-319438000D02*
X415215000Y-318863000D01*
X409465000Y-319438000D02*
X409465000Y-318788000D01*
X409465000Y-308788000D02*
X409465000Y-309438000D01*
X415215000Y-308788000D02*
X415215000Y-309438000D01*
X415215000Y-319438000D02*
X409465000Y-319438000D01*
X415215000Y-308788000D02*
X409465000Y-308788000D01*
X415215000Y-318863000D02*
X416815000Y-318863000D01*
%TO.C,U6*%
X334485000Y-309848000D02*
X334485000Y-310423000D01*
X340235000Y-309848000D02*
X340235000Y-310498000D01*
X340235000Y-320498000D02*
X340235000Y-319848000D01*
X334485000Y-320498000D02*
X334485000Y-319848000D01*
X334485000Y-309848000D02*
X340235000Y-309848000D01*
X334485000Y-320498000D02*
X340235000Y-320498000D01*
X334485000Y-310423000D02*
X332885000Y-310423000D01*
D11*
%TO.C,J13*%
X452930000Y-355498000D02*
X452930000Y-367718000D01*
X452930000Y-367718000D02*
X483150000Y-367718000D01*
X483150000Y-367718000D02*
X483150000Y-355498000D01*
X483150000Y-355498000D02*
X452930000Y-355498000D01*
X452930000Y-366218000D02*
X452930000Y-364418000D01*
X452930000Y-364418000D02*
X483150000Y-364418000D01*
X483150000Y-364418000D02*
X483150000Y-366218000D01*
X483150000Y-366218000D02*
X452930000Y-366218000D01*
X455790000Y-367718000D02*
X457790000Y-367718000D01*
X457790000Y-367718000D02*
X457540000Y-366218000D01*
X457540000Y-366218000D02*
X456040000Y-366218000D01*
X456040000Y-366218000D02*
X455790000Y-367718000D01*
X463290000Y-367718000D02*
X465290000Y-367718000D01*
X465290000Y-367718000D02*
X465040000Y-366218000D01*
X465040000Y-366218000D02*
X463540000Y-366218000D01*
X463540000Y-366218000D02*
X463290000Y-367718000D01*
X470790000Y-367718000D02*
X472790000Y-367718000D01*
X472790000Y-367718000D02*
X472540000Y-366218000D01*
X472540000Y-366218000D02*
X471040000Y-366218000D01*
X471040000Y-366218000D02*
X470790000Y-367718000D01*
X478290000Y-367718000D02*
X480290000Y-367718000D01*
X480290000Y-367718000D02*
X480040000Y-366218000D01*
X480040000Y-366218000D02*
X478540000Y-366218000D01*
X478540000Y-366218000D02*
X478290000Y-367718000D01*
X457090000Y-354698000D02*
X456790000Y-355298000D01*
X456790000Y-355298000D02*
X456490000Y-354698000D01*
X456490000Y-354698000D02*
X457090000Y-354698000D01*
%TO.C,J12*%
X483110000Y-273928000D02*
X483110000Y-261708000D01*
X483110000Y-261708000D02*
X452890000Y-261708000D01*
X452890000Y-261708000D02*
X452890000Y-273928000D01*
X452890000Y-273928000D02*
X483110000Y-273928000D01*
X483110000Y-263208000D02*
X483110000Y-265008000D01*
X483110000Y-265008000D02*
X452890000Y-265008000D01*
X452890000Y-265008000D02*
X452890000Y-263208000D01*
X452890000Y-263208000D02*
X483110000Y-263208000D01*
X480250000Y-261708000D02*
X478250000Y-261708000D01*
X478250000Y-261708000D02*
X478500000Y-263208000D01*
X478500000Y-263208000D02*
X480000000Y-263208000D01*
X480000000Y-263208000D02*
X480250000Y-261708000D01*
X472750000Y-261708000D02*
X470750000Y-261708000D01*
X470750000Y-261708000D02*
X471000000Y-263208000D01*
X471000000Y-263208000D02*
X472500000Y-263208000D01*
X472500000Y-263208000D02*
X472750000Y-261708000D01*
X465250000Y-261708000D02*
X463250000Y-261708000D01*
X463250000Y-261708000D02*
X463500000Y-263208000D01*
X463500000Y-263208000D02*
X465000000Y-263208000D01*
X465000000Y-263208000D02*
X465250000Y-261708000D01*
X457750000Y-261708000D02*
X455750000Y-261708000D01*
X455750000Y-261708000D02*
X456000000Y-263208000D01*
X456000000Y-263208000D02*
X457500000Y-263208000D01*
X457500000Y-263208000D02*
X457750000Y-261708000D01*
X478950000Y-274728000D02*
X479250000Y-274128000D01*
X479250000Y-274128000D02*
X479550000Y-274728000D01*
X479550000Y-274728000D02*
X478950000Y-274728000D01*
%TO.C,J10*%
X418150000Y-273908000D02*
X418150000Y-261688000D01*
X418150000Y-261688000D02*
X387930000Y-261688000D01*
X387930000Y-261688000D02*
X387930000Y-273908000D01*
X387930000Y-273908000D02*
X418150000Y-273908000D01*
X418150000Y-263188000D02*
X418150000Y-264988000D01*
X418150000Y-264988000D02*
X387930000Y-264988000D01*
X387930000Y-264988000D02*
X387930000Y-263188000D01*
X387930000Y-263188000D02*
X418150000Y-263188000D01*
X415290000Y-261688000D02*
X413290000Y-261688000D01*
X413290000Y-261688000D02*
X413540000Y-263188000D01*
X413540000Y-263188000D02*
X415040000Y-263188000D01*
X415040000Y-263188000D02*
X415290000Y-261688000D01*
X407790000Y-261688000D02*
X405790000Y-261688000D01*
X405790000Y-261688000D02*
X406040000Y-263188000D01*
X406040000Y-263188000D02*
X407540000Y-263188000D01*
X407540000Y-263188000D02*
X407790000Y-261688000D01*
X400290000Y-261688000D02*
X398290000Y-261688000D01*
X398290000Y-261688000D02*
X398540000Y-263188000D01*
X398540000Y-263188000D02*
X400040000Y-263188000D01*
X400040000Y-263188000D02*
X400290000Y-261688000D01*
X392790000Y-261688000D02*
X390790000Y-261688000D01*
X390790000Y-261688000D02*
X391040000Y-263188000D01*
X391040000Y-263188000D02*
X392540000Y-263188000D01*
X392540000Y-263188000D02*
X392790000Y-261688000D01*
X413990000Y-274708000D02*
X414290000Y-274108000D01*
X414290000Y-274108000D02*
X414590000Y-274708000D01*
X414590000Y-274708000D02*
X413990000Y-274708000D01*
%TO.C,J9*%
X352980000Y-273878000D02*
X352980000Y-261658000D01*
X352980000Y-261658000D02*
X322760000Y-261658000D01*
X322760000Y-261658000D02*
X322760000Y-273878000D01*
X322760000Y-273878000D02*
X352980000Y-273878000D01*
X352980000Y-263158000D02*
X352980000Y-264958000D01*
X352980000Y-264958000D02*
X322760000Y-264958000D01*
X322760000Y-264958000D02*
X322760000Y-263158000D01*
X322760000Y-263158000D02*
X352980000Y-263158000D01*
X350120000Y-261658000D02*
X348120000Y-261658000D01*
X348120000Y-261658000D02*
X348370000Y-263158000D01*
X348370000Y-263158000D02*
X349870000Y-263158000D01*
X349870000Y-263158000D02*
X350120000Y-261658000D01*
X342620000Y-261658000D02*
X340620000Y-261658000D01*
X340620000Y-261658000D02*
X340870000Y-263158000D01*
X340870000Y-263158000D02*
X342370000Y-263158000D01*
X342370000Y-263158000D02*
X342620000Y-261658000D01*
X335120000Y-261658000D02*
X333120000Y-261658000D01*
X333120000Y-261658000D02*
X333370000Y-263158000D01*
X333370000Y-263158000D02*
X334870000Y-263158000D01*
X334870000Y-263158000D02*
X335120000Y-261658000D01*
X327620000Y-261658000D02*
X325620000Y-261658000D01*
X325620000Y-261658000D02*
X325870000Y-263158000D01*
X325870000Y-263158000D02*
X327370000Y-263158000D01*
X327370000Y-263158000D02*
X327620000Y-261658000D01*
X348820000Y-274678000D02*
X349120000Y-274078000D01*
X349120000Y-274078000D02*
X349420000Y-274678000D01*
X349420000Y-274678000D02*
X348820000Y-274678000D01*
%TO.C,J8*%
X385600000Y-273898000D02*
X385600000Y-261678000D01*
X385600000Y-261678000D02*
X355380000Y-261678000D01*
X355380000Y-261678000D02*
X355380000Y-273898000D01*
X355380000Y-273898000D02*
X385600000Y-273898000D01*
X385600000Y-263178000D02*
X385600000Y-264978000D01*
X385600000Y-264978000D02*
X355380000Y-264978000D01*
X355380000Y-264978000D02*
X355380000Y-263178000D01*
X355380000Y-263178000D02*
X385600000Y-263178000D01*
X382740000Y-261678000D02*
X380740000Y-261678000D01*
X380740000Y-261678000D02*
X380990000Y-263178000D01*
X380990000Y-263178000D02*
X382490000Y-263178000D01*
X382490000Y-263178000D02*
X382740000Y-261678000D01*
X375240000Y-261678000D02*
X373240000Y-261678000D01*
X373240000Y-261678000D02*
X373490000Y-263178000D01*
X373490000Y-263178000D02*
X374990000Y-263178000D01*
X374990000Y-263178000D02*
X375240000Y-261678000D01*
X367740000Y-261678000D02*
X365740000Y-261678000D01*
X365740000Y-261678000D02*
X365990000Y-263178000D01*
X365990000Y-263178000D02*
X367490000Y-263178000D01*
X367490000Y-263178000D02*
X367740000Y-261678000D01*
X360240000Y-261678000D02*
X358240000Y-261678000D01*
X358240000Y-261678000D02*
X358490000Y-263178000D01*
X358490000Y-263178000D02*
X359990000Y-263178000D01*
X359990000Y-263178000D02*
X360240000Y-261678000D01*
X381440000Y-274698000D02*
X381740000Y-274098000D01*
X381740000Y-274098000D02*
X382040000Y-274698000D01*
X382040000Y-274698000D02*
X381440000Y-274698000D01*
%TO.C,C6*%
X419140000Y-312080779D02*
X419140000Y-311755221D01*
X420160000Y-312080779D02*
X420160000Y-311755221D01*
%TO.C,C5*%
X330720279Y-319728000D02*
X330394721Y-319728000D01*
X330720279Y-318708000D02*
X330394721Y-318708000D01*
%TO.C,C1*%
X466840000Y-317787721D02*
X466840000Y-318113279D01*
X465820000Y-317787721D02*
X465820000Y-318113279D01*
%TO.C,J3*%
X387082200Y-317029000D02*
X387082200Y-311829000D01*
X379402200Y-317029000D02*
X387082200Y-317029000D01*
X376802200Y-311829000D02*
X387082200Y-311829000D01*
X379402200Y-317029000D02*
X379402200Y-314429000D01*
X379402200Y-314429000D02*
X376802200Y-314429000D01*
X376802200Y-314429000D02*
X376802200Y-311829000D01*
X378132200Y-317029000D02*
X376802200Y-317029000D01*
X376802200Y-317029000D02*
X376802200Y-315699000D01*
D13*
%TO.C,U2*%
X459910000Y-316673000D02*
X456910000Y-316673000D01*
X456910000Y-316673000D02*
X456910000Y-319023000D01*
X456910000Y-319023000D02*
X459910000Y-319023000D01*
X459910000Y-319023000D02*
X459910000Y-316673000D01*
D14*
X460101419Y-315638000D02*
G75*
G03*
X460101419Y-315638000I-141419J0D01*
G01*
X460068166Y-315638000D02*
G75*
G03*
X460068166Y-315638000I-108166J0D01*
G01*
X460049441Y-315638000D02*
G75*
G03*
X460049441Y-315638000I-89441J0D01*
G01*
X460027081Y-315638000D02*
G75*
G03*
X460027081Y-315638000I-67081J0D01*
G01*
X460018309Y-315638000D02*
G75*
G03*
X460018309Y-315638000I-58309J0D01*
G01*
X459990000Y-315648000D02*
G75*
G03*
X459990000Y-315648000I-40000J0D01*
G01*
X460016053Y-315618000D02*
G75*
G03*
X460016053Y-315618000I-36053J0D01*
G01*
X460138044Y-315638000D02*
G75*
G03*
X460138044Y-315638000I-178044J0D01*
G01*
D11*
%TO.C,R12*%
X406980000Y-316630779D02*
X406980000Y-316305221D01*
X405960000Y-316630779D02*
X405960000Y-316305221D01*
D15*
%TO.C,G\u002A\u002A\u002A*%
G36*
X292898328Y-311962586D02*
G01*
X293099236Y-312158360D01*
X293230703Y-312426006D01*
X293244229Y-312481979D01*
X293294500Y-312733333D01*
X293930261Y-312733333D01*
X294488072Y-312760663D01*
X294925125Y-312851685D01*
X295282401Y-313019952D01*
X295600879Y-313279012D01*
X295611020Y-313289084D01*
X295921840Y-313700243D01*
X296085784Y-314142592D01*
X296116850Y-314594464D01*
X296029034Y-315034190D01*
X295836332Y-315440102D01*
X295552742Y-315790531D01*
X295192259Y-316063810D01*
X294768880Y-316238271D01*
X294296603Y-316292244D01*
X293789422Y-316204062D01*
X293739000Y-316187178D01*
X293287788Y-315946646D01*
X292910380Y-315584892D01*
X292743578Y-315331928D01*
X292675315Y-315191217D01*
X292624717Y-315042793D01*
X292588494Y-314857911D01*
X292563354Y-314607826D01*
X292546003Y-314263796D01*
X292533152Y-313797074D01*
X292525969Y-313431833D01*
X292525609Y-313410666D01*
X293273334Y-313410666D01*
X293274582Y-314109166D01*
X293291605Y-314566736D01*
X293350853Y-314896854D01*
X293467462Y-315139218D01*
X293656565Y-315333528D01*
X293773921Y-315418958D01*
X294149482Y-315585172D01*
X294533138Y-315582281D01*
X294805282Y-315480889D01*
X295114972Y-315233113D01*
X295310108Y-314894302D01*
X295378801Y-314508082D01*
X295309166Y-314118077D01*
X295224095Y-313943943D01*
X295016222Y-313687899D01*
X294743658Y-313522631D01*
X294373426Y-313434732D01*
X293912538Y-313410666D01*
X293273334Y-313410666D01*
X292525609Y-313410666D01*
X292516665Y-312886155D01*
X292512988Y-312486909D01*
X292517126Y-312211229D01*
X292531271Y-312036249D01*
X292557612Y-311939103D01*
X292598338Y-311896925D01*
X292655640Y-311886849D01*
X292673943Y-311886666D01*
X292898328Y-311962586D01*
G37*
X292898328Y-311962586D02*
X293099236Y-312158360D01*
X293230703Y-312426006D01*
X293244229Y-312481979D01*
X293294500Y-312733333D01*
X293930261Y-312733333D01*
X294488072Y-312760663D01*
X294925125Y-312851685D01*
X295282401Y-313019952D01*
X295600879Y-313279012D01*
X295611020Y-313289084D01*
X295921840Y-313700243D01*
X296085784Y-314142592D01*
X296116850Y-314594464D01*
X296029034Y-315034190D01*
X295836332Y-315440102D01*
X295552742Y-315790531D01*
X295192259Y-316063810D01*
X294768880Y-316238271D01*
X294296603Y-316292244D01*
X293789422Y-316204062D01*
X293739000Y-316187178D01*
X293287788Y-315946646D01*
X292910380Y-315584892D01*
X292743578Y-315331928D01*
X292675315Y-315191217D01*
X292624717Y-315042793D01*
X292588494Y-314857911D01*
X292563354Y-314607826D01*
X292546003Y-314263796D01*
X292533152Y-313797074D01*
X292525969Y-313431833D01*
X292525609Y-313410666D01*
X293273334Y-313410666D01*
X293274582Y-314109166D01*
X293291605Y-314566736D01*
X293350853Y-314896854D01*
X293467462Y-315139218D01*
X293656565Y-315333528D01*
X293773921Y-315418958D01*
X294149482Y-315585172D01*
X294533138Y-315582281D01*
X294805282Y-315480889D01*
X295114972Y-315233113D01*
X295310108Y-314894302D01*
X295378801Y-314508082D01*
X295309166Y-314118077D01*
X295224095Y-313943943D01*
X295016222Y-313687899D01*
X294743658Y-313522631D01*
X294373426Y-313434732D01*
X293912538Y-313410666D01*
X293273334Y-313410666D01*
X292525609Y-313410666D01*
X292516665Y-312886155D01*
X292512988Y-312486909D01*
X292517126Y-312211229D01*
X292531271Y-312036249D01*
X292557612Y-311939103D01*
X292598338Y-311896925D01*
X292655640Y-311886849D01*
X292673943Y-311886666D01*
X292898328Y-311962586D01*
G36*
X298888543Y-312859806D02*
G01*
X299276729Y-313075487D01*
X299599863Y-313377634D01*
X299843469Y-313745963D01*
X299993068Y-314160191D01*
X300034185Y-314600036D01*
X299952341Y-315045215D01*
X299733060Y-315475444D01*
X299491802Y-315755152D01*
X299038114Y-316091103D01*
X298551503Y-316261363D01*
X298038092Y-316265012D01*
X297504006Y-316101130D01*
X297428876Y-316065235D01*
X297034550Y-315810184D01*
X296742879Y-315472843D01*
X296728932Y-315451402D01*
X296595478Y-315225595D01*
X296523729Y-315031355D01*
X296498908Y-314802728D01*
X296501656Y-314679371D01*
X297175130Y-314679371D01*
X297285321Y-315004335D01*
X297489477Y-315275666D01*
X297763278Y-315474512D01*
X298082409Y-315582024D01*
X298422551Y-315579351D01*
X298759388Y-315447642D01*
X299006592Y-315240585D01*
X299182819Y-315019334D01*
X299264342Y-314809324D01*
X299284653Y-314522726D01*
X299284667Y-314511333D01*
X299265665Y-314220437D01*
X299186568Y-314009281D01*
X299014235Y-313790430D01*
X299009449Y-313785198D01*
X298677250Y-313531903D01*
X298306525Y-313426665D01*
X297933068Y-313466095D01*
X297592669Y-313646801D01*
X297333906Y-313943943D01*
X297183219Y-314319624D01*
X297175130Y-314679371D01*
X296501656Y-314679371D01*
X296506237Y-314473763D01*
X296506863Y-314460294D01*
X296584279Y-313925175D01*
X296771456Y-313505098D01*
X297085312Y-313173491D01*
X297478449Y-312934385D01*
X297974926Y-312768972D01*
X298449783Y-312750873D01*
X298888543Y-312859806D01*
G37*
X298888543Y-312859806D02*
X299276729Y-313075487D01*
X299599863Y-313377634D01*
X299843469Y-313745963D01*
X299993068Y-314160191D01*
X300034185Y-314600036D01*
X299952341Y-315045215D01*
X299733060Y-315475444D01*
X299491802Y-315755152D01*
X299038114Y-316091103D01*
X298551503Y-316261363D01*
X298038092Y-316265012D01*
X297504006Y-316101130D01*
X297428876Y-316065235D01*
X297034550Y-315810184D01*
X296742879Y-315472843D01*
X296728932Y-315451402D01*
X296595478Y-315225595D01*
X296523729Y-315031355D01*
X296498908Y-314802728D01*
X296501656Y-314679371D01*
X297175130Y-314679371D01*
X297285321Y-315004335D01*
X297489477Y-315275666D01*
X297763278Y-315474512D01*
X298082409Y-315582024D01*
X298422551Y-315579351D01*
X298759388Y-315447642D01*
X299006592Y-315240585D01*
X299182819Y-315019334D01*
X299264342Y-314809324D01*
X299284653Y-314522726D01*
X299284667Y-314511333D01*
X299265665Y-314220437D01*
X299186568Y-314009281D01*
X299014235Y-313790430D01*
X299009449Y-313785198D01*
X298677250Y-313531903D01*
X298306525Y-313426665D01*
X297933068Y-313466095D01*
X297592669Y-313646801D01*
X297333906Y-313943943D01*
X297183219Y-314319624D01*
X297175130Y-314679371D01*
X296501656Y-314679371D01*
X296506237Y-314473763D01*
X296506863Y-314460294D01*
X296584279Y-313925175D01*
X296771456Y-313505098D01*
X297085312Y-313173491D01*
X297478449Y-312934385D01*
X297974926Y-312768972D01*
X298449783Y-312750873D01*
X298888543Y-312859806D01*
G36*
X302694155Y-312825405D02*
G01*
X303154873Y-313051416D01*
X303321939Y-313181725D01*
X303556761Y-313415417D01*
X303725243Y-313662177D01*
X303837537Y-313955343D01*
X303903794Y-314328252D01*
X303934164Y-314814242D01*
X303939474Y-315209833D01*
X303934923Y-315701358D01*
X303914165Y-316038107D01*
X303869502Y-316234424D01*
X303793242Y-316304652D01*
X303677687Y-316263136D01*
X303515143Y-316124218D01*
X303471818Y-316081515D01*
X303369597Y-315963465D01*
X303307607Y-315831039D01*
X303275998Y-315639966D01*
X303264919Y-315345974D01*
X303264000Y-315147462D01*
X303249009Y-314734123D01*
X303208163Y-314383274D01*
X303147912Y-314148780D01*
X302916752Y-313784542D01*
X302603445Y-313542729D01*
X302239765Y-313435922D01*
X301857486Y-313476701D01*
X301661875Y-313560422D01*
X301393697Y-313757693D01*
X301212722Y-314021077D01*
X301107048Y-314379812D01*
X301064769Y-314863141D01*
X301062667Y-315032254D01*
X301056838Y-315382850D01*
X301041306Y-315678504D01*
X301019001Y-315870601D01*
X301010073Y-315904540D01*
X300907097Y-316025633D01*
X300722133Y-316162121D01*
X300529592Y-316264485D01*
X300431871Y-316289333D01*
X300414584Y-316209901D01*
X300400205Y-315992532D01*
X300390059Y-315668613D01*
X300385469Y-315269533D01*
X300385334Y-315185293D01*
X300389253Y-314704633D01*
X300403780Y-314357157D01*
X300433065Y-314106839D01*
X300481259Y-313917654D01*
X300549679Y-313759110D01*
X300859171Y-313317650D01*
X301257821Y-312997415D01*
X301716173Y-312804539D01*
X302204769Y-312745157D01*
X302694155Y-312825405D01*
G37*
X302694155Y-312825405D02*
X303154873Y-313051416D01*
X303321939Y-313181725D01*
X303556761Y-313415417D01*
X303725243Y-313662177D01*
X303837537Y-313955343D01*
X303903794Y-314328252D01*
X303934164Y-314814242D01*
X303939474Y-315209833D01*
X303934923Y-315701358D01*
X303914165Y-316038107D01*
X303869502Y-316234424D01*
X303793242Y-316304652D01*
X303677687Y-316263136D01*
X303515143Y-316124218D01*
X303471818Y-316081515D01*
X303369597Y-315963465D01*
X303307607Y-315831039D01*
X303275998Y-315639966D01*
X303264919Y-315345974D01*
X303264000Y-315147462D01*
X303249009Y-314734123D01*
X303208163Y-314383274D01*
X303147912Y-314148780D01*
X302916752Y-313784542D01*
X302603445Y-313542729D01*
X302239765Y-313435922D01*
X301857486Y-313476701D01*
X301661875Y-313560422D01*
X301393697Y-313757693D01*
X301212722Y-314021077D01*
X301107048Y-314379812D01*
X301064769Y-314863141D01*
X301062667Y-315032254D01*
X301056838Y-315382850D01*
X301041306Y-315678504D01*
X301019001Y-315870601D01*
X301010073Y-315904540D01*
X300907097Y-316025633D01*
X300722133Y-316162121D01*
X300529592Y-316264485D01*
X300431871Y-316289333D01*
X300414584Y-316209901D01*
X300400205Y-315992532D01*
X300390059Y-315668613D01*
X300385469Y-315269533D01*
X300385334Y-315185293D01*
X300389253Y-314704633D01*
X300403780Y-314357157D01*
X300433065Y-314106839D01*
X300481259Y-313917654D01*
X300549679Y-313759110D01*
X300859171Y-313317650D01*
X301257821Y-312997415D01*
X301716173Y-312804539D01*
X302204769Y-312745157D01*
X302694155Y-312825405D01*
G36*
X306850230Y-312746469D02*
G01*
X307082955Y-312789546D01*
X307168939Y-312874525D01*
X307118781Y-313011508D01*
X306950849Y-313202848D01*
X306764699Y-313342280D01*
X306532056Y-313402375D01*
X306335694Y-313410666D01*
X305870347Y-313478084D01*
X305487974Y-313670834D01*
X305215733Y-313974662D01*
X305196709Y-314008554D01*
X305064429Y-314353595D01*
X305069736Y-314680503D01*
X305183391Y-314995366D01*
X305425569Y-315328729D01*
X305775900Y-315533436D01*
X306236884Y-315610875D01*
X306294682Y-315611683D01*
X306594914Y-315629361D01*
X306795619Y-315696150D01*
X306950849Y-315819818D01*
X307092643Y-315997016D01*
X307158146Y-316148683D01*
X307158667Y-316158484D01*
X307081979Y-316232857D01*
X306878887Y-316279052D01*
X306589847Y-316297728D01*
X306255312Y-316289541D01*
X305915740Y-316255150D01*
X305611586Y-316195213D01*
X305423000Y-316130258D01*
X304945309Y-315830771D01*
X304607032Y-315437905D01*
X304412934Y-314958910D01*
X304364667Y-314519564D01*
X304403823Y-314065377D01*
X304537560Y-313701115D01*
X304790280Y-313362597D01*
X304814360Y-313336827D01*
X305149669Y-313045391D01*
X305524055Y-312858223D01*
X305979282Y-312760057D01*
X306460167Y-312735192D01*
X306850230Y-312746469D01*
G37*
X306850230Y-312746469D02*
X307082955Y-312789546D01*
X307168939Y-312874525D01*
X307118781Y-313011508D01*
X306950849Y-313202848D01*
X306764699Y-313342280D01*
X306532056Y-313402375D01*
X306335694Y-313410666D01*
X305870347Y-313478084D01*
X305487974Y-313670834D01*
X305215733Y-313974662D01*
X305196709Y-314008554D01*
X305064429Y-314353595D01*
X305069736Y-314680503D01*
X305183391Y-314995366D01*
X305425569Y-315328729D01*
X305775900Y-315533436D01*
X306236884Y-315610875D01*
X306294682Y-315611683D01*
X306594914Y-315629361D01*
X306795619Y-315696150D01*
X306950849Y-315819818D01*
X307092643Y-315997016D01*
X307158146Y-316148683D01*
X307158667Y-316158484D01*
X307081979Y-316232857D01*
X306878887Y-316279052D01*
X306589847Y-316297728D01*
X306255312Y-316289541D01*
X305915740Y-316255150D01*
X305611586Y-316195213D01*
X305423000Y-316130258D01*
X304945309Y-315830771D01*
X304607032Y-315437905D01*
X304412934Y-314958910D01*
X304364667Y-314519564D01*
X304403823Y-314065377D01*
X304537560Y-313701115D01*
X304790280Y-313362597D01*
X304814360Y-313336827D01*
X305149669Y-313045391D01*
X305524055Y-312858223D01*
X305979282Y-312760057D01*
X306460167Y-312735192D01*
X306850230Y-312746469D01*
G36*
X308407289Y-311913047D02*
G01*
X308426339Y-312081134D01*
X308428667Y-312275593D01*
X308428667Y-312733333D01*
X308153500Y-312736647D01*
X307878334Y-312739961D01*
X308153500Y-312859560D01*
X308428667Y-312979158D01*
X308428667Y-314634246D01*
X308425584Y-315142539D01*
X308416989Y-315587372D01*
X308403866Y-315943159D01*
X308387199Y-316184319D01*
X308367969Y-316285269D01*
X308365167Y-316286758D01*
X308248277Y-316246566D01*
X308132334Y-316187071D01*
X308010520Y-316109767D01*
X307918293Y-316020707D01*
X307851502Y-315896759D01*
X307805997Y-315714788D01*
X307777629Y-315451661D01*
X307762247Y-315084246D01*
X307755701Y-314589409D01*
X307754026Y-314078251D01*
X307754200Y-313487085D01*
X307758153Y-313040968D01*
X307767926Y-312715625D01*
X307785560Y-312486783D01*
X307813096Y-312330165D01*
X307852574Y-312221498D01*
X307906034Y-312136505D01*
X307918624Y-312120160D01*
X308091083Y-311953792D01*
X308257291Y-311862668D01*
X308356020Y-311852466D01*
X308407289Y-311913047D01*
G37*
X308407289Y-311913047D02*
X308426339Y-312081134D01*
X308428667Y-312275593D01*
X308428667Y-312733333D01*
X308153500Y-312736647D01*
X307878334Y-312739961D01*
X308153500Y-312859560D01*
X308428667Y-312979158D01*
X308428667Y-314634246D01*
X308425584Y-315142539D01*
X308416989Y-315587372D01*
X308403866Y-315943159D01*
X308387199Y-316184319D01*
X308367969Y-316285269D01*
X308365167Y-316286758D01*
X308248277Y-316246566D01*
X308132334Y-316187071D01*
X308010520Y-316109767D01*
X307918293Y-316020707D01*
X307851502Y-315896759D01*
X307805997Y-315714788D01*
X307777629Y-315451661D01*
X307762247Y-315084246D01*
X307755701Y-314589409D01*
X307754026Y-314078251D01*
X307754200Y-313487085D01*
X307758153Y-313040968D01*
X307767926Y-312715625D01*
X307785560Y-312486783D01*
X307813096Y-312330165D01*
X307852574Y-312221498D01*
X307906034Y-312136505D01*
X307918624Y-312120160D01*
X308091083Y-311953792D01*
X308257291Y-311862668D01*
X308356020Y-311852466D01*
X308407289Y-311913047D01*
G36*
X312147088Y-312012024D02*
G01*
X312397846Y-312153367D01*
X312490689Y-312214570D01*
X312945419Y-312611921D01*
X313265673Y-313086253D01*
X313448865Y-313610920D01*
X313492413Y-314159277D01*
X313393731Y-314704678D01*
X313150236Y-315220479D01*
X312821148Y-315621921D01*
X312351700Y-315974819D01*
X311816801Y-316201036D01*
X311255328Y-316290139D01*
X310706157Y-316231691D01*
X310629452Y-316210225D01*
X310148057Y-315989974D01*
X309701225Y-315651445D01*
X309337261Y-315237596D01*
X309140106Y-314885702D01*
X309026389Y-314420014D01*
X309029453Y-313898430D01*
X309138193Y-313371859D01*
X309341503Y-312891212D01*
X309628280Y-312507397D01*
X309666792Y-312471151D01*
X310010730Y-312181022D01*
X310260149Y-312021924D01*
X310425454Y-311991980D01*
X310517047Y-312089311D01*
X310545333Y-312312041D01*
X310545334Y-312312586D01*
X310522183Y-312550917D01*
X310427907Y-312733723D01*
X310236389Y-312925097D01*
X309922209Y-313294017D01*
X309751933Y-313699003D01*
X309711612Y-314116717D01*
X309787299Y-314523823D01*
X309965048Y-314896984D01*
X310230910Y-315212864D01*
X310570941Y-315448125D01*
X310971191Y-315579433D01*
X311417714Y-315583448D01*
X311769742Y-315490744D01*
X312202535Y-315246186D01*
X312519100Y-314906596D01*
X312715104Y-314502323D01*
X312786212Y-314063712D01*
X312728091Y-313621111D01*
X312536406Y-313204866D01*
X312206822Y-312845325D01*
X312153436Y-312804195D01*
X311973375Y-312630485D01*
X311905531Y-312421572D01*
X311900000Y-312294077D01*
X311920132Y-312079422D01*
X311995172Y-311986390D01*
X312147088Y-312012024D01*
G37*
X312147088Y-312012024D02*
X312397846Y-312153367D01*
X312490689Y-312214570D01*
X312945419Y-312611921D01*
X313265673Y-313086253D01*
X313448865Y-313610920D01*
X313492413Y-314159277D01*
X313393731Y-314704678D01*
X313150236Y-315220479D01*
X312821148Y-315621921D01*
X312351700Y-315974819D01*
X311816801Y-316201036D01*
X311255328Y-316290139D01*
X310706157Y-316231691D01*
X310629452Y-316210225D01*
X310148057Y-315989974D01*
X309701225Y-315651445D01*
X309337261Y-315237596D01*
X309140106Y-314885702D01*
X309026389Y-314420014D01*
X309029453Y-313898430D01*
X309138193Y-313371859D01*
X309341503Y-312891212D01*
X309628280Y-312507397D01*
X309666792Y-312471151D01*
X310010730Y-312181022D01*
X310260149Y-312021924D01*
X310425454Y-311991980D01*
X310517047Y-312089311D01*
X310545333Y-312312041D01*
X310545334Y-312312586D01*
X310522183Y-312550917D01*
X310427907Y-312733723D01*
X310236389Y-312925097D01*
X309922209Y-313294017D01*
X309751933Y-313699003D01*
X309711612Y-314116717D01*
X309787299Y-314523823D01*
X309965048Y-314896984D01*
X310230910Y-315212864D01*
X310570941Y-315448125D01*
X310971191Y-315579433D01*
X311417714Y-315583448D01*
X311769742Y-315490744D01*
X312202535Y-315246186D01*
X312519100Y-314906596D01*
X312715104Y-314502323D01*
X312786212Y-314063712D01*
X312728091Y-313621111D01*
X312536406Y-313204866D01*
X312206822Y-312845325D01*
X312153436Y-312804195D01*
X311973375Y-312630485D01*
X311905531Y-312421572D01*
X311900000Y-312294077D01*
X311920132Y-312079422D01*
X311995172Y-311986390D01*
X312147088Y-312012024D01*
G36*
X306847253Y-314184848D02*
G01*
X307081254Y-314228168D01*
X307168648Y-314312786D01*
X307120145Y-314448865D01*
X306950849Y-314642181D01*
X306796565Y-314765809D01*
X306612672Y-314828788D01*
X306337517Y-314849350D01*
X306248115Y-314850000D01*
X305962307Y-314833526D01*
X305740005Y-314790976D01*
X305651600Y-314748400D01*
X305560632Y-314582116D01*
X305550000Y-314511333D01*
X305585020Y-314355823D01*
X305706425Y-314253855D01*
X305938734Y-314196266D01*
X306306465Y-314173888D01*
X306455934Y-314172666D01*
X306847253Y-314184848D01*
G37*
X306847253Y-314184848D02*
X307081254Y-314228168D01*
X307168648Y-314312786D01*
X307120145Y-314448865D01*
X306950849Y-314642181D01*
X306796565Y-314765809D01*
X306612672Y-314828788D01*
X306337517Y-314849350D01*
X306248115Y-314850000D01*
X305962307Y-314833526D01*
X305740005Y-314790976D01*
X305651600Y-314748400D01*
X305560632Y-314582116D01*
X305550000Y-314511333D01*
X305585020Y-314355823D01*
X305706425Y-314253855D01*
X305938734Y-314196266D01*
X306306465Y-314173888D01*
X306455934Y-314172666D01*
X306847253Y-314184848D01*
G36*
X311386083Y-311834827D02*
G01*
X311475934Y-311948915D01*
X311530462Y-312167672D01*
X311556462Y-312514505D01*
X311561334Y-312860333D01*
X311551804Y-313314949D01*
X311518686Y-313624475D01*
X311455184Y-313812318D01*
X311354503Y-313901886D01*
X311254114Y-313918666D01*
X311114899Y-313863598D01*
X311017048Y-313785619D01*
X310949539Y-313673654D01*
X310908016Y-313480454D01*
X310887865Y-313173938D01*
X310884000Y-312860333D01*
X310899172Y-312396220D01*
X310949281Y-312079393D01*
X311041222Y-311890144D01*
X311181885Y-311808764D01*
X311254114Y-311802000D01*
X311386083Y-311834827D01*
G37*
X311386083Y-311834827D02*
X311475934Y-311948915D01*
X311530462Y-312167672D01*
X311556462Y-312514505D01*
X311561334Y-312860333D01*
X311551804Y-313314949D01*
X311518686Y-313624475D01*
X311455184Y-313812318D01*
X311354503Y-313901886D01*
X311254114Y-313918666D01*
X311114899Y-313863598D01*
X311017048Y-313785619D01*
X310949539Y-313673654D01*
X310908016Y-313480454D01*
X310887865Y-313173938D01*
X310884000Y-312860333D01*
X310899172Y-312396220D01*
X310949281Y-312079393D01*
X311041222Y-311890144D01*
X311181885Y-311808764D01*
X311254114Y-311802000D01*
X311386083Y-311834827D01*
D11*
%TO.C,C4*%
X435334420Y-309248000D02*
X435615580Y-309248000D01*
X435334420Y-310268000D02*
X435615580Y-310268000D01*
%TO.C,C3*%
X356900000Y-318673580D02*
X356900000Y-318392420D01*
X357920000Y-318673580D02*
X357920000Y-318392420D01*
%TO.C,C2*%
X329104420Y-309718000D02*
X329385580Y-309718000D01*
X329104420Y-310738000D02*
X329385580Y-310738000D01*
%TO.C,R5*%
X465032500Y-317750742D02*
X465032500Y-318225258D01*
X463987500Y-317750742D02*
X463987500Y-318225258D01*
%TO.C,R6*%
X389117500Y-318080258D02*
X389117500Y-317605742D01*
X390162500Y-318080258D02*
X390162500Y-317605742D01*
%TO.C,R7*%
X391847500Y-318100258D02*
X391847500Y-317625742D01*
X392892500Y-318100258D02*
X392892500Y-317625742D01*
%TO.C,U5*%
X432725000Y-314428000D02*
X432725000Y-310568000D01*
X432725000Y-310568000D02*
X432480000Y-310568000D01*
X432725000Y-314428000D02*
X432725000Y-318288000D01*
X432725000Y-318288000D02*
X432480000Y-318288000D01*
X420955000Y-314428000D02*
X420955000Y-310568000D01*
X420955000Y-310568000D02*
X421200000Y-310568000D01*
X420955000Y-314428000D02*
X420955000Y-318288000D01*
X420955000Y-318288000D02*
X421200000Y-318288000D01*
X421200000Y-318288000D02*
X421200000Y-320103000D01*
%TO.C,J1*%
X290130000Y-355498000D02*
X290130000Y-367718000D01*
X290130000Y-367718000D02*
X320350000Y-367718000D01*
X320350000Y-367718000D02*
X320350000Y-355498000D01*
X320350000Y-355498000D02*
X290130000Y-355498000D01*
X290130000Y-366218000D02*
X290130000Y-364418000D01*
X290130000Y-364418000D02*
X320350000Y-364418000D01*
X320350000Y-364418000D02*
X320350000Y-366218000D01*
X320350000Y-366218000D02*
X290130000Y-366218000D01*
X292990000Y-367718000D02*
X294990000Y-367718000D01*
X294990000Y-367718000D02*
X294740000Y-366218000D01*
X294740000Y-366218000D02*
X293240000Y-366218000D01*
X293240000Y-366218000D02*
X292990000Y-367718000D01*
X300490000Y-367718000D02*
X302490000Y-367718000D01*
X302490000Y-367718000D02*
X302240000Y-366218000D01*
X302240000Y-366218000D02*
X300740000Y-366218000D01*
X300740000Y-366218000D02*
X300490000Y-367718000D01*
X307990000Y-367718000D02*
X309990000Y-367718000D01*
X309990000Y-367718000D02*
X309740000Y-366218000D01*
X309740000Y-366218000D02*
X308240000Y-366218000D01*
X308240000Y-366218000D02*
X307990000Y-367718000D01*
X315490000Y-367718000D02*
X317490000Y-367718000D01*
X317490000Y-367718000D02*
X317240000Y-366218000D01*
X317240000Y-366218000D02*
X315740000Y-366218000D01*
X315740000Y-366218000D02*
X315490000Y-367718000D01*
X294290000Y-354698000D02*
X293990000Y-355298000D01*
X293990000Y-355298000D02*
X293690000Y-354698000D01*
X293690000Y-354698000D02*
X294290000Y-354698000D01*
%TO.C,J11*%
X450660000Y-273928000D02*
X450660000Y-261708000D01*
X450660000Y-261708000D02*
X420440000Y-261708000D01*
X420440000Y-261708000D02*
X420440000Y-273928000D01*
X420440000Y-273928000D02*
X450660000Y-273928000D01*
X450660000Y-263208000D02*
X450660000Y-265008000D01*
X450660000Y-265008000D02*
X420440000Y-265008000D01*
X420440000Y-265008000D02*
X420440000Y-263208000D01*
X420440000Y-263208000D02*
X450660000Y-263208000D01*
X447800000Y-261708000D02*
X445800000Y-261708000D01*
X445800000Y-261708000D02*
X446050000Y-263208000D01*
X446050000Y-263208000D02*
X447550000Y-263208000D01*
X447550000Y-263208000D02*
X447800000Y-261708000D01*
X440300000Y-261708000D02*
X438300000Y-261708000D01*
X438300000Y-261708000D02*
X438550000Y-263208000D01*
X438550000Y-263208000D02*
X440050000Y-263208000D01*
X440050000Y-263208000D02*
X440300000Y-261708000D01*
X432800000Y-261708000D02*
X430800000Y-261708000D01*
X430800000Y-261708000D02*
X431050000Y-263208000D01*
X431050000Y-263208000D02*
X432550000Y-263208000D01*
X432550000Y-263208000D02*
X432800000Y-261708000D01*
X425300000Y-261708000D02*
X423300000Y-261708000D01*
X423300000Y-261708000D02*
X423550000Y-263208000D01*
X423550000Y-263208000D02*
X425050000Y-263208000D01*
X425050000Y-263208000D02*
X425300000Y-261708000D01*
X446500000Y-274728000D02*
X446800000Y-274128000D01*
X446800000Y-274128000D02*
X447100000Y-274728000D01*
X447100000Y-274728000D02*
X446500000Y-274728000D01*
%TO.C,J7*%
X320350000Y-273928000D02*
X320350000Y-261708000D01*
X320350000Y-261708000D02*
X290130000Y-261708000D01*
X290130000Y-261708000D02*
X290130000Y-273928000D01*
X290130000Y-273928000D02*
X320350000Y-273928000D01*
X320350000Y-263208000D02*
X320350000Y-265008000D01*
X320350000Y-265008000D02*
X290130000Y-265008000D01*
X290130000Y-265008000D02*
X290130000Y-263208000D01*
X290130000Y-263208000D02*
X320350000Y-263208000D01*
X317490000Y-261708000D02*
X315490000Y-261708000D01*
X315490000Y-261708000D02*
X315740000Y-263208000D01*
X315740000Y-263208000D02*
X317240000Y-263208000D01*
X317240000Y-263208000D02*
X317490000Y-261708000D01*
X309990000Y-261708000D02*
X307990000Y-261708000D01*
X307990000Y-261708000D02*
X308240000Y-263208000D01*
X308240000Y-263208000D02*
X309740000Y-263208000D01*
X309740000Y-263208000D02*
X309990000Y-261708000D01*
X302490000Y-261708000D02*
X300490000Y-261708000D01*
X300490000Y-261708000D02*
X300740000Y-263208000D01*
X300740000Y-263208000D02*
X302240000Y-263208000D01*
X302240000Y-263208000D02*
X302490000Y-261708000D01*
X294990000Y-261708000D02*
X292990000Y-261708000D01*
X292990000Y-261708000D02*
X293240000Y-263208000D01*
X293240000Y-263208000D02*
X294740000Y-263208000D01*
X294740000Y-263208000D02*
X294990000Y-261708000D01*
X316190000Y-274728000D02*
X316490000Y-274128000D01*
X316490000Y-274128000D02*
X316790000Y-274728000D01*
X316790000Y-274728000D02*
X316190000Y-274728000D01*
%TO.C,J6*%
X420340000Y-355458000D02*
X420340000Y-367678000D01*
X420340000Y-367678000D02*
X450560000Y-367678000D01*
X450560000Y-367678000D02*
X450560000Y-355458000D01*
X450560000Y-355458000D02*
X420340000Y-355458000D01*
X420340000Y-366178000D02*
X420340000Y-364378000D01*
X420340000Y-364378000D02*
X450560000Y-364378000D01*
X450560000Y-364378000D02*
X450560000Y-366178000D01*
X450560000Y-366178000D02*
X420340000Y-366178000D01*
X423200000Y-367678000D02*
X425200000Y-367678000D01*
X425200000Y-367678000D02*
X424950000Y-366178000D01*
X424950000Y-366178000D02*
X423450000Y-366178000D01*
X423450000Y-366178000D02*
X423200000Y-367678000D01*
X430700000Y-367678000D02*
X432700000Y-367678000D01*
X432700000Y-367678000D02*
X432450000Y-366178000D01*
X432450000Y-366178000D02*
X430950000Y-366178000D01*
X430950000Y-366178000D02*
X430700000Y-367678000D01*
X438200000Y-367678000D02*
X440200000Y-367678000D01*
X440200000Y-367678000D02*
X439950000Y-366178000D01*
X439950000Y-366178000D02*
X438450000Y-366178000D01*
X438450000Y-366178000D02*
X438200000Y-367678000D01*
X445700000Y-367678000D02*
X447700000Y-367678000D01*
X447700000Y-367678000D02*
X447450000Y-366178000D01*
X447450000Y-366178000D02*
X445950000Y-366178000D01*
X445950000Y-366178000D02*
X445700000Y-367678000D01*
X424500000Y-354658000D02*
X424200000Y-355258000D01*
X424200000Y-355258000D02*
X423900000Y-354658000D01*
X423900000Y-354658000D02*
X424500000Y-354658000D01*
%TO.C,J5*%
X387700000Y-355508000D02*
X387700000Y-367728000D01*
X387700000Y-367728000D02*
X417920000Y-367728000D01*
X417920000Y-367728000D02*
X417920000Y-355508000D01*
X417920000Y-355508000D02*
X387700000Y-355508000D01*
X387700000Y-366228000D02*
X387700000Y-364428000D01*
X387700000Y-364428000D02*
X417920000Y-364428000D01*
X417920000Y-364428000D02*
X417920000Y-366228000D01*
X417920000Y-366228000D02*
X387700000Y-366228000D01*
X390560000Y-367728000D02*
X392560000Y-367728000D01*
X392560000Y-367728000D02*
X392310000Y-366228000D01*
X392310000Y-366228000D02*
X390810000Y-366228000D01*
X390810000Y-366228000D02*
X390560000Y-367728000D01*
X398060000Y-367728000D02*
X400060000Y-367728000D01*
X400060000Y-367728000D02*
X399810000Y-366228000D01*
X399810000Y-366228000D02*
X398310000Y-366228000D01*
X398310000Y-366228000D02*
X398060000Y-367728000D01*
X405560000Y-367728000D02*
X407560000Y-367728000D01*
X407560000Y-367728000D02*
X407310000Y-366228000D01*
X407310000Y-366228000D02*
X405810000Y-366228000D01*
X405810000Y-366228000D02*
X405560000Y-367728000D01*
X413060000Y-367728000D02*
X415060000Y-367728000D01*
X415060000Y-367728000D02*
X414810000Y-366228000D01*
X414810000Y-366228000D02*
X413310000Y-366228000D01*
X413310000Y-366228000D02*
X413060000Y-367728000D01*
X391860000Y-354708000D02*
X391560000Y-355308000D01*
X391560000Y-355308000D02*
X391260000Y-354708000D01*
X391260000Y-354708000D02*
X391860000Y-354708000D01*
%TO.C,J4*%
X355170000Y-355478000D02*
X355170000Y-367698000D01*
X355170000Y-367698000D02*
X385390000Y-367698000D01*
X385390000Y-367698000D02*
X385390000Y-355478000D01*
X385390000Y-355478000D02*
X355170000Y-355478000D01*
X355170000Y-366198000D02*
X355170000Y-364398000D01*
X355170000Y-364398000D02*
X385390000Y-364398000D01*
X385390000Y-364398000D02*
X385390000Y-366198000D01*
X385390000Y-366198000D02*
X355170000Y-366198000D01*
X358030000Y-367698000D02*
X360030000Y-367698000D01*
X360030000Y-367698000D02*
X359780000Y-366198000D01*
X359780000Y-366198000D02*
X358280000Y-366198000D01*
X358280000Y-366198000D02*
X358030000Y-367698000D01*
X365530000Y-367698000D02*
X367530000Y-367698000D01*
X367530000Y-367698000D02*
X367280000Y-366198000D01*
X367280000Y-366198000D02*
X365780000Y-366198000D01*
X365780000Y-366198000D02*
X365530000Y-367698000D01*
X373030000Y-367698000D02*
X375030000Y-367698000D01*
X375030000Y-367698000D02*
X374780000Y-366198000D01*
X374780000Y-366198000D02*
X373280000Y-366198000D01*
X373280000Y-366198000D02*
X373030000Y-367698000D01*
X380530000Y-367698000D02*
X382530000Y-367698000D01*
X382530000Y-367698000D02*
X382280000Y-366198000D01*
X382280000Y-366198000D02*
X380780000Y-366198000D01*
X380780000Y-366198000D02*
X380530000Y-367698000D01*
X359330000Y-354678000D02*
X359030000Y-355278000D01*
X359030000Y-355278000D02*
X358730000Y-354678000D01*
X358730000Y-354678000D02*
X359330000Y-354678000D01*
%TO.C,J2*%
X322650000Y-355468000D02*
X322650000Y-367688000D01*
X322650000Y-367688000D02*
X352870000Y-367688000D01*
X352870000Y-367688000D02*
X352870000Y-355468000D01*
X352870000Y-355468000D02*
X322650000Y-355468000D01*
X322650000Y-366188000D02*
X322650000Y-364388000D01*
X322650000Y-364388000D02*
X352870000Y-364388000D01*
X352870000Y-364388000D02*
X352870000Y-366188000D01*
X352870000Y-366188000D02*
X322650000Y-366188000D01*
X325510000Y-367688000D02*
X327510000Y-367688000D01*
X327510000Y-367688000D02*
X327260000Y-366188000D01*
X327260000Y-366188000D02*
X325760000Y-366188000D01*
X325760000Y-366188000D02*
X325510000Y-367688000D01*
X333010000Y-367688000D02*
X335010000Y-367688000D01*
X335010000Y-367688000D02*
X334760000Y-366188000D01*
X334760000Y-366188000D02*
X333260000Y-366188000D01*
X333260000Y-366188000D02*
X333010000Y-367688000D01*
X340510000Y-367688000D02*
X342510000Y-367688000D01*
X342510000Y-367688000D02*
X342260000Y-366188000D01*
X342260000Y-366188000D02*
X340760000Y-366188000D01*
X340760000Y-366188000D02*
X340510000Y-367688000D01*
X348010000Y-367688000D02*
X350010000Y-367688000D01*
X350010000Y-367688000D02*
X349760000Y-366188000D01*
X349760000Y-366188000D02*
X348260000Y-366188000D01*
X348260000Y-366188000D02*
X348010000Y-367688000D01*
X326810000Y-354668000D02*
X326510000Y-355268000D01*
X326510000Y-355268000D02*
X326210000Y-354668000D01*
X326210000Y-354668000D02*
X326810000Y-354668000D01*
%TO.C,R4*%
D10*
X463702380Y-315804666D02*
X463226190Y-316138000D01*
X463702380Y-316376095D02*
X462702380Y-316376095D01*
X462702380Y-315995142D01*
X462750000Y-315899904D01*
X462797619Y-315852285D01*
X462892857Y-315804666D01*
X463035714Y-315804666D01*
X463130952Y-315852285D01*
X463178571Y-315899904D01*
X463226190Y-315995142D01*
X463226190Y-316376095D01*
X463035714Y-314947523D02*
X463702380Y-314947523D01*
X462654761Y-315185619D02*
X463369047Y-315423714D01*
X463369047Y-314804666D01*
%TO.C,JP10*%
X398752380Y-310017523D02*
X399466666Y-310017523D01*
X399609523Y-310065142D01*
X399704761Y-310160380D01*
X399752380Y-310303238D01*
X399752380Y-310398476D01*
X399752380Y-309541333D02*
X398752380Y-309541333D01*
X398752380Y-309160380D01*
X398800000Y-309065142D01*
X398847619Y-309017523D01*
X398942857Y-308969904D01*
X399085714Y-308969904D01*
X399180952Y-309017523D01*
X399228571Y-309065142D01*
X399276190Y-309160380D01*
X399276190Y-309541333D01*
X399752380Y-308017523D02*
X399752380Y-308588952D01*
X399752380Y-308303238D02*
X398752380Y-308303238D01*
X398895238Y-308398476D01*
X398990476Y-308493714D01*
X399038095Y-308588952D01*
X398752380Y-307398476D02*
X398752380Y-307303238D01*
X398800000Y-307208000D01*
X398847619Y-307160380D01*
X398942857Y-307112761D01*
X399133333Y-307065142D01*
X399371428Y-307065142D01*
X399561904Y-307112761D01*
X399657142Y-307160380D01*
X399704761Y-307208000D01*
X399752380Y-307303238D01*
X399752380Y-307398476D01*
X399704761Y-307493714D01*
X399657142Y-307541333D01*
X399561904Y-307588952D01*
X399371428Y-307636571D01*
X399133333Y-307636571D01*
X398942857Y-307588952D01*
X398847619Y-307541333D01*
X398800000Y-307493714D01*
X398752380Y-307398476D01*
%TO.C,JP9*%
X401032380Y-309711333D02*
X401746666Y-309711333D01*
X401889523Y-309758952D01*
X401984761Y-309854190D01*
X402032380Y-309997047D01*
X402032380Y-310092285D01*
X402032380Y-309235142D02*
X401032380Y-309235142D01*
X401032380Y-308854190D01*
X401080000Y-308758952D01*
X401127619Y-308711333D01*
X401222857Y-308663714D01*
X401365714Y-308663714D01*
X401460952Y-308711333D01*
X401508571Y-308758952D01*
X401556190Y-308854190D01*
X401556190Y-309235142D01*
X402032380Y-308187523D02*
X402032380Y-307997047D01*
X401984761Y-307901809D01*
X401937142Y-307854190D01*
X401794285Y-307758952D01*
X401603809Y-307711333D01*
X401222857Y-307711333D01*
X401127619Y-307758952D01*
X401080000Y-307806571D01*
X401032380Y-307901809D01*
X401032380Y-308092285D01*
X401080000Y-308187523D01*
X401127619Y-308235142D01*
X401222857Y-308282761D01*
X401460952Y-308282761D01*
X401556190Y-308235142D01*
X401603809Y-308187523D01*
X401651428Y-308092285D01*
X401651428Y-307901809D01*
X401603809Y-307806571D01*
X401556190Y-307758952D01*
X401460952Y-307711333D01*
%TO.C,JP8*%
X403472380Y-309791333D02*
X404186666Y-309791333D01*
X404329523Y-309838952D01*
X404424761Y-309934190D01*
X404472380Y-310077047D01*
X404472380Y-310172285D01*
X404472380Y-309315142D02*
X403472380Y-309315142D01*
X403472380Y-308934190D01*
X403520000Y-308838952D01*
X403567619Y-308791333D01*
X403662857Y-308743714D01*
X403805714Y-308743714D01*
X403900952Y-308791333D01*
X403948571Y-308838952D01*
X403996190Y-308934190D01*
X403996190Y-309315142D01*
X403900952Y-308172285D02*
X403853333Y-308267523D01*
X403805714Y-308315142D01*
X403710476Y-308362761D01*
X403662857Y-308362761D01*
X403567619Y-308315142D01*
X403520000Y-308267523D01*
X403472380Y-308172285D01*
X403472380Y-307981809D01*
X403520000Y-307886571D01*
X403567619Y-307838952D01*
X403662857Y-307791333D01*
X403710476Y-307791333D01*
X403805714Y-307838952D01*
X403853333Y-307886571D01*
X403900952Y-307981809D01*
X403900952Y-308172285D01*
X403948571Y-308267523D01*
X403996190Y-308315142D01*
X404091428Y-308362761D01*
X404281904Y-308362761D01*
X404377142Y-308315142D01*
X404424761Y-308267523D01*
X404472380Y-308172285D01*
X404472380Y-307981809D01*
X404424761Y-307886571D01*
X404377142Y-307838952D01*
X404281904Y-307791333D01*
X404091428Y-307791333D01*
X403996190Y-307838952D01*
X403948571Y-307886571D01*
X403900952Y-307981809D01*
%TO.C,JP7*%
X347186666Y-320510380D02*
X347186666Y-321224666D01*
X347139047Y-321367523D01*
X347043809Y-321462761D01*
X346900952Y-321510380D01*
X346805714Y-321510380D01*
X347662857Y-321510380D02*
X347662857Y-320510380D01*
X348043809Y-320510380D01*
X348139047Y-320558000D01*
X348186666Y-320605619D01*
X348234285Y-320700857D01*
X348234285Y-320843714D01*
X348186666Y-320938952D01*
X348139047Y-320986571D01*
X348043809Y-321034190D01*
X347662857Y-321034190D01*
X348567619Y-320510380D02*
X349234285Y-320510380D01*
X348805714Y-321510380D01*
%TO.C,JP6*%
X350136666Y-320500380D02*
X350136666Y-321214666D01*
X350089047Y-321357523D01*
X349993809Y-321452761D01*
X349850952Y-321500380D01*
X349755714Y-321500380D01*
X350612857Y-321500380D02*
X350612857Y-320500380D01*
X350993809Y-320500380D01*
X351089047Y-320548000D01*
X351136666Y-320595619D01*
X351184285Y-320690857D01*
X351184285Y-320833714D01*
X351136666Y-320928952D01*
X351089047Y-320976571D01*
X350993809Y-321024190D01*
X350612857Y-321024190D01*
X352041428Y-320500380D02*
X351850952Y-320500380D01*
X351755714Y-320548000D01*
X351708095Y-320595619D01*
X351612857Y-320738476D01*
X351565238Y-320928952D01*
X351565238Y-321309904D01*
X351612857Y-321405142D01*
X351660476Y-321452761D01*
X351755714Y-321500380D01*
X351946190Y-321500380D01*
X352041428Y-321452761D01*
X352089047Y-321405142D01*
X352136666Y-321309904D01*
X352136666Y-321071809D01*
X352089047Y-320976571D01*
X352041428Y-320928952D01*
X351946190Y-320881333D01*
X351755714Y-320881333D01*
X351660476Y-320928952D01*
X351612857Y-320976571D01*
X351565238Y-321071809D01*
%TO.C,JP5*%
X353126666Y-320520380D02*
X353126666Y-321234666D01*
X353079047Y-321377523D01*
X352983809Y-321472761D01*
X352840952Y-321520380D01*
X352745714Y-321520380D01*
X353602857Y-321520380D02*
X353602857Y-320520380D01*
X353983809Y-320520380D01*
X354079047Y-320568000D01*
X354126666Y-320615619D01*
X354174285Y-320710857D01*
X354174285Y-320853714D01*
X354126666Y-320948952D01*
X354079047Y-320996571D01*
X353983809Y-321044190D01*
X353602857Y-321044190D01*
X355079047Y-320520380D02*
X354602857Y-320520380D01*
X354555238Y-320996571D01*
X354602857Y-320948952D01*
X354698095Y-320901333D01*
X354936190Y-320901333D01*
X355031428Y-320948952D01*
X355079047Y-320996571D01*
X355126666Y-321091809D01*
X355126666Y-321329904D01*
X355079047Y-321425142D01*
X355031428Y-321472761D01*
X354936190Y-321520380D01*
X354698095Y-321520380D01*
X354602857Y-321472761D01*
X354555238Y-321425142D01*
%TO.C,JP3*%
X465346666Y-312590380D02*
X465346666Y-313304666D01*
X465299047Y-313447523D01*
X465203809Y-313542761D01*
X465060952Y-313590380D01*
X464965714Y-313590380D01*
X465822857Y-313590380D02*
X465822857Y-312590380D01*
X466203809Y-312590380D01*
X466299047Y-312638000D01*
X466346666Y-312685619D01*
X466394285Y-312780857D01*
X466394285Y-312923714D01*
X466346666Y-313018952D01*
X466299047Y-313066571D01*
X466203809Y-313114190D01*
X465822857Y-313114190D01*
X466727619Y-312590380D02*
X467346666Y-312590380D01*
X467013333Y-312971333D01*
X467156190Y-312971333D01*
X467251428Y-313018952D01*
X467299047Y-313066571D01*
X467346666Y-313161809D01*
X467346666Y-313399904D01*
X467299047Y-313495142D01*
X467251428Y-313542761D01*
X467156190Y-313590380D01*
X466870476Y-313590380D01*
X466775238Y-313542761D01*
X466727619Y-313495142D01*
%TO.C,JP2*%
X465376666Y-310380380D02*
X465376666Y-311094666D01*
X465329047Y-311237523D01*
X465233809Y-311332761D01*
X465090952Y-311380380D01*
X464995714Y-311380380D01*
X465852857Y-311380380D02*
X465852857Y-310380380D01*
X466233809Y-310380380D01*
X466329047Y-310428000D01*
X466376666Y-310475619D01*
X466424285Y-310570857D01*
X466424285Y-310713714D01*
X466376666Y-310808952D01*
X466329047Y-310856571D01*
X466233809Y-310904190D01*
X465852857Y-310904190D01*
X466805238Y-310475619D02*
X466852857Y-310428000D01*
X466948095Y-310380380D01*
X467186190Y-310380380D01*
X467281428Y-310428000D01*
X467329047Y-310475619D01*
X467376666Y-310570857D01*
X467376666Y-310666095D01*
X467329047Y-310808952D01*
X466757619Y-311380380D01*
X467376666Y-311380380D01*
%TO.C,JP1*%
X465436666Y-308230380D02*
X465436666Y-308944666D01*
X465389047Y-309087523D01*
X465293809Y-309182761D01*
X465150952Y-309230380D01*
X465055714Y-309230380D01*
X465912857Y-309230380D02*
X465912857Y-308230380D01*
X466293809Y-308230380D01*
X466389047Y-308278000D01*
X466436666Y-308325619D01*
X466484285Y-308420857D01*
X466484285Y-308563714D01*
X466436666Y-308658952D01*
X466389047Y-308706571D01*
X466293809Y-308754190D01*
X465912857Y-308754190D01*
X467436666Y-309230380D02*
X466865238Y-309230380D01*
X467150952Y-309230380D02*
X467150952Y-308230380D01*
X467055714Y-308373238D01*
X466960476Y-308468476D01*
X466865238Y-308516095D01*
%TO.C,U1*%
X454788095Y-320770380D02*
X454788095Y-321579904D01*
X454835714Y-321675142D01*
X454883333Y-321722761D01*
X454978571Y-321770380D01*
X455169047Y-321770380D01*
X455264285Y-321722761D01*
X455311904Y-321675142D01*
X455359523Y-321579904D01*
X455359523Y-320770380D01*
X456359523Y-321770380D02*
X455788095Y-321770380D01*
X456073809Y-321770380D02*
X456073809Y-320770380D01*
X455978571Y-320913238D01*
X455883333Y-321008476D01*
X455788095Y-321056095D01*
%TO.C,R3*%
X453613333Y-313150380D02*
X453280000Y-312674190D01*
X453041904Y-313150380D02*
X453041904Y-312150380D01*
X453422857Y-312150380D01*
X453518095Y-312198000D01*
X453565714Y-312245619D01*
X453613333Y-312340857D01*
X453613333Y-312483714D01*
X453565714Y-312578952D01*
X453518095Y-312626571D01*
X453422857Y-312674190D01*
X453041904Y-312674190D01*
X453946666Y-312150380D02*
X454565714Y-312150380D01*
X454232380Y-312531333D01*
X454375238Y-312531333D01*
X454470476Y-312578952D01*
X454518095Y-312626571D01*
X454565714Y-312721809D01*
X454565714Y-312959904D01*
X454518095Y-313055142D01*
X454470476Y-313102761D01*
X454375238Y-313150380D01*
X454089523Y-313150380D01*
X453994285Y-313102761D01*
X453946666Y-313055142D01*
%TO.C,R2*%
X453643333Y-311410380D02*
X453310000Y-310934190D01*
X453071904Y-311410380D02*
X453071904Y-310410380D01*
X453452857Y-310410380D01*
X453548095Y-310458000D01*
X453595714Y-310505619D01*
X453643333Y-310600857D01*
X453643333Y-310743714D01*
X453595714Y-310838952D01*
X453548095Y-310886571D01*
X453452857Y-310934190D01*
X453071904Y-310934190D01*
X454024285Y-310505619D02*
X454071904Y-310458000D01*
X454167142Y-310410380D01*
X454405238Y-310410380D01*
X454500476Y-310458000D01*
X454548095Y-310505619D01*
X454595714Y-310600857D01*
X454595714Y-310696095D01*
X454548095Y-310838952D01*
X453976666Y-311410380D01*
X454595714Y-311410380D01*
%TO.C,R1*%
X453633333Y-309740380D02*
X453300000Y-309264190D01*
X453061904Y-309740380D02*
X453061904Y-308740380D01*
X453442857Y-308740380D01*
X453538095Y-308788000D01*
X453585714Y-308835619D01*
X453633333Y-308930857D01*
X453633333Y-309073714D01*
X453585714Y-309168952D01*
X453538095Y-309216571D01*
X453442857Y-309264190D01*
X453061904Y-309264190D01*
X454585714Y-309740380D02*
X454014285Y-309740380D01*
X454300000Y-309740380D02*
X454300000Y-308740380D01*
X454204761Y-308883238D01*
X454109523Y-308978476D01*
X454014285Y-309026095D01*
%TO.C,R8*%
X344822380Y-318619666D02*
X344346190Y-318953000D01*
X344822380Y-319191095D02*
X343822380Y-319191095D01*
X343822380Y-318810142D01*
X343870000Y-318714904D01*
X343917619Y-318667285D01*
X344012857Y-318619666D01*
X344155714Y-318619666D01*
X344250952Y-318667285D01*
X344298571Y-318714904D01*
X344346190Y-318810142D01*
X344346190Y-319191095D01*
X344250952Y-318048238D02*
X344203333Y-318143476D01*
X344155714Y-318191095D01*
X344060476Y-318238714D01*
X344012857Y-318238714D01*
X343917619Y-318191095D01*
X343870000Y-318143476D01*
X343822380Y-318048238D01*
X343822380Y-317857761D01*
X343870000Y-317762523D01*
X343917619Y-317714904D01*
X344012857Y-317667285D01*
X344060476Y-317667285D01*
X344155714Y-317714904D01*
X344203333Y-317762523D01*
X344250952Y-317857761D01*
X344250952Y-318048238D01*
X344298571Y-318143476D01*
X344346190Y-318191095D01*
X344441428Y-318238714D01*
X344631904Y-318238714D01*
X344727142Y-318191095D01*
X344774761Y-318143476D01*
X344822380Y-318048238D01*
X344822380Y-317857761D01*
X344774761Y-317762523D01*
X344727142Y-317714904D01*
X344631904Y-317667285D01*
X344441428Y-317667285D01*
X344346190Y-317714904D01*
X344298571Y-317762523D01*
X344250952Y-317857761D01*
%TO.C,R15*%
X398442380Y-316998357D02*
X397966190Y-317331690D01*
X398442380Y-317569785D02*
X397442380Y-317569785D01*
X397442380Y-317188833D01*
X397490000Y-317093595D01*
X397537619Y-317045976D01*
X397632857Y-316998357D01*
X397775714Y-316998357D01*
X397870952Y-317045976D01*
X397918571Y-317093595D01*
X397966190Y-317188833D01*
X397966190Y-317569785D01*
X398442380Y-316045976D02*
X398442380Y-316617404D01*
X398442380Y-316331690D02*
X397442380Y-316331690D01*
X397585238Y-316426928D01*
X397680476Y-316522166D01*
X397728095Y-316617404D01*
X397442380Y-315141214D02*
X397442380Y-315617404D01*
X397918571Y-315665023D01*
X397870952Y-315617404D01*
X397823333Y-315522166D01*
X397823333Y-315284071D01*
X397870952Y-315188833D01*
X397918571Y-315141214D01*
X398013809Y-315093595D01*
X398251904Y-315093595D01*
X398347142Y-315141214D01*
X398394761Y-315188833D01*
X398442380Y-315284071D01*
X398442380Y-315522166D01*
X398394761Y-315617404D01*
X398347142Y-315665023D01*
%TO.C,R14*%
X400849046Y-316998357D02*
X400372856Y-317331690D01*
X400849046Y-317569785D02*
X399849046Y-317569785D01*
X399849046Y-317188833D01*
X399896666Y-317093595D01*
X399944285Y-317045976D01*
X400039523Y-316998357D01*
X400182380Y-316998357D01*
X400277618Y-317045976D01*
X400325237Y-317093595D01*
X400372856Y-317188833D01*
X400372856Y-317569785D01*
X400849046Y-316045976D02*
X400849046Y-316617404D01*
X400849046Y-316331690D02*
X399849046Y-316331690D01*
X399991904Y-316426928D01*
X400087142Y-316522166D01*
X400134761Y-316617404D01*
X400182380Y-315188833D02*
X400849046Y-315188833D01*
X399801427Y-315426928D02*
X400515713Y-315665023D01*
X400515713Y-315045976D01*
%TO.C,R13*%
X403285712Y-316998357D02*
X402809522Y-317331690D01*
X403285712Y-317569785D02*
X402285712Y-317569785D01*
X402285712Y-317188833D01*
X402333332Y-317093595D01*
X402380951Y-317045976D01*
X402476189Y-316998357D01*
X402619046Y-316998357D01*
X402714284Y-317045976D01*
X402761903Y-317093595D01*
X402809522Y-317188833D01*
X402809522Y-317569785D01*
X403285712Y-316045976D02*
X403285712Y-316617404D01*
X403285712Y-316331690D02*
X402285712Y-316331690D01*
X402428570Y-316426928D01*
X402523808Y-316522166D01*
X402571427Y-316617404D01*
X402285712Y-315712642D02*
X402285712Y-315093595D01*
X402666665Y-315426928D01*
X402666665Y-315284071D01*
X402714284Y-315188833D01*
X402761903Y-315141214D01*
X402857141Y-315093595D01*
X403095236Y-315093595D01*
X403190474Y-315141214D01*
X403238093Y-315188833D01*
X403285712Y-315284071D01*
X403285712Y-315569785D01*
X403238093Y-315665023D01*
X403190474Y-315712642D01*
%TO.C,R11*%
X347632380Y-314450857D02*
X347156190Y-314784190D01*
X347632380Y-315022285D02*
X346632380Y-315022285D01*
X346632380Y-314641333D01*
X346680000Y-314546095D01*
X346727619Y-314498476D01*
X346822857Y-314450857D01*
X346965714Y-314450857D01*
X347060952Y-314498476D01*
X347108571Y-314546095D01*
X347156190Y-314641333D01*
X347156190Y-315022285D01*
X347632380Y-313498476D02*
X347632380Y-314069904D01*
X347632380Y-313784190D02*
X346632380Y-313784190D01*
X346775238Y-313879428D01*
X346870476Y-313974666D01*
X346918095Y-314069904D01*
X347632380Y-312546095D02*
X347632380Y-313117523D01*
X347632380Y-312831809D02*
X346632380Y-312831809D01*
X346775238Y-312927047D01*
X346870476Y-313022285D01*
X346918095Y-313117523D01*
%TO.C,R10*%
X350252380Y-314480857D02*
X349776190Y-314814190D01*
X350252380Y-315052285D02*
X349252380Y-315052285D01*
X349252380Y-314671333D01*
X349300000Y-314576095D01*
X349347619Y-314528476D01*
X349442857Y-314480857D01*
X349585714Y-314480857D01*
X349680952Y-314528476D01*
X349728571Y-314576095D01*
X349776190Y-314671333D01*
X349776190Y-315052285D01*
X350252380Y-313528476D02*
X350252380Y-314099904D01*
X350252380Y-313814190D02*
X349252380Y-313814190D01*
X349395238Y-313909428D01*
X349490476Y-314004666D01*
X349538095Y-314099904D01*
X349252380Y-312909428D02*
X349252380Y-312814190D01*
X349300000Y-312718952D01*
X349347619Y-312671333D01*
X349442857Y-312623714D01*
X349633333Y-312576095D01*
X349871428Y-312576095D01*
X350061904Y-312623714D01*
X350157142Y-312671333D01*
X350204761Y-312718952D01*
X350252380Y-312814190D01*
X350252380Y-312909428D01*
X350204761Y-313004666D01*
X350157142Y-313052285D01*
X350061904Y-313099904D01*
X349871428Y-313147523D01*
X349633333Y-313147523D01*
X349442857Y-313099904D01*
X349347619Y-313052285D01*
X349300000Y-313004666D01*
X349252380Y-312909428D01*
%TO.C,R9*%
X352792380Y-313994666D02*
X352316190Y-314328000D01*
X352792380Y-314566095D02*
X351792380Y-314566095D01*
X351792380Y-314185142D01*
X351840000Y-314089904D01*
X351887619Y-314042285D01*
X351982857Y-313994666D01*
X352125714Y-313994666D01*
X352220952Y-314042285D01*
X352268571Y-314089904D01*
X352316190Y-314185142D01*
X352316190Y-314566095D01*
X352792380Y-313518476D02*
X352792380Y-313328000D01*
X352744761Y-313232761D01*
X352697142Y-313185142D01*
X352554285Y-313089904D01*
X352363809Y-313042285D01*
X351982857Y-313042285D01*
X351887619Y-313089904D01*
X351840000Y-313137523D01*
X351792380Y-313232761D01*
X351792380Y-313423238D01*
X351840000Y-313518476D01*
X351887619Y-313566095D01*
X351982857Y-313613714D01*
X352220952Y-313613714D01*
X352316190Y-313566095D01*
X352363809Y-313518476D01*
X352411428Y-313423238D01*
X352411428Y-313232761D01*
X352363809Y-313137523D01*
X352316190Y-313089904D01*
X352220952Y-313042285D01*
%TO.C,K24*%
D16*
X473547857Y-353312523D02*
X473547857Y-352042523D01*
X474273571Y-353312523D02*
X473729285Y-352586809D01*
X474273571Y-352042523D02*
X473547857Y-352768238D01*
X474757380Y-352163476D02*
X474817857Y-352103000D01*
X474938809Y-352042523D01*
X475241190Y-352042523D01*
X475362142Y-352103000D01*
X475422619Y-352163476D01*
X475483095Y-352284428D01*
X475483095Y-352405380D01*
X475422619Y-352586809D01*
X474696904Y-353312523D01*
X475483095Y-353312523D01*
X476571666Y-352465857D02*
X476571666Y-353312523D01*
X476269285Y-351982047D02*
X475966904Y-352889190D01*
X476753095Y-352889190D01*
%TO.C,K23*%
X458607857Y-353292523D02*
X458607857Y-352022523D01*
X459333571Y-353292523D02*
X458789285Y-352566809D01*
X459333571Y-352022523D02*
X458607857Y-352748238D01*
X459817380Y-352143476D02*
X459877857Y-352083000D01*
X459998809Y-352022523D01*
X460301190Y-352022523D01*
X460422142Y-352083000D01*
X460482619Y-352143476D01*
X460543095Y-352264428D01*
X460543095Y-352385380D01*
X460482619Y-352566809D01*
X459756904Y-353292523D01*
X460543095Y-353292523D01*
X460966428Y-352022523D02*
X461752619Y-352022523D01*
X461329285Y-352506333D01*
X461510714Y-352506333D01*
X461631666Y-352566809D01*
X461692142Y-352627285D01*
X461752619Y-352748238D01*
X461752619Y-353050619D01*
X461692142Y-353171571D01*
X461631666Y-353232047D01*
X461510714Y-353292523D01*
X461147857Y-353292523D01*
X461026904Y-353232047D01*
X460966428Y-353171571D01*
%TO.C,K22*%
X459007857Y-277352523D02*
X459007857Y-276082523D01*
X459733571Y-277352523D02*
X459189285Y-276626809D01*
X459733571Y-276082523D02*
X459007857Y-276808238D01*
X460217380Y-276203476D02*
X460277857Y-276143000D01*
X460398809Y-276082523D01*
X460701190Y-276082523D01*
X460822142Y-276143000D01*
X460882619Y-276203476D01*
X460943095Y-276324428D01*
X460943095Y-276445380D01*
X460882619Y-276626809D01*
X460156904Y-277352523D01*
X460943095Y-277352523D01*
X461426904Y-276203476D02*
X461487380Y-276143000D01*
X461608333Y-276082523D01*
X461910714Y-276082523D01*
X462031666Y-276143000D01*
X462092142Y-276203476D01*
X462152619Y-276324428D01*
X462152619Y-276445380D01*
X462092142Y-276626809D01*
X461366428Y-277352523D01*
X462152619Y-277352523D01*
%TO.C,K21*%
X474077857Y-277352523D02*
X474077857Y-276082523D01*
X474803571Y-277352523D02*
X474259285Y-276626809D01*
X474803571Y-276082523D02*
X474077857Y-276808238D01*
X475287380Y-276203476D02*
X475347857Y-276143000D01*
X475468809Y-276082523D01*
X475771190Y-276082523D01*
X475892142Y-276143000D01*
X475952619Y-276203476D01*
X476013095Y-276324428D01*
X476013095Y-276445380D01*
X475952619Y-276626809D01*
X475226904Y-277352523D01*
X476013095Y-277352523D01*
X477222619Y-277352523D02*
X476496904Y-277352523D01*
X476859761Y-277352523D02*
X476859761Y-276082523D01*
X476738809Y-276263952D01*
X476617857Y-276384904D01*
X476496904Y-276445380D01*
%TO.C,K20*%
X441417857Y-277182523D02*
X441417857Y-275912523D01*
X442143571Y-277182523D02*
X441599285Y-276456809D01*
X442143571Y-275912523D02*
X441417857Y-276638238D01*
X442627380Y-276033476D02*
X442687857Y-275973000D01*
X442808809Y-275912523D01*
X443111190Y-275912523D01*
X443232142Y-275973000D01*
X443292619Y-276033476D01*
X443353095Y-276154428D01*
X443353095Y-276275380D01*
X443292619Y-276456809D01*
X442566904Y-277182523D01*
X443353095Y-277182523D01*
X444139285Y-275912523D02*
X444260238Y-275912523D01*
X444381190Y-275973000D01*
X444441666Y-276033476D01*
X444502142Y-276154428D01*
X444562619Y-276396333D01*
X444562619Y-276698714D01*
X444502142Y-276940619D01*
X444441666Y-277061571D01*
X444381190Y-277122047D01*
X444260238Y-277182523D01*
X444139285Y-277182523D01*
X444018333Y-277122047D01*
X443957857Y-277061571D01*
X443897380Y-276940619D01*
X443836904Y-276698714D01*
X443836904Y-276396333D01*
X443897380Y-276154428D01*
X443957857Y-276033476D01*
X444018333Y-275973000D01*
X444139285Y-275912523D01*
%TO.C,K19*%
X426927857Y-277232523D02*
X426927857Y-275962523D01*
X427653571Y-277232523D02*
X427109285Y-276506809D01*
X427653571Y-275962523D02*
X426927857Y-276688238D01*
X428863095Y-277232523D02*
X428137380Y-277232523D01*
X428500238Y-277232523D02*
X428500238Y-275962523D01*
X428379285Y-276143952D01*
X428258333Y-276264904D01*
X428137380Y-276325380D01*
X429467857Y-277232523D02*
X429709761Y-277232523D01*
X429830714Y-277172047D01*
X429891190Y-277111571D01*
X430012142Y-276930142D01*
X430072619Y-276688238D01*
X430072619Y-276204428D01*
X430012142Y-276083476D01*
X429951666Y-276023000D01*
X429830714Y-275962523D01*
X429588809Y-275962523D01*
X429467857Y-276023000D01*
X429407380Y-276083476D01*
X429346904Y-276204428D01*
X429346904Y-276506809D01*
X429407380Y-276627761D01*
X429467857Y-276688238D01*
X429588809Y-276748714D01*
X429830714Y-276748714D01*
X429951666Y-276688238D01*
X430012142Y-276627761D01*
X430072619Y-276506809D01*
%TO.C,K18*%
X409047857Y-277292523D02*
X409047857Y-276022523D01*
X409773571Y-277292523D02*
X409229285Y-276566809D01*
X409773571Y-276022523D02*
X409047857Y-276748238D01*
X410983095Y-277292523D02*
X410257380Y-277292523D01*
X410620238Y-277292523D02*
X410620238Y-276022523D01*
X410499285Y-276203952D01*
X410378333Y-276324904D01*
X410257380Y-276385380D01*
X411708809Y-276566809D02*
X411587857Y-276506333D01*
X411527380Y-276445857D01*
X411466904Y-276324904D01*
X411466904Y-276264428D01*
X411527380Y-276143476D01*
X411587857Y-276083000D01*
X411708809Y-276022523D01*
X411950714Y-276022523D01*
X412071666Y-276083000D01*
X412132142Y-276143476D01*
X412192619Y-276264428D01*
X412192619Y-276324904D01*
X412132142Y-276445857D01*
X412071666Y-276506333D01*
X411950714Y-276566809D01*
X411708809Y-276566809D01*
X411587857Y-276627285D01*
X411527380Y-276687761D01*
X411466904Y-276808714D01*
X411466904Y-277050619D01*
X411527380Y-277171571D01*
X411587857Y-277232047D01*
X411708809Y-277292523D01*
X411950714Y-277292523D01*
X412071666Y-277232047D01*
X412132142Y-277171571D01*
X412192619Y-277050619D01*
X412192619Y-276808714D01*
X412132142Y-276687761D01*
X412071666Y-276627285D01*
X411950714Y-276566809D01*
%TO.C,K17*%
X394267857Y-277232523D02*
X394267857Y-275962523D01*
X394993571Y-277232523D02*
X394449285Y-276506809D01*
X394993571Y-275962523D02*
X394267857Y-276688238D01*
X396203095Y-277232523D02*
X395477380Y-277232523D01*
X395840238Y-277232523D02*
X395840238Y-275962523D01*
X395719285Y-276143952D01*
X395598333Y-276264904D01*
X395477380Y-276325380D01*
X396626428Y-275962523D02*
X397473095Y-275962523D01*
X396928809Y-277232523D01*
%TO.C,K16*%
X328877857Y-277002523D02*
X328877857Y-275732523D01*
X329603571Y-277002523D02*
X329059285Y-276276809D01*
X329603571Y-275732523D02*
X328877857Y-276458238D01*
X330813095Y-277002523D02*
X330087380Y-277002523D01*
X330450238Y-277002523D02*
X330450238Y-275732523D01*
X330329285Y-275913952D01*
X330208333Y-276034904D01*
X330087380Y-276095380D01*
X331901666Y-275732523D02*
X331659761Y-275732523D01*
X331538809Y-275793000D01*
X331478333Y-275853476D01*
X331357380Y-276034904D01*
X331296904Y-276276809D01*
X331296904Y-276760619D01*
X331357380Y-276881571D01*
X331417857Y-276942047D01*
X331538809Y-277002523D01*
X331780714Y-277002523D01*
X331901666Y-276942047D01*
X331962142Y-276881571D01*
X332022619Y-276760619D01*
X332022619Y-276458238D01*
X331962142Y-276337285D01*
X331901666Y-276276809D01*
X331780714Y-276216333D01*
X331538809Y-276216333D01*
X331417857Y-276276809D01*
X331357380Y-276337285D01*
X331296904Y-276458238D01*
%TO.C,K15*%
X343627857Y-277022523D02*
X343627857Y-275752523D01*
X344353571Y-277022523D02*
X343809285Y-276296809D01*
X344353571Y-275752523D02*
X343627857Y-276478238D01*
X345563095Y-277022523D02*
X344837380Y-277022523D01*
X345200238Y-277022523D02*
X345200238Y-275752523D01*
X345079285Y-275933952D01*
X344958333Y-276054904D01*
X344837380Y-276115380D01*
X346712142Y-275752523D02*
X346107380Y-275752523D01*
X346046904Y-276357285D01*
X346107380Y-276296809D01*
X346228333Y-276236333D01*
X346530714Y-276236333D01*
X346651666Y-276296809D01*
X346712142Y-276357285D01*
X346772619Y-276478238D01*
X346772619Y-276780619D01*
X346712142Y-276901571D01*
X346651666Y-276962047D01*
X346530714Y-277022523D01*
X346228333Y-277022523D01*
X346107380Y-276962047D01*
X346046904Y-276901571D01*
%TO.C,K14*%
X361777857Y-277472523D02*
X361777857Y-276202523D01*
X362503571Y-277472523D02*
X361959285Y-276746809D01*
X362503571Y-276202523D02*
X361777857Y-276928238D01*
X363713095Y-277472523D02*
X362987380Y-277472523D01*
X363350238Y-277472523D02*
X363350238Y-276202523D01*
X363229285Y-276383952D01*
X363108333Y-276504904D01*
X362987380Y-276565380D01*
X364801666Y-276625857D02*
X364801666Y-277472523D01*
X364499285Y-276142047D02*
X364196904Y-277049190D01*
X364983095Y-277049190D01*
%TO.C,K13*%
X376257857Y-277232523D02*
X376257857Y-275962523D01*
X376983571Y-277232523D02*
X376439285Y-276506809D01*
X376983571Y-275962523D02*
X376257857Y-276688238D01*
X378193095Y-277232523D02*
X377467380Y-277232523D01*
X377830238Y-277232523D02*
X377830238Y-275962523D01*
X377709285Y-276143952D01*
X377588333Y-276264904D01*
X377467380Y-276325380D01*
X378616428Y-275962523D02*
X379402619Y-275962523D01*
X378979285Y-276446333D01*
X379160714Y-276446333D01*
X379281666Y-276506809D01*
X379342142Y-276567285D01*
X379402619Y-276688238D01*
X379402619Y-276990619D01*
X379342142Y-277111571D01*
X379281666Y-277172047D01*
X379160714Y-277232523D01*
X378797857Y-277232523D01*
X378676904Y-277172047D01*
X378616428Y-277111571D01*
%TO.C,K12*%
X311047857Y-277352523D02*
X311047857Y-276082523D01*
X311773571Y-277352523D02*
X311229285Y-276626809D01*
X311773571Y-276082523D02*
X311047857Y-276808238D01*
X312983095Y-277352523D02*
X312257380Y-277352523D01*
X312620238Y-277352523D02*
X312620238Y-276082523D01*
X312499285Y-276263952D01*
X312378333Y-276384904D01*
X312257380Y-276445380D01*
X313466904Y-276203476D02*
X313527380Y-276143000D01*
X313648333Y-276082523D01*
X313950714Y-276082523D01*
X314071666Y-276143000D01*
X314132142Y-276203476D01*
X314192619Y-276324428D01*
X314192619Y-276445380D01*
X314132142Y-276626809D01*
X313406428Y-277352523D01*
X314192619Y-277352523D01*
%TO.C,K11*%
X296447857Y-277352523D02*
X296447857Y-276082523D01*
X297173571Y-277352523D02*
X296629285Y-276626809D01*
X297173571Y-276082523D02*
X296447857Y-276808238D01*
X298383095Y-277352523D02*
X297657380Y-277352523D01*
X298020238Y-277352523D02*
X298020238Y-276082523D01*
X297899285Y-276263952D01*
X297778333Y-276384904D01*
X297657380Y-276445380D01*
X299592619Y-277352523D02*
X298866904Y-277352523D01*
X299229761Y-277352523D02*
X299229761Y-276082523D01*
X299108809Y-276263952D01*
X298987857Y-276384904D01*
X298866904Y-276445380D01*
%TO.C,K10*%
X441267857Y-353352523D02*
X441267857Y-352082523D01*
X441993571Y-353352523D02*
X441449285Y-352626809D01*
X441993571Y-352082523D02*
X441267857Y-352808238D01*
X443203095Y-353352523D02*
X442477380Y-353352523D01*
X442840238Y-353352523D02*
X442840238Y-352082523D01*
X442719285Y-352263952D01*
X442598333Y-352384904D01*
X442477380Y-352445380D01*
X443989285Y-352082523D02*
X444110238Y-352082523D01*
X444231190Y-352143000D01*
X444291666Y-352203476D01*
X444352142Y-352324428D01*
X444412619Y-352566333D01*
X444412619Y-352868714D01*
X444352142Y-353110619D01*
X444291666Y-353231571D01*
X444231190Y-353292047D01*
X444110238Y-353352523D01*
X443989285Y-353352523D01*
X443868333Y-353292047D01*
X443807857Y-353231571D01*
X443747380Y-353110619D01*
X443686904Y-352868714D01*
X443686904Y-352566333D01*
X443747380Y-352324428D01*
X443807857Y-352203476D01*
X443868333Y-352143000D01*
X443989285Y-352082523D01*
%TO.C,K9*%
X426942619Y-353252523D02*
X426942619Y-351982523D01*
X427668333Y-353252523D02*
X427124047Y-352526809D01*
X427668333Y-351982523D02*
X426942619Y-352708238D01*
X428273095Y-353252523D02*
X428515000Y-353252523D01*
X428635952Y-353192047D01*
X428696428Y-353131571D01*
X428817380Y-352950142D01*
X428877857Y-352708238D01*
X428877857Y-352224428D01*
X428817380Y-352103476D01*
X428756904Y-352043000D01*
X428635952Y-351982523D01*
X428394047Y-351982523D01*
X428273095Y-352043000D01*
X428212619Y-352103476D01*
X428152142Y-352224428D01*
X428152142Y-352526809D01*
X428212619Y-352647761D01*
X428273095Y-352708238D01*
X428394047Y-352768714D01*
X428635952Y-352768714D01*
X428756904Y-352708238D01*
X428817380Y-352647761D01*
X428877857Y-352526809D01*
%TO.C,K8*%
X408912619Y-353252523D02*
X408912619Y-351982523D01*
X409638333Y-353252523D02*
X409094047Y-352526809D01*
X409638333Y-351982523D02*
X408912619Y-352708238D01*
X410364047Y-352526809D02*
X410243095Y-352466333D01*
X410182619Y-352405857D01*
X410122142Y-352284904D01*
X410122142Y-352224428D01*
X410182619Y-352103476D01*
X410243095Y-352043000D01*
X410364047Y-351982523D01*
X410605952Y-351982523D01*
X410726904Y-352043000D01*
X410787380Y-352103476D01*
X410847857Y-352224428D01*
X410847857Y-352284904D01*
X410787380Y-352405857D01*
X410726904Y-352466333D01*
X410605952Y-352526809D01*
X410364047Y-352526809D01*
X410243095Y-352587285D01*
X410182619Y-352647761D01*
X410122142Y-352768714D01*
X410122142Y-353010619D01*
X410182619Y-353131571D01*
X410243095Y-353192047D01*
X410364047Y-353252523D01*
X410605952Y-353252523D01*
X410726904Y-353192047D01*
X410787380Y-353131571D01*
X410847857Y-353010619D01*
X410847857Y-352768714D01*
X410787380Y-352647761D01*
X410726904Y-352587285D01*
X410605952Y-352526809D01*
%TO.C,K7*%
X393892619Y-353922523D02*
X393892619Y-352652523D01*
X394618333Y-353922523D02*
X394074047Y-353196809D01*
X394618333Y-352652523D02*
X393892619Y-353378238D01*
X395041666Y-352652523D02*
X395888333Y-352652523D01*
X395344047Y-353922523D01*
%TO.C,K6*%
X376752619Y-353252523D02*
X376752619Y-351982523D01*
X377478333Y-353252523D02*
X376934047Y-352526809D01*
X377478333Y-351982523D02*
X376752619Y-352708238D01*
X378566904Y-351982523D02*
X378325000Y-351982523D01*
X378204047Y-352043000D01*
X378143571Y-352103476D01*
X378022619Y-352284904D01*
X377962142Y-352526809D01*
X377962142Y-353010619D01*
X378022619Y-353131571D01*
X378083095Y-353192047D01*
X378204047Y-353252523D01*
X378445952Y-353252523D01*
X378566904Y-353192047D01*
X378627380Y-353131571D01*
X378687857Y-353010619D01*
X378687857Y-352708238D01*
X378627380Y-352587285D01*
X378566904Y-352526809D01*
X378445952Y-352466333D01*
X378204047Y-352466333D01*
X378083095Y-352526809D01*
X378022619Y-352587285D01*
X377962142Y-352708238D01*
%TO.C,K5*%
X361632619Y-353152523D02*
X361632619Y-351882523D01*
X362358333Y-353152523D02*
X361814047Y-352426809D01*
X362358333Y-351882523D02*
X361632619Y-352608238D01*
X363507380Y-351882523D02*
X362902619Y-351882523D01*
X362842142Y-352487285D01*
X362902619Y-352426809D01*
X363023571Y-352366333D01*
X363325952Y-352366333D01*
X363446904Y-352426809D01*
X363507380Y-352487285D01*
X363567857Y-352608238D01*
X363567857Y-352910619D01*
X363507380Y-353031571D01*
X363446904Y-353092047D01*
X363325952Y-353152523D01*
X363023571Y-353152523D01*
X362902619Y-353092047D01*
X362842142Y-353031571D01*
%TO.C,K4*%
X344292619Y-353152523D02*
X344292619Y-351882523D01*
X345018333Y-353152523D02*
X344474047Y-352426809D01*
X345018333Y-351882523D02*
X344292619Y-352608238D01*
X346106904Y-352305857D02*
X346106904Y-353152523D01*
X345804523Y-351822047D02*
X345502142Y-352729190D01*
X346288333Y-352729190D01*
%TO.C,K3*%
X329172619Y-353252523D02*
X329172619Y-351982523D01*
X329898333Y-353252523D02*
X329354047Y-352526809D01*
X329898333Y-351982523D02*
X329172619Y-352708238D01*
X330321666Y-351982523D02*
X331107857Y-351982523D01*
X330684523Y-352466333D01*
X330865952Y-352466333D01*
X330986904Y-352526809D01*
X331047380Y-352587285D01*
X331107857Y-352708238D01*
X331107857Y-353010619D01*
X331047380Y-353131571D01*
X330986904Y-353192047D01*
X330865952Y-353252523D01*
X330503095Y-353252523D01*
X330382142Y-353192047D01*
X330321666Y-353131571D01*
%TO.C,K2*%
X311942619Y-353252523D02*
X311942619Y-351982523D01*
X312668333Y-353252523D02*
X312124047Y-352526809D01*
X312668333Y-351982523D02*
X311942619Y-352708238D01*
X313152142Y-352103476D02*
X313212619Y-352043000D01*
X313333571Y-351982523D01*
X313635952Y-351982523D01*
X313756904Y-352043000D01*
X313817380Y-352103476D01*
X313877857Y-352224428D01*
X313877857Y-352345380D01*
X313817380Y-352526809D01*
X313091666Y-353252523D01*
X313877857Y-353252523D01*
%TO.C,K1*%
X296982619Y-353542523D02*
X296982619Y-352272523D01*
X297708333Y-353542523D02*
X297164047Y-352816809D01*
X297708333Y-352272523D02*
X296982619Y-352998238D01*
X298917857Y-353542523D02*
X298192142Y-353542523D01*
X298555000Y-353542523D02*
X298555000Y-352272523D01*
X298434047Y-352453952D01*
X298313095Y-352574904D01*
X298192142Y-352635380D01*
%TO.C,U4*%
D10*
X370952380Y-315419904D02*
X371761904Y-315419904D01*
X371857142Y-315372285D01*
X371904761Y-315324666D01*
X371952380Y-315229428D01*
X371952380Y-315038952D01*
X371904761Y-314943714D01*
X371857142Y-314896095D01*
X371761904Y-314848476D01*
X370952380Y-314848476D01*
X371285714Y-313943714D02*
X371952380Y-313943714D01*
X370904761Y-314181809D02*
X371619047Y-314419904D01*
X371619047Y-313800857D01*
%TO.C,U3*%
X327872380Y-315649904D02*
X328681904Y-315649904D01*
X328777142Y-315602285D01*
X328824761Y-315554666D01*
X328872380Y-315459428D01*
X328872380Y-315268952D01*
X328824761Y-315173714D01*
X328777142Y-315126095D01*
X328681904Y-315078476D01*
X327872380Y-315078476D01*
X327872380Y-314697523D02*
X327872380Y-314078476D01*
X328253333Y-314411809D01*
X328253333Y-314268952D01*
X328300952Y-314173714D01*
X328348571Y-314126095D01*
X328443809Y-314078476D01*
X328681904Y-314078476D01*
X328777142Y-314126095D01*
X328824761Y-314173714D01*
X328872380Y-314268952D01*
X328872380Y-314554666D01*
X328824761Y-314649904D01*
X328777142Y-314697523D01*
%TO.C,U7*%
X411578095Y-319815380D02*
X411578095Y-320624904D01*
X411625714Y-320720142D01*
X411673333Y-320767761D01*
X411768571Y-320815380D01*
X411959047Y-320815380D01*
X412054285Y-320767761D01*
X412101904Y-320720142D01*
X412149523Y-320624904D01*
X412149523Y-319815380D01*
X412530476Y-319815380D02*
X413197142Y-319815380D01*
X412768571Y-320815380D01*
%TO.C,U6*%
X336598095Y-308375380D02*
X336598095Y-309184904D01*
X336645714Y-309280142D01*
X336693333Y-309327761D01*
X336788571Y-309375380D01*
X336979047Y-309375380D01*
X337074285Y-309327761D01*
X337121904Y-309280142D01*
X337169523Y-309184904D01*
X337169523Y-308375380D01*
X338074285Y-308375380D02*
X337883809Y-308375380D01*
X337788571Y-308423000D01*
X337740952Y-308470619D01*
X337645714Y-308613476D01*
X337598095Y-308803952D01*
X337598095Y-309184904D01*
X337645714Y-309280142D01*
X337693333Y-309327761D01*
X337788571Y-309375380D01*
X337979047Y-309375380D01*
X338074285Y-309327761D01*
X338121904Y-309280142D01*
X338169523Y-309184904D01*
X338169523Y-308946809D01*
X338121904Y-308851571D01*
X338074285Y-308803952D01*
X337979047Y-308756333D01*
X337788571Y-308756333D01*
X337693333Y-308803952D01*
X337645714Y-308851571D01*
X337598095Y-308946809D01*
%TO.C,J13*%
X467230476Y-353860380D02*
X467230476Y-354574666D01*
X467182857Y-354717523D01*
X467087619Y-354812761D01*
X466944761Y-354860380D01*
X466849523Y-354860380D01*
X468230476Y-354860380D02*
X467659047Y-354860380D01*
X467944761Y-354860380D02*
X467944761Y-353860380D01*
X467849523Y-354003238D01*
X467754285Y-354098476D01*
X467659047Y-354146095D01*
X468563809Y-353860380D02*
X469182857Y-353860380D01*
X468849523Y-354241333D01*
X468992380Y-354241333D01*
X469087619Y-354288952D01*
X469135238Y-354336571D01*
X469182857Y-354431809D01*
X469182857Y-354669904D01*
X469135238Y-354765142D01*
X469087619Y-354812761D01*
X468992380Y-354860380D01*
X468706666Y-354860380D01*
X468611428Y-354812761D01*
X468563809Y-354765142D01*
%TO.C,J12*%
X467190476Y-274470380D02*
X467190476Y-275184666D01*
X467142857Y-275327523D01*
X467047619Y-275422761D01*
X466904761Y-275470380D01*
X466809523Y-275470380D01*
X468190476Y-275470380D02*
X467619047Y-275470380D01*
X467904761Y-275470380D02*
X467904761Y-274470380D01*
X467809523Y-274613238D01*
X467714285Y-274708476D01*
X467619047Y-274756095D01*
X468571428Y-274565619D02*
X468619047Y-274518000D01*
X468714285Y-274470380D01*
X468952380Y-274470380D01*
X469047619Y-274518000D01*
X469095238Y-274565619D01*
X469142857Y-274660857D01*
X469142857Y-274756095D01*
X469095238Y-274898952D01*
X468523809Y-275470380D01*
X469142857Y-275470380D01*
%TO.C,J10*%
X402230476Y-274450380D02*
X402230476Y-275164666D01*
X402182857Y-275307523D01*
X402087619Y-275402761D01*
X401944761Y-275450380D01*
X401849523Y-275450380D01*
X403230476Y-275450380D02*
X402659047Y-275450380D01*
X402944761Y-275450380D02*
X402944761Y-274450380D01*
X402849523Y-274593238D01*
X402754285Y-274688476D01*
X402659047Y-274736095D01*
X403849523Y-274450380D02*
X403944761Y-274450380D01*
X404040000Y-274498000D01*
X404087619Y-274545619D01*
X404135238Y-274640857D01*
X404182857Y-274831333D01*
X404182857Y-275069428D01*
X404135238Y-275259904D01*
X404087619Y-275355142D01*
X404040000Y-275402761D01*
X403944761Y-275450380D01*
X403849523Y-275450380D01*
X403754285Y-275402761D01*
X403706666Y-275355142D01*
X403659047Y-275259904D01*
X403611428Y-275069428D01*
X403611428Y-274831333D01*
X403659047Y-274640857D01*
X403706666Y-274545619D01*
X403754285Y-274498000D01*
X403849523Y-274450380D01*
%TO.C,J9*%
X337536666Y-274420380D02*
X337536666Y-275134666D01*
X337489047Y-275277523D01*
X337393809Y-275372761D01*
X337250952Y-275420380D01*
X337155714Y-275420380D01*
X338060476Y-275420380D02*
X338250952Y-275420380D01*
X338346190Y-275372761D01*
X338393809Y-275325142D01*
X338489047Y-275182285D01*
X338536666Y-274991809D01*
X338536666Y-274610857D01*
X338489047Y-274515619D01*
X338441428Y-274468000D01*
X338346190Y-274420380D01*
X338155714Y-274420380D01*
X338060476Y-274468000D01*
X338012857Y-274515619D01*
X337965238Y-274610857D01*
X337965238Y-274848952D01*
X338012857Y-274944190D01*
X338060476Y-274991809D01*
X338155714Y-275039428D01*
X338346190Y-275039428D01*
X338441428Y-274991809D01*
X338489047Y-274944190D01*
X338536666Y-274848952D01*
%TO.C,J8*%
X370156666Y-274440380D02*
X370156666Y-275154666D01*
X370109047Y-275297523D01*
X370013809Y-275392761D01*
X369870952Y-275440380D01*
X369775714Y-275440380D01*
X370775714Y-274868952D02*
X370680476Y-274821333D01*
X370632857Y-274773714D01*
X370585238Y-274678476D01*
X370585238Y-274630857D01*
X370632857Y-274535619D01*
X370680476Y-274488000D01*
X370775714Y-274440380D01*
X370966190Y-274440380D01*
X371061428Y-274488000D01*
X371109047Y-274535619D01*
X371156666Y-274630857D01*
X371156666Y-274678476D01*
X371109047Y-274773714D01*
X371061428Y-274821333D01*
X370966190Y-274868952D01*
X370775714Y-274868952D01*
X370680476Y-274916571D01*
X370632857Y-274964190D01*
X370585238Y-275059428D01*
X370585238Y-275249904D01*
X370632857Y-275345142D01*
X370680476Y-275392761D01*
X370775714Y-275440380D01*
X370966190Y-275440380D01*
X371061428Y-275392761D01*
X371109047Y-275345142D01*
X371156666Y-275249904D01*
X371156666Y-275059428D01*
X371109047Y-274964190D01*
X371061428Y-274916571D01*
X370966190Y-274868952D01*
%TO.C,C6*%
X418577142Y-312084666D02*
X418624761Y-312132285D01*
X418672380Y-312275142D01*
X418672380Y-312370380D01*
X418624761Y-312513238D01*
X418529523Y-312608476D01*
X418434285Y-312656095D01*
X418243809Y-312703714D01*
X418100952Y-312703714D01*
X417910476Y-312656095D01*
X417815238Y-312608476D01*
X417720000Y-312513238D01*
X417672380Y-312370380D01*
X417672380Y-312275142D01*
X417720000Y-312132285D01*
X417767619Y-312084666D01*
X417672380Y-311227523D02*
X417672380Y-311418000D01*
X417720000Y-311513238D01*
X417767619Y-311560857D01*
X417910476Y-311656095D01*
X418100952Y-311703714D01*
X418481904Y-311703714D01*
X418577142Y-311656095D01*
X418624761Y-311608476D01*
X418672380Y-311513238D01*
X418672380Y-311322761D01*
X418624761Y-311227523D01*
X418577142Y-311179904D01*
X418481904Y-311132285D01*
X418243809Y-311132285D01*
X418148571Y-311179904D01*
X418100952Y-311227523D01*
X418053333Y-311322761D01*
X418053333Y-311513238D01*
X418100952Y-311608476D01*
X418148571Y-311656095D01*
X418243809Y-311703714D01*
%TO.C,C5*%
X330390833Y-321005142D02*
X330343214Y-321052761D01*
X330200357Y-321100380D01*
X330105119Y-321100380D01*
X329962261Y-321052761D01*
X329867023Y-320957523D01*
X329819404Y-320862285D01*
X329771785Y-320671809D01*
X329771785Y-320528952D01*
X329819404Y-320338476D01*
X329867023Y-320243238D01*
X329962261Y-320148000D01*
X330105119Y-320100380D01*
X330200357Y-320100380D01*
X330343214Y-320148000D01*
X330390833Y-320195619D01*
X331295595Y-320100380D02*
X330819404Y-320100380D01*
X330771785Y-320576571D01*
X330819404Y-320528952D01*
X330914642Y-320481333D01*
X331152738Y-320481333D01*
X331247976Y-320528952D01*
X331295595Y-320576571D01*
X331343214Y-320671809D01*
X331343214Y-320909904D01*
X331295595Y-321005142D01*
X331247976Y-321052761D01*
X331152738Y-321100380D01*
X330914642Y-321100380D01*
X330819404Y-321052761D01*
X330771785Y-321005142D01*
%TO.C,C1*%
X466727142Y-320544666D02*
X466774761Y-320592285D01*
X466822380Y-320735142D01*
X466822380Y-320830380D01*
X466774761Y-320973238D01*
X466679523Y-321068476D01*
X466584285Y-321116095D01*
X466393809Y-321163714D01*
X466250952Y-321163714D01*
X466060476Y-321116095D01*
X465965238Y-321068476D01*
X465870000Y-320973238D01*
X465822380Y-320830380D01*
X465822380Y-320735142D01*
X465870000Y-320592285D01*
X465917619Y-320544666D01*
X466822380Y-319592285D02*
X466822380Y-320163714D01*
X466822380Y-319878000D02*
X465822380Y-319878000D01*
X465965238Y-319973238D01*
X466060476Y-320068476D01*
X466108095Y-320163714D01*
%TO.C,J3*%
X375254580Y-314762333D02*
X375968866Y-314762333D01*
X376111723Y-314809952D01*
X376206961Y-314905190D01*
X376254580Y-315048047D01*
X376254580Y-315143285D01*
X375254580Y-314381380D02*
X375254580Y-313762333D01*
X375635533Y-314095666D01*
X375635533Y-313952809D01*
X375683152Y-313857571D01*
X375730771Y-313809952D01*
X375826009Y-313762333D01*
X376064104Y-313762333D01*
X376159342Y-313809952D01*
X376206961Y-313857571D01*
X376254580Y-313952809D01*
X376254580Y-314238523D01*
X376206961Y-314333761D01*
X376159342Y-314381380D01*
%TO.C,U2*%
X457567692Y-317350091D02*
X457567692Y-318160043D01*
X457615337Y-318255331D01*
X457662981Y-318302975D01*
X457758269Y-318350619D01*
X457948846Y-318350619D01*
X458044134Y-318302975D01*
X458091779Y-318255331D01*
X458139423Y-318160043D01*
X458139423Y-317350091D01*
X458568220Y-317445380D02*
X458615865Y-317397736D01*
X458711153Y-317350091D01*
X458949374Y-317350091D01*
X459044662Y-317397736D01*
X459092307Y-317445380D01*
X459139951Y-317540668D01*
X459139951Y-317635956D01*
X459092307Y-317778889D01*
X458520576Y-318350619D01*
X459139951Y-318350619D01*
%TO.C,R12*%
X405682380Y-316998357D02*
X405206190Y-317331690D01*
X405682380Y-317569785D02*
X404682380Y-317569785D01*
X404682380Y-317188833D01*
X404730000Y-317093595D01*
X404777619Y-317045976D01*
X404872857Y-316998357D01*
X405015714Y-316998357D01*
X405110952Y-317045976D01*
X405158571Y-317093595D01*
X405206190Y-317188833D01*
X405206190Y-317569785D01*
X405682380Y-316045976D02*
X405682380Y-316617404D01*
X405682380Y-316331690D02*
X404682380Y-316331690D01*
X404825238Y-316426928D01*
X404920476Y-316522166D01*
X404968095Y-316617404D01*
X404777619Y-315665023D02*
X404730000Y-315617404D01*
X404682380Y-315522166D01*
X404682380Y-315284071D01*
X404730000Y-315188833D01*
X404777619Y-315141214D01*
X404872857Y-315093595D01*
X404968095Y-315093595D01*
X405110952Y-315141214D01*
X405682380Y-315712642D01*
X405682380Y-315093595D01*
%TO.C,C4*%
X435308333Y-308685142D02*
X435260714Y-308732761D01*
X435117857Y-308780380D01*
X435022619Y-308780380D01*
X434879761Y-308732761D01*
X434784523Y-308637523D01*
X434736904Y-308542285D01*
X434689285Y-308351809D01*
X434689285Y-308208952D01*
X434736904Y-308018476D01*
X434784523Y-307923238D01*
X434879761Y-307828000D01*
X435022619Y-307780380D01*
X435117857Y-307780380D01*
X435260714Y-307828000D01*
X435308333Y-307875619D01*
X436165476Y-308113714D02*
X436165476Y-308780380D01*
X435927380Y-307732761D02*
X435689285Y-308447047D01*
X436308333Y-308447047D01*
%TO.C,C3*%
X357761942Y-321113066D02*
X357809561Y-321160685D01*
X357857180Y-321303542D01*
X357857180Y-321398780D01*
X357809561Y-321541638D01*
X357714323Y-321636876D01*
X357619085Y-321684495D01*
X357428609Y-321732114D01*
X357285752Y-321732114D01*
X357095276Y-321684495D01*
X357000038Y-321636876D01*
X356904800Y-321541638D01*
X356857180Y-321398780D01*
X356857180Y-321303542D01*
X356904800Y-321160685D01*
X356952419Y-321113066D01*
X356857180Y-320779733D02*
X356857180Y-320160685D01*
X357238133Y-320494019D01*
X357238133Y-320351161D01*
X357285752Y-320255923D01*
X357333371Y-320208304D01*
X357428609Y-320160685D01*
X357666704Y-320160685D01*
X357761942Y-320208304D01*
X357809561Y-320255923D01*
X357857180Y-320351161D01*
X357857180Y-320636876D01*
X357809561Y-320732114D01*
X357761942Y-320779733D01*
%TO.C,C2*%
X329078333Y-309155142D02*
X329030714Y-309202761D01*
X328887857Y-309250380D01*
X328792619Y-309250380D01*
X328649761Y-309202761D01*
X328554523Y-309107523D01*
X328506904Y-309012285D01*
X328459285Y-308821809D01*
X328459285Y-308678952D01*
X328506904Y-308488476D01*
X328554523Y-308393238D01*
X328649761Y-308298000D01*
X328792619Y-308250380D01*
X328887857Y-308250380D01*
X329030714Y-308298000D01*
X329078333Y-308345619D01*
X329459285Y-308345619D02*
X329506904Y-308298000D01*
X329602142Y-308250380D01*
X329840238Y-308250380D01*
X329935476Y-308298000D01*
X329983095Y-308345619D01*
X330030714Y-308440857D01*
X330030714Y-308536095D01*
X329983095Y-308678952D01*
X329411666Y-309250380D01*
X330030714Y-309250380D01*
%TO.C,R5*%
X465002380Y-320584666D02*
X464526190Y-320918000D01*
X465002380Y-321156095D02*
X464002380Y-321156095D01*
X464002380Y-320775142D01*
X464050000Y-320679904D01*
X464097619Y-320632285D01*
X464192857Y-320584666D01*
X464335714Y-320584666D01*
X464430952Y-320632285D01*
X464478571Y-320679904D01*
X464526190Y-320775142D01*
X464526190Y-321156095D01*
X464002380Y-319679904D02*
X464002380Y-320156095D01*
X464478571Y-320203714D01*
X464430952Y-320156095D01*
X464383333Y-320060857D01*
X464383333Y-319822761D01*
X464430952Y-319727523D01*
X464478571Y-319679904D01*
X464573809Y-319632285D01*
X464811904Y-319632285D01*
X464907142Y-319679904D01*
X464954761Y-319727523D01*
X465002380Y-319822761D01*
X465002380Y-320060857D01*
X464954761Y-320156095D01*
X464907142Y-320203714D01*
%TO.C,R6*%
X388662380Y-318009666D02*
X388186190Y-318343000D01*
X388662380Y-318581095D02*
X387662380Y-318581095D01*
X387662380Y-318200142D01*
X387710000Y-318104904D01*
X387757619Y-318057285D01*
X387852857Y-318009666D01*
X387995714Y-318009666D01*
X388090952Y-318057285D01*
X388138571Y-318104904D01*
X388186190Y-318200142D01*
X388186190Y-318581095D01*
X387662380Y-317152523D02*
X387662380Y-317343000D01*
X387710000Y-317438238D01*
X387757619Y-317485857D01*
X387900476Y-317581095D01*
X388090952Y-317628714D01*
X388471904Y-317628714D01*
X388567142Y-317581095D01*
X388614761Y-317533476D01*
X388662380Y-317438238D01*
X388662380Y-317247761D01*
X388614761Y-317152523D01*
X388567142Y-317104904D01*
X388471904Y-317057285D01*
X388233809Y-317057285D01*
X388138571Y-317104904D01*
X388090952Y-317152523D01*
X388043333Y-317247761D01*
X388043333Y-317438238D01*
X388090952Y-317533476D01*
X388138571Y-317581095D01*
X388233809Y-317628714D01*
%TO.C,R7*%
X391392380Y-318029666D02*
X390916190Y-318363000D01*
X391392380Y-318601095D02*
X390392380Y-318601095D01*
X390392380Y-318220142D01*
X390440000Y-318124904D01*
X390487619Y-318077285D01*
X390582857Y-318029666D01*
X390725714Y-318029666D01*
X390820952Y-318077285D01*
X390868571Y-318124904D01*
X390916190Y-318220142D01*
X390916190Y-318601095D01*
X390392380Y-317696333D02*
X390392380Y-317029666D01*
X391392380Y-317458238D01*
%TO.C,U5*%
X419572380Y-315189904D02*
X420381904Y-315189904D01*
X420477142Y-315142285D01*
X420524761Y-315094666D01*
X420572380Y-314999428D01*
X420572380Y-314808952D01*
X420524761Y-314713714D01*
X420477142Y-314666095D01*
X420381904Y-314618476D01*
X419572380Y-314618476D01*
X419572380Y-313666095D02*
X419572380Y-314142285D01*
X420048571Y-314189904D01*
X420000952Y-314142285D01*
X419953333Y-314047047D01*
X419953333Y-313808952D01*
X420000952Y-313713714D01*
X420048571Y-313666095D01*
X420143809Y-313618476D01*
X420381904Y-313618476D01*
X420477142Y-313666095D01*
X420524761Y-313713714D01*
X420572380Y-313808952D01*
X420572380Y-314047047D01*
X420524761Y-314142285D01*
X420477142Y-314189904D01*
%TO.C,J1*%
X304906666Y-353860380D02*
X304906666Y-354574666D01*
X304859047Y-354717523D01*
X304763809Y-354812761D01*
X304620952Y-354860380D01*
X304525714Y-354860380D01*
X305906666Y-354860380D02*
X305335238Y-354860380D01*
X305620952Y-354860380D02*
X305620952Y-353860380D01*
X305525714Y-354003238D01*
X305430476Y-354098476D01*
X305335238Y-354146095D01*
%TO.C,J11*%
X434740476Y-274470380D02*
X434740476Y-275184666D01*
X434692857Y-275327523D01*
X434597619Y-275422761D01*
X434454761Y-275470380D01*
X434359523Y-275470380D01*
X435740476Y-275470380D02*
X435169047Y-275470380D01*
X435454761Y-275470380D02*
X435454761Y-274470380D01*
X435359523Y-274613238D01*
X435264285Y-274708476D01*
X435169047Y-274756095D01*
X436692857Y-275470380D02*
X436121428Y-275470380D01*
X436407142Y-275470380D02*
X436407142Y-274470380D01*
X436311904Y-274613238D01*
X436216666Y-274708476D01*
X436121428Y-274756095D01*
%TO.C,J7*%
X304906666Y-274470380D02*
X304906666Y-275184666D01*
X304859047Y-275327523D01*
X304763809Y-275422761D01*
X304620952Y-275470380D01*
X304525714Y-275470380D01*
X305287619Y-274470380D02*
X305954285Y-274470380D01*
X305525714Y-275470380D01*
%TO.C,J6*%
X435116666Y-353820380D02*
X435116666Y-354534666D01*
X435069047Y-354677523D01*
X434973809Y-354772761D01*
X434830952Y-354820380D01*
X434735714Y-354820380D01*
X436021428Y-353820380D02*
X435830952Y-353820380D01*
X435735714Y-353868000D01*
X435688095Y-353915619D01*
X435592857Y-354058476D01*
X435545238Y-354248952D01*
X435545238Y-354629904D01*
X435592857Y-354725142D01*
X435640476Y-354772761D01*
X435735714Y-354820380D01*
X435926190Y-354820380D01*
X436021428Y-354772761D01*
X436069047Y-354725142D01*
X436116666Y-354629904D01*
X436116666Y-354391809D01*
X436069047Y-354296571D01*
X436021428Y-354248952D01*
X435926190Y-354201333D01*
X435735714Y-354201333D01*
X435640476Y-354248952D01*
X435592857Y-354296571D01*
X435545238Y-354391809D01*
%TO.C,J5*%
X402476666Y-353870380D02*
X402476666Y-354584666D01*
X402429047Y-354727523D01*
X402333809Y-354822761D01*
X402190952Y-354870380D01*
X402095714Y-354870380D01*
X403429047Y-353870380D02*
X402952857Y-353870380D01*
X402905238Y-354346571D01*
X402952857Y-354298952D01*
X403048095Y-354251333D01*
X403286190Y-354251333D01*
X403381428Y-354298952D01*
X403429047Y-354346571D01*
X403476666Y-354441809D01*
X403476666Y-354679904D01*
X403429047Y-354775142D01*
X403381428Y-354822761D01*
X403286190Y-354870380D01*
X403048095Y-354870380D01*
X402952857Y-354822761D01*
X402905238Y-354775142D01*
%TO.C,J4*%
X369946666Y-353840380D02*
X369946666Y-354554666D01*
X369899047Y-354697523D01*
X369803809Y-354792761D01*
X369660952Y-354840380D01*
X369565714Y-354840380D01*
X370851428Y-354173714D02*
X370851428Y-354840380D01*
X370613333Y-353792761D02*
X370375238Y-354507047D01*
X370994285Y-354507047D01*
%TO.C,J2*%
X337426666Y-353830380D02*
X337426666Y-354544666D01*
X337379047Y-354687523D01*
X337283809Y-354782761D01*
X337140952Y-354830380D01*
X337045714Y-354830380D01*
X337855238Y-353925619D02*
X337902857Y-353878000D01*
X337998095Y-353830380D01*
X338236190Y-353830380D01*
X338331428Y-353878000D01*
X338379047Y-353925619D01*
X338426666Y-354020857D01*
X338426666Y-354116095D01*
X338379047Y-354258952D01*
X337807619Y-354830380D01*
X338426666Y-354830380D01*
%TD*%
M02*
