%TF.GenerationSoftware,KiCad,Pcbnew,(5.1.12)-1*%
%TF.CreationDate,2021-12-07T00:39:26+01:00*%
%TF.ProjectId,boneIO - relay board,626f6e65-494f-4202-9d20-72656c617920,rev?*%
%TF.SameCoordinates,Original*%
%TF.FileFunction,Soldermask,Bot*%
%TF.FilePolarity,Negative*%
%FSLAX46Y46*%
G04 Gerber Fmt 4.6, Leading zero omitted, Abs format (unit mm)*
G04 Created by KiCad (PCBNEW (5.1.12)-1) date 2021-12-07 00:39:26*
%MOMM*%
%LPD*%
G01*
G04 APERTURE LIST*
%ADD10C,2.500000*%
%ADD11C,1.950000*%
%ADD12C,0.100000*%
%ADD13R,1.000000X1.500000*%
%ADD14R,1.700000X1.700000*%
%ADD15O,1.700000X1.700000*%
%ADD16C,0.254000*%
G04 APERTURE END LIST*
D10*
X468124400Y-346890200D02*
X469826200Y-345188400D01*
X468124400Y-346890200D02*
X468124400Y-356643800D01*
X469826200Y-345188400D02*
X471807400Y-345188400D01*
X468124400Y-356669200D02*
X469089600Y-357609000D01*
X471807400Y-357609000D02*
X469089600Y-357609000D01*
X453113000Y-346852100D02*
X454814800Y-345150300D01*
X453113000Y-346852100D02*
X453113000Y-356605700D01*
X454814800Y-345150300D02*
X456796000Y-345150300D01*
X453113000Y-356631100D02*
X454078200Y-357570900D01*
X456796000Y-357570900D02*
X454078200Y-357570900D01*
X435536200Y-346941000D02*
X437238000Y-345239200D01*
X435536200Y-346941000D02*
X435536200Y-356694600D01*
X437238000Y-345239200D02*
X439219200Y-345239200D01*
X435536200Y-356720000D02*
X436501400Y-357659800D01*
X439219200Y-357659800D02*
X436501400Y-357659800D01*
X420512100Y-346915600D02*
X422213900Y-345213800D01*
X420512100Y-346915600D02*
X420512100Y-356669200D01*
X422213900Y-345213800D02*
X424195100Y-345213800D01*
X420512100Y-356694600D02*
X421477300Y-357634400D01*
X424195100Y-357634400D02*
X421477300Y-357634400D01*
X402948000Y-346953700D02*
X404649800Y-345251900D01*
X402948000Y-346953700D02*
X402948000Y-356707300D01*
X404649800Y-345251900D02*
X406631000Y-345251900D01*
X402948000Y-356732700D02*
X403913200Y-357672500D01*
X406631000Y-357672500D02*
X403913200Y-357672500D01*
X387873100Y-346941000D02*
X389574900Y-345239200D01*
X387873100Y-346941000D02*
X387873100Y-356694600D01*
X389574900Y-345239200D02*
X391556100Y-345239200D01*
X387873100Y-356720000D02*
X388838300Y-357659800D01*
X391556100Y-357659800D02*
X388838300Y-357659800D01*
X370423300Y-346775900D02*
X372125100Y-345074100D01*
X370423300Y-346775900D02*
X370423300Y-356529500D01*
X372125100Y-345074100D02*
X374106300Y-345074100D01*
X370423300Y-356554900D02*
X371388500Y-357494700D01*
X374106300Y-357494700D02*
X371388500Y-357494700D01*
X355284900Y-346890200D02*
X356986700Y-345188400D01*
X355284900Y-346890200D02*
X355284900Y-356643800D01*
X356986700Y-345188400D02*
X358967900Y-345188400D01*
X355284900Y-356669200D02*
X356250100Y-357609000D01*
X358967900Y-357609000D02*
X356250100Y-357609000D01*
X337949400Y-346839400D02*
X339651200Y-345137600D01*
X337949400Y-346839400D02*
X337949400Y-356593000D01*
X339651200Y-345137600D02*
X341632400Y-345137600D01*
X337949400Y-356618400D02*
X338914600Y-357558200D01*
X341632400Y-357558200D02*
X338914600Y-357558200D01*
X322849100Y-346877500D02*
X324550900Y-345175700D01*
X322849100Y-346877500D02*
X322849100Y-356631100D01*
X324550900Y-345175700D02*
X326532100Y-345175700D01*
X322849100Y-356656500D02*
X323814300Y-357596300D01*
X326532100Y-357596300D02*
X323814300Y-357596300D01*
X305335800Y-346890200D02*
X307037600Y-345188400D01*
X305335800Y-346890200D02*
X305335800Y-356643800D01*
X307037600Y-345188400D02*
X309018800Y-345188400D01*
X305335800Y-356669200D02*
X306301000Y-357609000D01*
X309018800Y-357609000D02*
X306301000Y-357609000D01*
X301500400Y-284203000D02*
X293982000Y-284203000D01*
X316511800Y-284228400D02*
X308993400Y-284228400D01*
X290400600Y-346788600D02*
X290400600Y-356542200D01*
X294083600Y-357507400D02*
X291365800Y-357507400D01*
X292102400Y-345086800D02*
X294083600Y-345086800D01*
X290400600Y-346788600D02*
X292102400Y-345086800D01*
X290400600Y-356567600D02*
X291365800Y-357507400D01*
X482932600Y-283237800D02*
X482932600Y-273154000D01*
X479249600Y-271782400D02*
X481561000Y-271782400D01*
X481967400Y-284203000D02*
X478995600Y-284203000D01*
X482932600Y-283237800D02*
X481967400Y-284203000D01*
X482932600Y-273154000D02*
X481561000Y-271782400D01*
X467946600Y-283288600D02*
X467946600Y-273204800D01*
X464263600Y-271833200D02*
X466575000Y-271833200D01*
X466981400Y-284253800D02*
X464009600Y-284253800D01*
X467946600Y-283288600D02*
X466981400Y-284253800D01*
X467946600Y-273204800D02*
X466575000Y-271833200D01*
X450446000Y-283288600D02*
X450446000Y-273204800D01*
X446763000Y-271833200D02*
X449074400Y-271833200D01*
X449480800Y-284253800D02*
X446509000Y-284253800D01*
X450446000Y-283288600D02*
X449480800Y-284253800D01*
X450446000Y-273204800D02*
X449074400Y-271833200D01*
X435561600Y-283288600D02*
X435561600Y-273204800D01*
X431878600Y-271833200D02*
X434190000Y-271833200D01*
X434596400Y-284253800D02*
X431624600Y-284253800D01*
X435561600Y-283288600D02*
X434596400Y-284253800D01*
X435561600Y-273204800D02*
X434190000Y-271833200D01*
X418035600Y-283288600D02*
X418035600Y-273204800D01*
X414352600Y-271833200D02*
X416664000Y-271833200D01*
X417070400Y-284253800D02*
X414098600Y-284253800D01*
X418035600Y-283288600D02*
X417070400Y-284253800D01*
X418035600Y-273204800D02*
X416664000Y-271833200D01*
X402973400Y-283314000D02*
X402973400Y-273230200D01*
X399290400Y-271858600D02*
X401601800Y-271858600D01*
X402008200Y-284279200D02*
X399036400Y-284279200D01*
X402973400Y-283314000D02*
X402008200Y-284279200D01*
X402973400Y-273230200D02*
X401601800Y-271858600D01*
X385498200Y-283237800D02*
X385498200Y-273154000D01*
X381815200Y-271782400D02*
X384126600Y-271782400D01*
X384533000Y-284203000D02*
X381561200Y-284203000D01*
X385498200Y-283237800D02*
X384533000Y-284203000D01*
X385498200Y-273154000D02*
X384126600Y-271782400D01*
X370461400Y-283288600D02*
X370461400Y-273204800D01*
X366778400Y-271833200D02*
X369089800Y-271833200D01*
X369496200Y-284253800D02*
X366524400Y-284253800D01*
X370461400Y-283288600D02*
X369496200Y-284253800D01*
X370461400Y-273204800D02*
X369089800Y-271833200D01*
X352859200Y-283288600D02*
X352859200Y-273204800D01*
X349176200Y-271833200D02*
X351487600Y-271833200D01*
X351894000Y-284253800D02*
X348922200Y-284253800D01*
X352859200Y-283288600D02*
X351894000Y-284253800D01*
X352859200Y-273204800D02*
X351487600Y-271833200D01*
X320194800Y-283288600D02*
X320194800Y-273204800D01*
X316511800Y-271833200D02*
X318823200Y-271833200D01*
X319229600Y-284253800D02*
X316257800Y-284253800D01*
X320194800Y-283288600D02*
X319229600Y-284253800D01*
X320194800Y-273204800D02*
X318823200Y-271833200D01*
X305158000Y-283237800D02*
X305158000Y-273154000D01*
X301475000Y-271782400D02*
X303786400Y-271782400D01*
X304192800Y-284203000D02*
X301221000Y-284203000D01*
X305158000Y-283237800D02*
X304192800Y-284203000D01*
X305158000Y-273154000D02*
X303786400Y-271782400D01*
X336857200Y-284203000D02*
X333885400Y-284203000D01*
X337822400Y-283237800D02*
X336857200Y-284203000D01*
X337822400Y-283237800D02*
X337822400Y-273154000D01*
X337822400Y-273154000D02*
X336450800Y-271782400D01*
X334139400Y-271782400D02*
X336450800Y-271782400D01*
X334088600Y-284203000D02*
X326570200Y-284203000D01*
X349150800Y-284253800D02*
X341632400Y-284253800D01*
X366753000Y-284228400D02*
X359234600Y-284228400D01*
X381764400Y-284203000D02*
X374246000Y-284203000D01*
X399315800Y-284279200D02*
X391797400Y-284279200D01*
X414327200Y-284228400D02*
X406808800Y-284228400D01*
X431853200Y-284253800D02*
X424334800Y-284253800D01*
X446737600Y-284253800D02*
X439219200Y-284253800D01*
X464238200Y-284253800D02*
X456719800Y-284253800D01*
X479300400Y-284177600D02*
X471782000Y-284177600D01*
X479325800Y-345188400D02*
X471807400Y-345188400D01*
X464314400Y-345163000D02*
X456796000Y-345163000D01*
X446712200Y-345239200D02*
X439193800Y-345239200D01*
X431700800Y-345213800D02*
X424182400Y-345213800D01*
X414124000Y-345239200D02*
X406605600Y-345239200D01*
X399036400Y-345239200D02*
X391518000Y-345239200D01*
X381586600Y-345086800D02*
X374068200Y-345086800D01*
X366473600Y-345188400D02*
X358955200Y-345188400D01*
X349125400Y-345137600D02*
X341607000Y-345137600D01*
X334037800Y-345188400D02*
X326519400Y-345188400D01*
X316537200Y-345188400D02*
X309018800Y-345188400D01*
X301449600Y-345137600D02*
X293931200Y-345137600D01*
D11*
%TO.C,K24*%
X471810000Y-345208000D03*
X471810000Y-340208000D03*
X471810000Y-350208000D03*
X479310000Y-345208000D03*
X479310000Y-340208000D03*
X479310000Y-350208000D03*
X471810000Y-325008000D03*
X479310000Y-325008000D03*
%TD*%
%TO.C,K23*%
X456780000Y-345168000D03*
X456780000Y-340168000D03*
X456780000Y-350168000D03*
X464280000Y-345168000D03*
X464280000Y-340168000D03*
X464280000Y-350168000D03*
X456780000Y-324968000D03*
X464280000Y-324968000D03*
%TD*%
%TO.C,K22*%
X464230000Y-284258000D03*
X464230000Y-289258000D03*
X464230000Y-279258000D03*
X456730000Y-284258000D03*
X456730000Y-289258000D03*
X456730000Y-279258000D03*
X464230000Y-304458000D03*
X456730000Y-304458000D03*
%TD*%
%TO.C,K21*%
X479280000Y-284188000D03*
X479280000Y-289188000D03*
X479280000Y-279188000D03*
X471780000Y-284188000D03*
X471780000Y-289188000D03*
X471780000Y-279188000D03*
X479280000Y-304388000D03*
X471780000Y-304388000D03*
%TD*%
%TO.C,K20*%
X446750000Y-284248000D03*
X446750000Y-289248000D03*
X446750000Y-279248000D03*
X439250000Y-284248000D03*
X439250000Y-289248000D03*
X439250000Y-279248000D03*
X446750000Y-304448000D03*
X439250000Y-304448000D03*
%TD*%
%TO.C,K19*%
X431830000Y-284228000D03*
X431830000Y-289228000D03*
X431830000Y-279228000D03*
X424330000Y-284228000D03*
X424330000Y-289228000D03*
X424330000Y-279228000D03*
X431830000Y-304428000D03*
X424330000Y-304428000D03*
%TD*%
%TO.C,K18*%
X414330000Y-284238000D03*
X414330000Y-289238000D03*
X414330000Y-279238000D03*
X406830000Y-284238000D03*
X406830000Y-289238000D03*
X406830000Y-279238000D03*
X414330000Y-304438000D03*
X406830000Y-304438000D03*
%TD*%
%TO.C,K17*%
X399320000Y-284278000D03*
X399320000Y-289278000D03*
X399320000Y-279278000D03*
X391820000Y-284278000D03*
X391820000Y-289278000D03*
X391820000Y-279278000D03*
X399320000Y-304478000D03*
X391820000Y-304478000D03*
%TD*%
%TO.C,K16*%
X334090000Y-284208000D03*
X334090000Y-289208000D03*
X334090000Y-279208000D03*
X326590000Y-284208000D03*
X326590000Y-289208000D03*
X326590000Y-279208000D03*
X334090000Y-304408000D03*
X326590000Y-304408000D03*
%TD*%
%TO.C,K15*%
X349170000Y-284228000D03*
X349170000Y-289228000D03*
X349170000Y-279228000D03*
X341670000Y-284228000D03*
X341670000Y-289228000D03*
X341670000Y-279228000D03*
X349170000Y-304428000D03*
X341670000Y-304428000D03*
%TD*%
%TO.C,K14*%
X366750000Y-284228000D03*
X366750000Y-289228000D03*
X366750000Y-279228000D03*
X359250000Y-284228000D03*
X359250000Y-289228000D03*
X359250000Y-279228000D03*
X366750000Y-304428000D03*
X359250000Y-304428000D03*
%TD*%
%TO.C,K13*%
X381760000Y-284208000D03*
X381760000Y-289208000D03*
X381760000Y-279208000D03*
X374260000Y-284208000D03*
X374260000Y-289208000D03*
X374260000Y-279208000D03*
X381760000Y-304408000D03*
X374260000Y-304408000D03*
%TD*%
%TO.C,K12*%
X316500000Y-284238000D03*
X316500000Y-289238000D03*
X316500000Y-279238000D03*
X309000000Y-284238000D03*
X309000000Y-289238000D03*
X309000000Y-279238000D03*
X316500000Y-304438000D03*
X309000000Y-304438000D03*
%TD*%
%TO.C,K11*%
X301490000Y-284208000D03*
X301490000Y-289208000D03*
X301490000Y-279208000D03*
X293990000Y-284208000D03*
X293990000Y-289208000D03*
X293990000Y-279208000D03*
X301490000Y-304408000D03*
X293990000Y-304408000D03*
%TD*%
%TO.C,K10*%
X439210000Y-345248000D03*
X439210000Y-340248000D03*
X439210000Y-350248000D03*
X446710000Y-345248000D03*
X446710000Y-340248000D03*
X446710000Y-350248000D03*
X439210000Y-325048000D03*
X446710000Y-325048000D03*
%TD*%
%TO.C,K9*%
X424200000Y-345228000D03*
X424200000Y-340228000D03*
X424200000Y-350228000D03*
X431700000Y-345228000D03*
X431700000Y-340228000D03*
X431700000Y-350228000D03*
X424200000Y-325028000D03*
X431700000Y-325028000D03*
%TD*%
%TO.C,K8*%
X406610000Y-345248000D03*
X406610000Y-340248000D03*
X406610000Y-350248000D03*
X414110000Y-345248000D03*
X414110000Y-340248000D03*
X414110000Y-350248000D03*
X406610000Y-325048000D03*
X414110000Y-325048000D03*
%TD*%
%TO.C,K7*%
X391520000Y-345218000D03*
X391520000Y-340218000D03*
X391520000Y-350218000D03*
X399020000Y-345218000D03*
X399020000Y-340218000D03*
X399020000Y-350218000D03*
X391520000Y-325018000D03*
X399020000Y-325018000D03*
%TD*%
%TO.C,K6*%
X374070000Y-345098000D03*
X374070000Y-340098000D03*
X374070000Y-350098000D03*
X381570000Y-345098000D03*
X381570000Y-340098000D03*
X381570000Y-350098000D03*
X374070000Y-324898000D03*
X381570000Y-324898000D03*
%TD*%
%TO.C,K5*%
X358960000Y-345188000D03*
X358960000Y-340188000D03*
X358960000Y-350188000D03*
X366460000Y-345188000D03*
X366460000Y-340188000D03*
X366460000Y-350188000D03*
X358960000Y-324988000D03*
X366460000Y-324988000D03*
%TD*%
%TO.C,K4*%
X341630000Y-345138000D03*
X341630000Y-340138000D03*
X341630000Y-350138000D03*
X349130000Y-345138000D03*
X349130000Y-340138000D03*
X349130000Y-350138000D03*
X341630000Y-324938000D03*
X349130000Y-324938000D03*
%TD*%
%TO.C,K3*%
X326520000Y-345188000D03*
X326520000Y-340188000D03*
X326520000Y-350188000D03*
X334020000Y-345188000D03*
X334020000Y-340188000D03*
X334020000Y-350188000D03*
X326520000Y-324988000D03*
X334020000Y-324988000D03*
%TD*%
%TO.C,K2*%
X309020000Y-345178000D03*
X309020000Y-340178000D03*
X309020000Y-350178000D03*
X316520000Y-345178000D03*
X316520000Y-340178000D03*
X316520000Y-350178000D03*
X309020000Y-324978000D03*
X316520000Y-324978000D03*
%TD*%
%TO.C,K1*%
X293930000Y-345128000D03*
X293930000Y-340128000D03*
X293930000Y-350128000D03*
X301430000Y-345128000D03*
X301430000Y-340128000D03*
X301430000Y-350128000D03*
X293930000Y-324928000D03*
X301430000Y-324928000D03*
%TD*%
D12*
%TO.C,JP4*%
G36*
X378680000Y-320908000D02*
G01*
X378130000Y-320908000D01*
X378130000Y-320907398D01*
X378105466Y-320907398D01*
X378056635Y-320902588D01*
X378008510Y-320893016D01*
X377961555Y-320878772D01*
X377916222Y-320859995D01*
X377872949Y-320836864D01*
X377832150Y-320809604D01*
X377794221Y-320778476D01*
X377759524Y-320743779D01*
X377728396Y-320705850D01*
X377701136Y-320665051D01*
X377678005Y-320621778D01*
X377659228Y-320576445D01*
X377644984Y-320529490D01*
X377635412Y-320481365D01*
X377630602Y-320432534D01*
X377630602Y-320408000D01*
X377630000Y-320408000D01*
X377630000Y-319908000D01*
X377630602Y-319908000D01*
X377630602Y-319883466D01*
X377635412Y-319834635D01*
X377644984Y-319786510D01*
X377659228Y-319739555D01*
X377678005Y-319694222D01*
X377701136Y-319650949D01*
X377728396Y-319610150D01*
X377759524Y-319572221D01*
X377794221Y-319537524D01*
X377832150Y-319506396D01*
X377872949Y-319479136D01*
X377916222Y-319456005D01*
X377961555Y-319437228D01*
X378008510Y-319422984D01*
X378056635Y-319413412D01*
X378105466Y-319408602D01*
X378130000Y-319408602D01*
X378130000Y-319408000D01*
X378680000Y-319408000D01*
X378680000Y-320908000D01*
G37*
D13*
X379430000Y-320158000D03*
D12*
G36*
X380730000Y-319408602D02*
G01*
X380754534Y-319408602D01*
X380803365Y-319413412D01*
X380851490Y-319422984D01*
X380898445Y-319437228D01*
X380943778Y-319456005D01*
X380987051Y-319479136D01*
X381027850Y-319506396D01*
X381065779Y-319537524D01*
X381100476Y-319572221D01*
X381131604Y-319610150D01*
X381158864Y-319650949D01*
X381181995Y-319694222D01*
X381200772Y-319739555D01*
X381215016Y-319786510D01*
X381224588Y-319834635D01*
X381229398Y-319883466D01*
X381229398Y-319908000D01*
X381230000Y-319908000D01*
X381230000Y-320408000D01*
X381229398Y-320408000D01*
X381229398Y-320432534D01*
X381224588Y-320481365D01*
X381215016Y-320529490D01*
X381200772Y-320576445D01*
X381181995Y-320621778D01*
X381158864Y-320665051D01*
X381131604Y-320705850D01*
X381100476Y-320743779D01*
X381065779Y-320778476D01*
X381027850Y-320809604D01*
X380987051Y-320836864D01*
X380943778Y-320859995D01*
X380898445Y-320878772D01*
X380851490Y-320893016D01*
X380803365Y-320902588D01*
X380754534Y-320907398D01*
X380730000Y-320907398D01*
X380730000Y-320908000D01*
X380180000Y-320908000D01*
X380180000Y-319408000D01*
X380730000Y-319408000D01*
X380730000Y-319408602D01*
G37*
%TD*%
%TO.C,J13*%
G36*
G01*
X478040000Y-358883000D02*
X478040000Y-356333000D01*
G75*
G02*
X478665000Y-355708000I625000J0D01*
G01*
X479915000Y-355708000D01*
G75*
G02*
X480540000Y-356333000I0J-625000D01*
G01*
X480540000Y-358883000D01*
G75*
G02*
X479915000Y-359508000I-625000J0D01*
G01*
X478665000Y-359508000D01*
G75*
G02*
X478040000Y-358883000I0J625000D01*
G01*
G37*
G36*
G01*
X470540000Y-358883000D02*
X470540000Y-356333000D01*
G75*
G02*
X471165000Y-355708000I625000J0D01*
G01*
X472415000Y-355708000D01*
G75*
G02*
X473040000Y-356333000I0J-625000D01*
G01*
X473040000Y-358883000D01*
G75*
G02*
X472415000Y-359508000I-625000J0D01*
G01*
X471165000Y-359508000D01*
G75*
G02*
X470540000Y-358883000I0J625000D01*
G01*
G37*
G36*
G01*
X463040000Y-358883000D02*
X463040000Y-356333000D01*
G75*
G02*
X463665000Y-355708000I625000J0D01*
G01*
X464915000Y-355708000D01*
G75*
G02*
X465540000Y-356333000I0J-625000D01*
G01*
X465540000Y-358883000D01*
G75*
G02*
X464915000Y-359508000I-625000J0D01*
G01*
X463665000Y-359508000D01*
G75*
G02*
X463040000Y-358883000I0J625000D01*
G01*
G37*
G36*
G01*
X455540000Y-359195500D02*
X455540000Y-356020500D01*
G75*
G02*
X455852500Y-355708000I312500J0D01*
G01*
X457727500Y-355708000D01*
G75*
G02*
X458040000Y-356020500I0J-312500D01*
G01*
X458040000Y-359195500D01*
G75*
G02*
X457727500Y-359508000I-312500J0D01*
G01*
X455852500Y-359508000D01*
G75*
G02*
X455540000Y-359195500I0J312500D01*
G01*
G37*
%TD*%
%TO.C,J12*%
G36*
G01*
X458000000Y-270543000D02*
X458000000Y-273093000D01*
G75*
G02*
X457375000Y-273718000I-625000J0D01*
G01*
X456125000Y-273718000D01*
G75*
G02*
X455500000Y-273093000I0J625000D01*
G01*
X455500000Y-270543000D01*
G75*
G02*
X456125000Y-269918000I625000J0D01*
G01*
X457375000Y-269918000D01*
G75*
G02*
X458000000Y-270543000I0J-625000D01*
G01*
G37*
G36*
G01*
X465500000Y-270543000D02*
X465500000Y-273093000D01*
G75*
G02*
X464875000Y-273718000I-625000J0D01*
G01*
X463625000Y-273718000D01*
G75*
G02*
X463000000Y-273093000I0J625000D01*
G01*
X463000000Y-270543000D01*
G75*
G02*
X463625000Y-269918000I625000J0D01*
G01*
X464875000Y-269918000D01*
G75*
G02*
X465500000Y-270543000I0J-625000D01*
G01*
G37*
G36*
G01*
X473000000Y-270543000D02*
X473000000Y-273093000D01*
G75*
G02*
X472375000Y-273718000I-625000J0D01*
G01*
X471125000Y-273718000D01*
G75*
G02*
X470500000Y-273093000I0J625000D01*
G01*
X470500000Y-270543000D01*
G75*
G02*
X471125000Y-269918000I625000J0D01*
G01*
X472375000Y-269918000D01*
G75*
G02*
X473000000Y-270543000I0J-625000D01*
G01*
G37*
G36*
G01*
X480500000Y-270230500D02*
X480500000Y-273405500D01*
G75*
G02*
X480187500Y-273718000I-312500J0D01*
G01*
X478312500Y-273718000D01*
G75*
G02*
X478000000Y-273405500I0J312500D01*
G01*
X478000000Y-270230500D01*
G75*
G02*
X478312500Y-269918000I312500J0D01*
G01*
X480187500Y-269918000D01*
G75*
G02*
X480500000Y-270230500I0J-312500D01*
G01*
G37*
%TD*%
%TO.C,J10*%
G36*
G01*
X393040000Y-270523000D02*
X393040000Y-273073000D01*
G75*
G02*
X392415000Y-273698000I-625000J0D01*
G01*
X391165000Y-273698000D01*
G75*
G02*
X390540000Y-273073000I0J625000D01*
G01*
X390540000Y-270523000D01*
G75*
G02*
X391165000Y-269898000I625000J0D01*
G01*
X392415000Y-269898000D01*
G75*
G02*
X393040000Y-270523000I0J-625000D01*
G01*
G37*
G36*
G01*
X400540000Y-270523000D02*
X400540000Y-273073000D01*
G75*
G02*
X399915000Y-273698000I-625000J0D01*
G01*
X398665000Y-273698000D01*
G75*
G02*
X398040000Y-273073000I0J625000D01*
G01*
X398040000Y-270523000D01*
G75*
G02*
X398665000Y-269898000I625000J0D01*
G01*
X399915000Y-269898000D01*
G75*
G02*
X400540000Y-270523000I0J-625000D01*
G01*
G37*
G36*
G01*
X408040000Y-270523000D02*
X408040000Y-273073000D01*
G75*
G02*
X407415000Y-273698000I-625000J0D01*
G01*
X406165000Y-273698000D01*
G75*
G02*
X405540000Y-273073000I0J625000D01*
G01*
X405540000Y-270523000D01*
G75*
G02*
X406165000Y-269898000I625000J0D01*
G01*
X407415000Y-269898000D01*
G75*
G02*
X408040000Y-270523000I0J-625000D01*
G01*
G37*
G36*
G01*
X415540000Y-270210500D02*
X415540000Y-273385500D01*
G75*
G02*
X415227500Y-273698000I-312500J0D01*
G01*
X413352500Y-273698000D01*
G75*
G02*
X413040000Y-273385500I0J312500D01*
G01*
X413040000Y-270210500D01*
G75*
G02*
X413352500Y-269898000I312500J0D01*
G01*
X415227500Y-269898000D01*
G75*
G02*
X415540000Y-270210500I0J-312500D01*
G01*
G37*
%TD*%
%TO.C,J9*%
G36*
G01*
X327870000Y-270493000D02*
X327870000Y-273043000D01*
G75*
G02*
X327245000Y-273668000I-625000J0D01*
G01*
X325995000Y-273668000D01*
G75*
G02*
X325370000Y-273043000I0J625000D01*
G01*
X325370000Y-270493000D01*
G75*
G02*
X325995000Y-269868000I625000J0D01*
G01*
X327245000Y-269868000D01*
G75*
G02*
X327870000Y-270493000I0J-625000D01*
G01*
G37*
G36*
G01*
X335370000Y-270493000D02*
X335370000Y-273043000D01*
G75*
G02*
X334745000Y-273668000I-625000J0D01*
G01*
X333495000Y-273668000D01*
G75*
G02*
X332870000Y-273043000I0J625000D01*
G01*
X332870000Y-270493000D01*
G75*
G02*
X333495000Y-269868000I625000J0D01*
G01*
X334745000Y-269868000D01*
G75*
G02*
X335370000Y-270493000I0J-625000D01*
G01*
G37*
G36*
G01*
X342870000Y-270493000D02*
X342870000Y-273043000D01*
G75*
G02*
X342245000Y-273668000I-625000J0D01*
G01*
X340995000Y-273668000D01*
G75*
G02*
X340370000Y-273043000I0J625000D01*
G01*
X340370000Y-270493000D01*
G75*
G02*
X340995000Y-269868000I625000J0D01*
G01*
X342245000Y-269868000D01*
G75*
G02*
X342870000Y-270493000I0J-625000D01*
G01*
G37*
G36*
G01*
X350370000Y-270180500D02*
X350370000Y-273355500D01*
G75*
G02*
X350057500Y-273668000I-312500J0D01*
G01*
X348182500Y-273668000D01*
G75*
G02*
X347870000Y-273355500I0J312500D01*
G01*
X347870000Y-270180500D01*
G75*
G02*
X348182500Y-269868000I312500J0D01*
G01*
X350057500Y-269868000D01*
G75*
G02*
X350370000Y-270180500I0J-312500D01*
G01*
G37*
%TD*%
%TO.C,J8*%
G36*
G01*
X360490000Y-270513000D02*
X360490000Y-273063000D01*
G75*
G02*
X359865000Y-273688000I-625000J0D01*
G01*
X358615000Y-273688000D01*
G75*
G02*
X357990000Y-273063000I0J625000D01*
G01*
X357990000Y-270513000D01*
G75*
G02*
X358615000Y-269888000I625000J0D01*
G01*
X359865000Y-269888000D01*
G75*
G02*
X360490000Y-270513000I0J-625000D01*
G01*
G37*
G36*
G01*
X367990000Y-270513000D02*
X367990000Y-273063000D01*
G75*
G02*
X367365000Y-273688000I-625000J0D01*
G01*
X366115000Y-273688000D01*
G75*
G02*
X365490000Y-273063000I0J625000D01*
G01*
X365490000Y-270513000D01*
G75*
G02*
X366115000Y-269888000I625000J0D01*
G01*
X367365000Y-269888000D01*
G75*
G02*
X367990000Y-270513000I0J-625000D01*
G01*
G37*
G36*
G01*
X375490000Y-270513000D02*
X375490000Y-273063000D01*
G75*
G02*
X374865000Y-273688000I-625000J0D01*
G01*
X373615000Y-273688000D01*
G75*
G02*
X372990000Y-273063000I0J625000D01*
G01*
X372990000Y-270513000D01*
G75*
G02*
X373615000Y-269888000I625000J0D01*
G01*
X374865000Y-269888000D01*
G75*
G02*
X375490000Y-270513000I0J-625000D01*
G01*
G37*
G36*
G01*
X382990000Y-270200500D02*
X382990000Y-273375500D01*
G75*
G02*
X382677500Y-273688000I-312500J0D01*
G01*
X380802500Y-273688000D01*
G75*
G02*
X380490000Y-273375500I0J312500D01*
G01*
X380490000Y-270200500D01*
G75*
G02*
X380802500Y-269888000I312500J0D01*
G01*
X382677500Y-269888000D01*
G75*
G02*
X382990000Y-270200500I0J-312500D01*
G01*
G37*
%TD*%
D14*
%TO.C,J3*%
X378132200Y-315699000D03*
D15*
X378132200Y-313159000D03*
X380672200Y-315699000D03*
X380672200Y-313159000D03*
X383212200Y-315699000D03*
X383212200Y-313159000D03*
X385752200Y-315699000D03*
X385752200Y-313159000D03*
%TD*%
%TO.C,J1*%
G36*
G01*
X315240000Y-358883000D02*
X315240000Y-356333000D01*
G75*
G02*
X315865000Y-355708000I625000J0D01*
G01*
X317115000Y-355708000D01*
G75*
G02*
X317740000Y-356333000I0J-625000D01*
G01*
X317740000Y-358883000D01*
G75*
G02*
X317115000Y-359508000I-625000J0D01*
G01*
X315865000Y-359508000D01*
G75*
G02*
X315240000Y-358883000I0J625000D01*
G01*
G37*
G36*
G01*
X307740000Y-358883000D02*
X307740000Y-356333000D01*
G75*
G02*
X308365000Y-355708000I625000J0D01*
G01*
X309615000Y-355708000D01*
G75*
G02*
X310240000Y-356333000I0J-625000D01*
G01*
X310240000Y-358883000D01*
G75*
G02*
X309615000Y-359508000I-625000J0D01*
G01*
X308365000Y-359508000D01*
G75*
G02*
X307740000Y-358883000I0J625000D01*
G01*
G37*
G36*
G01*
X300240000Y-359195500D02*
X300240000Y-356020500D01*
G75*
G02*
X300552500Y-355708000I312500J0D01*
G01*
X302427500Y-355708000D01*
G75*
G02*
X302740000Y-356020500I0J-312500D01*
G01*
X302740000Y-359195500D01*
G75*
G02*
X302427500Y-359508000I-312500J0D01*
G01*
X300552500Y-359508000D01*
G75*
G02*
X300240000Y-359195500I0J312500D01*
G01*
G37*
G36*
G01*
X292740000Y-359195500D02*
X292740000Y-356020500D01*
G75*
G02*
X293052500Y-355708000I312500J0D01*
G01*
X294927500Y-355708000D01*
G75*
G02*
X295240000Y-356020500I0J-312500D01*
G01*
X295240000Y-359195500D01*
G75*
G02*
X294927500Y-359508000I-312500J0D01*
G01*
X293052500Y-359508000D01*
G75*
G02*
X292740000Y-359195500I0J312500D01*
G01*
G37*
%TD*%
%TO.C,J11*%
G36*
G01*
X425550000Y-270543000D02*
X425550000Y-273093000D01*
G75*
G02*
X424925000Y-273718000I-625000J0D01*
G01*
X423675000Y-273718000D01*
G75*
G02*
X423050000Y-273093000I0J625000D01*
G01*
X423050000Y-270543000D01*
G75*
G02*
X423675000Y-269918000I625000J0D01*
G01*
X424925000Y-269918000D01*
G75*
G02*
X425550000Y-270543000I0J-625000D01*
G01*
G37*
G36*
G01*
X433050000Y-270543000D02*
X433050000Y-273093000D01*
G75*
G02*
X432425000Y-273718000I-625000J0D01*
G01*
X431175000Y-273718000D01*
G75*
G02*
X430550000Y-273093000I0J625000D01*
G01*
X430550000Y-270543000D01*
G75*
G02*
X431175000Y-269918000I625000J0D01*
G01*
X432425000Y-269918000D01*
G75*
G02*
X433050000Y-270543000I0J-625000D01*
G01*
G37*
G36*
G01*
X440550000Y-270543000D02*
X440550000Y-273093000D01*
G75*
G02*
X439925000Y-273718000I-625000J0D01*
G01*
X438675000Y-273718000D01*
G75*
G02*
X438050000Y-273093000I0J625000D01*
G01*
X438050000Y-270543000D01*
G75*
G02*
X438675000Y-269918000I625000J0D01*
G01*
X439925000Y-269918000D01*
G75*
G02*
X440550000Y-270543000I0J-625000D01*
G01*
G37*
G36*
G01*
X448050000Y-270230500D02*
X448050000Y-273405500D01*
G75*
G02*
X447737500Y-273718000I-312500J0D01*
G01*
X445862500Y-273718000D01*
G75*
G02*
X445550000Y-273405500I0J312500D01*
G01*
X445550000Y-270230500D01*
G75*
G02*
X445862500Y-269918000I312500J0D01*
G01*
X447737500Y-269918000D01*
G75*
G02*
X448050000Y-270230500I0J-312500D01*
G01*
G37*
%TD*%
%TO.C,J7*%
G36*
G01*
X295240000Y-270543000D02*
X295240000Y-273093000D01*
G75*
G02*
X294615000Y-273718000I-625000J0D01*
G01*
X293365000Y-273718000D01*
G75*
G02*
X292740000Y-273093000I0J625000D01*
G01*
X292740000Y-270543000D01*
G75*
G02*
X293365000Y-269918000I625000J0D01*
G01*
X294615000Y-269918000D01*
G75*
G02*
X295240000Y-270543000I0J-625000D01*
G01*
G37*
G36*
G01*
X302740000Y-270543000D02*
X302740000Y-273093000D01*
G75*
G02*
X302115000Y-273718000I-625000J0D01*
G01*
X300865000Y-273718000D01*
G75*
G02*
X300240000Y-273093000I0J625000D01*
G01*
X300240000Y-270543000D01*
G75*
G02*
X300865000Y-269918000I625000J0D01*
G01*
X302115000Y-269918000D01*
G75*
G02*
X302740000Y-270543000I0J-625000D01*
G01*
G37*
G36*
G01*
X310240000Y-270543000D02*
X310240000Y-273093000D01*
G75*
G02*
X309615000Y-273718000I-625000J0D01*
G01*
X308365000Y-273718000D01*
G75*
G02*
X307740000Y-273093000I0J625000D01*
G01*
X307740000Y-270543000D01*
G75*
G02*
X308365000Y-269918000I625000J0D01*
G01*
X309615000Y-269918000D01*
G75*
G02*
X310240000Y-270543000I0J-625000D01*
G01*
G37*
G36*
G01*
X317740000Y-270230500D02*
X317740000Y-273405500D01*
G75*
G02*
X317427500Y-273718000I-312500J0D01*
G01*
X315552500Y-273718000D01*
G75*
G02*
X315240000Y-273405500I0J312500D01*
G01*
X315240000Y-270230500D01*
G75*
G02*
X315552500Y-269918000I312500J0D01*
G01*
X317427500Y-269918000D01*
G75*
G02*
X317740000Y-270230500I0J-312500D01*
G01*
G37*
%TD*%
%TO.C,J6*%
G36*
G01*
X445450000Y-358843000D02*
X445450000Y-356293000D01*
G75*
G02*
X446075000Y-355668000I625000J0D01*
G01*
X447325000Y-355668000D01*
G75*
G02*
X447950000Y-356293000I0J-625000D01*
G01*
X447950000Y-358843000D01*
G75*
G02*
X447325000Y-359468000I-625000J0D01*
G01*
X446075000Y-359468000D01*
G75*
G02*
X445450000Y-358843000I0J625000D01*
G01*
G37*
G36*
G01*
X437950000Y-358843000D02*
X437950000Y-356293000D01*
G75*
G02*
X438575000Y-355668000I625000J0D01*
G01*
X439825000Y-355668000D01*
G75*
G02*
X440450000Y-356293000I0J-625000D01*
G01*
X440450000Y-358843000D01*
G75*
G02*
X439825000Y-359468000I-625000J0D01*
G01*
X438575000Y-359468000D01*
G75*
G02*
X437950000Y-358843000I0J625000D01*
G01*
G37*
G36*
G01*
X430450000Y-358843000D02*
X430450000Y-356293000D01*
G75*
G02*
X431075000Y-355668000I625000J0D01*
G01*
X432325000Y-355668000D01*
G75*
G02*
X432950000Y-356293000I0J-625000D01*
G01*
X432950000Y-358843000D01*
G75*
G02*
X432325000Y-359468000I-625000J0D01*
G01*
X431075000Y-359468000D01*
G75*
G02*
X430450000Y-358843000I0J625000D01*
G01*
G37*
G36*
G01*
X422950000Y-359155500D02*
X422950000Y-355980500D01*
G75*
G02*
X423262500Y-355668000I312500J0D01*
G01*
X425137500Y-355668000D01*
G75*
G02*
X425450000Y-355980500I0J-312500D01*
G01*
X425450000Y-359155500D01*
G75*
G02*
X425137500Y-359468000I-312500J0D01*
G01*
X423262500Y-359468000D01*
G75*
G02*
X422950000Y-359155500I0J312500D01*
G01*
G37*
%TD*%
%TO.C,J5*%
G36*
G01*
X412810000Y-358893000D02*
X412810000Y-356343000D01*
G75*
G02*
X413435000Y-355718000I625000J0D01*
G01*
X414685000Y-355718000D01*
G75*
G02*
X415310000Y-356343000I0J-625000D01*
G01*
X415310000Y-358893000D01*
G75*
G02*
X414685000Y-359518000I-625000J0D01*
G01*
X413435000Y-359518000D01*
G75*
G02*
X412810000Y-358893000I0J625000D01*
G01*
G37*
G36*
G01*
X405310000Y-359205500D02*
X405310000Y-356030500D01*
G75*
G02*
X405622500Y-355718000I312500J0D01*
G01*
X407497500Y-355718000D01*
G75*
G02*
X407810000Y-356030500I0J-312500D01*
G01*
X407810000Y-359205500D01*
G75*
G02*
X407497500Y-359518000I-312500J0D01*
G01*
X405622500Y-359518000D01*
G75*
G02*
X405310000Y-359205500I0J312500D01*
G01*
G37*
G36*
G01*
X397810000Y-358893000D02*
X397810000Y-356343000D01*
G75*
G02*
X398435000Y-355718000I625000J0D01*
G01*
X399685000Y-355718000D01*
G75*
G02*
X400310000Y-356343000I0J-625000D01*
G01*
X400310000Y-358893000D01*
G75*
G02*
X399685000Y-359518000I-625000J0D01*
G01*
X398435000Y-359518000D01*
G75*
G02*
X397810000Y-358893000I0J625000D01*
G01*
G37*
G36*
G01*
X390310000Y-359205500D02*
X390310000Y-356030500D01*
G75*
G02*
X390622500Y-355718000I312500J0D01*
G01*
X392497500Y-355718000D01*
G75*
G02*
X392810000Y-356030500I0J-312500D01*
G01*
X392810000Y-359205500D01*
G75*
G02*
X392497500Y-359518000I-312500J0D01*
G01*
X390622500Y-359518000D01*
G75*
G02*
X390310000Y-359205500I0J312500D01*
G01*
G37*
%TD*%
%TO.C,J4*%
G36*
G01*
X380280000Y-358863000D02*
X380280000Y-356313000D01*
G75*
G02*
X380905000Y-355688000I625000J0D01*
G01*
X382155000Y-355688000D01*
G75*
G02*
X382780000Y-356313000I0J-625000D01*
G01*
X382780000Y-358863000D01*
G75*
G02*
X382155000Y-359488000I-625000J0D01*
G01*
X380905000Y-359488000D01*
G75*
G02*
X380280000Y-358863000I0J625000D01*
G01*
G37*
G36*
G01*
X372780000Y-358863000D02*
X372780000Y-356313000D01*
G75*
G02*
X373405000Y-355688000I625000J0D01*
G01*
X374655000Y-355688000D01*
G75*
G02*
X375280000Y-356313000I0J-625000D01*
G01*
X375280000Y-358863000D01*
G75*
G02*
X374655000Y-359488000I-625000J0D01*
G01*
X373405000Y-359488000D01*
G75*
G02*
X372780000Y-358863000I0J625000D01*
G01*
G37*
G36*
G01*
X365280000Y-358863000D02*
X365280000Y-356313000D01*
G75*
G02*
X365905000Y-355688000I625000J0D01*
G01*
X367155000Y-355688000D01*
G75*
G02*
X367780000Y-356313000I0J-625000D01*
G01*
X367780000Y-358863000D01*
G75*
G02*
X367155000Y-359488000I-625000J0D01*
G01*
X365905000Y-359488000D01*
G75*
G02*
X365280000Y-358863000I0J625000D01*
G01*
G37*
G36*
G01*
X357780000Y-359175500D02*
X357780000Y-356000500D01*
G75*
G02*
X358092500Y-355688000I312500J0D01*
G01*
X359967500Y-355688000D01*
G75*
G02*
X360280000Y-356000500I0J-312500D01*
G01*
X360280000Y-359175500D01*
G75*
G02*
X359967500Y-359488000I-312500J0D01*
G01*
X358092500Y-359488000D01*
G75*
G02*
X357780000Y-359175500I0J312500D01*
G01*
G37*
%TD*%
%TO.C,J2*%
G36*
G01*
X347760000Y-358853000D02*
X347760000Y-356303000D01*
G75*
G02*
X348385000Y-355678000I625000J0D01*
G01*
X349635000Y-355678000D01*
G75*
G02*
X350260000Y-356303000I0J-625000D01*
G01*
X350260000Y-358853000D01*
G75*
G02*
X349635000Y-359478000I-625000J0D01*
G01*
X348385000Y-359478000D01*
G75*
G02*
X347760000Y-358853000I0J625000D01*
G01*
G37*
G36*
G01*
X340260000Y-358853000D02*
X340260000Y-356303000D01*
G75*
G02*
X340885000Y-355678000I625000J0D01*
G01*
X342135000Y-355678000D01*
G75*
G02*
X342760000Y-356303000I0J-625000D01*
G01*
X342760000Y-358853000D01*
G75*
G02*
X342135000Y-359478000I-625000J0D01*
G01*
X340885000Y-359478000D01*
G75*
G02*
X340260000Y-358853000I0J625000D01*
G01*
G37*
G36*
G01*
X332760000Y-358853000D02*
X332760000Y-356303000D01*
G75*
G02*
X333385000Y-355678000I625000J0D01*
G01*
X334635000Y-355678000D01*
G75*
G02*
X335260000Y-356303000I0J-625000D01*
G01*
X335260000Y-358853000D01*
G75*
G02*
X334635000Y-359478000I-625000J0D01*
G01*
X333385000Y-359478000D01*
G75*
G02*
X332760000Y-358853000I0J625000D01*
G01*
G37*
G36*
G01*
X325260000Y-359165500D02*
X325260000Y-355990500D01*
G75*
G02*
X325572500Y-355678000I312500J0D01*
G01*
X327447500Y-355678000D01*
G75*
G02*
X327760000Y-355990500I0J-312500D01*
G01*
X327760000Y-359165500D01*
G75*
G02*
X327447500Y-359478000I-312500J0D01*
G01*
X325572500Y-359478000D01*
G75*
G02*
X325260000Y-359165500I0J312500D01*
G01*
G37*
%TD*%
D16*
X295113000Y-277958000D02*
X295115440Y-277982776D01*
X295122667Y-278006601D01*
X295134403Y-278028557D01*
X295150197Y-278047803D01*
X295169443Y-278063597D01*
X295191399Y-278075333D01*
X295215224Y-278082560D01*
X295240000Y-278085000D01*
X301405514Y-278085000D01*
X301450434Y-280331000D01*
X294094014Y-280331000D01*
X292867000Y-279056793D01*
X292867000Y-270814493D01*
X295113000Y-270805509D01*
X295113000Y-277958000D01*
D12*
G36*
X295113000Y-277958000D02*
G01*
X295115440Y-277982776D01*
X295122667Y-278006601D01*
X295134403Y-278028557D01*
X295150197Y-278047803D01*
X295169443Y-278063597D01*
X295191399Y-278075333D01*
X295215224Y-278082560D01*
X295240000Y-278085000D01*
X301405514Y-278085000D01*
X301450434Y-280331000D01*
X294094014Y-280331000D01*
X292867000Y-279056793D01*
X292867000Y-270814493D01*
X295113000Y-270805509D01*
X295113000Y-277958000D01*
G37*
D16*
X310114671Y-277988000D02*
X310117111Y-278012776D01*
X310124338Y-278036601D01*
X310136074Y-278058557D01*
X310151868Y-278077803D01*
X310171114Y-278093597D01*
X310193070Y-278105333D01*
X310216895Y-278112560D01*
X310241671Y-278115000D01*
X316407185Y-278115000D01*
X316452105Y-280361000D01*
X309095685Y-280361000D01*
X307868671Y-279086793D01*
X307868671Y-270844493D01*
X310114671Y-270835509D01*
X310114671Y-277988000D01*
D12*
G36*
X310114671Y-277988000D02*
G01*
X310117111Y-278012776D01*
X310124338Y-278036601D01*
X310136074Y-278058557D01*
X310151868Y-278077803D01*
X310171114Y-278093597D01*
X310193070Y-278105333D01*
X310216895Y-278112560D01*
X310241671Y-278115000D01*
X316407185Y-278115000D01*
X316452105Y-280361000D01*
X309095685Y-280361000D01*
X307868671Y-279086793D01*
X307868671Y-270844493D01*
X310114671Y-270835509D01*
X310114671Y-277988000D01*
G37*
D16*
X327747140Y-277948000D02*
X327749580Y-277972776D01*
X327756807Y-277996601D01*
X327768543Y-278018557D01*
X327784337Y-278037803D01*
X327803583Y-278053597D01*
X327825539Y-278065333D01*
X327849364Y-278072560D01*
X327874140Y-278075000D01*
X334039654Y-278075000D01*
X334084574Y-280321000D01*
X326728154Y-280321000D01*
X325501140Y-279046793D01*
X325501140Y-270804493D01*
X327747140Y-270795509D01*
X327747140Y-277948000D01*
D12*
G36*
X327747140Y-277948000D02*
G01*
X327749580Y-277972776D01*
X327756807Y-277996601D01*
X327768543Y-278018557D01*
X327784337Y-278037803D01*
X327803583Y-278053597D01*
X327825539Y-278065333D01*
X327849364Y-278072560D01*
X327874140Y-278075000D01*
X334039654Y-278075000D01*
X334084574Y-280321000D01*
X326728154Y-280321000D01*
X325501140Y-279046793D01*
X325501140Y-270804493D01*
X327747140Y-270795509D01*
X327747140Y-277948000D01*
G37*
D16*
X342745118Y-277988000D02*
X342747558Y-278012776D01*
X342754785Y-278036601D01*
X342766521Y-278058557D01*
X342782315Y-278077803D01*
X342801561Y-278093597D01*
X342823517Y-278105333D01*
X342847342Y-278112560D01*
X342872118Y-278115000D01*
X349037632Y-278115000D01*
X349082552Y-280361000D01*
X341726132Y-280361000D01*
X340499118Y-279086793D01*
X340499118Y-270844493D01*
X342745118Y-270835509D01*
X342745118Y-277988000D01*
D12*
G36*
X342745118Y-277988000D02*
G01*
X342747558Y-278012776D01*
X342754785Y-278036601D01*
X342766521Y-278058557D01*
X342782315Y-278077803D01*
X342801561Y-278093597D01*
X342823517Y-278105333D01*
X342847342Y-278112560D01*
X342872118Y-278115000D01*
X349037632Y-278115000D01*
X349082552Y-280361000D01*
X341726132Y-280361000D01*
X340499118Y-279086793D01*
X340499118Y-270844493D01*
X342745118Y-270835509D01*
X342745118Y-277988000D01*
G37*
D16*
X360379391Y-277968000D02*
X360381831Y-277992776D01*
X360389058Y-278016601D01*
X360400794Y-278038557D01*
X360416588Y-278057803D01*
X360435834Y-278073597D01*
X360457790Y-278085333D01*
X360481615Y-278092560D01*
X360506391Y-278095000D01*
X366671905Y-278095000D01*
X366716825Y-280341000D01*
X359360405Y-280341000D01*
X358133391Y-279066793D01*
X358133391Y-270824493D01*
X360379391Y-270815509D01*
X360379391Y-277968000D01*
D12*
G36*
X360379391Y-277968000D02*
G01*
X360381831Y-277992776D01*
X360389058Y-278016601D01*
X360400794Y-278038557D01*
X360416588Y-278057803D01*
X360435834Y-278073597D01*
X360457790Y-278085333D01*
X360481615Y-278092560D01*
X360506391Y-278095000D01*
X366671905Y-278095000D01*
X366716825Y-280341000D01*
X359360405Y-280341000D01*
X358133391Y-279066793D01*
X358133391Y-270824493D01*
X360379391Y-270815509D01*
X360379391Y-277968000D01*
G37*
D16*
X375385456Y-277958000D02*
X375387896Y-277982776D01*
X375395123Y-278006601D01*
X375406859Y-278028557D01*
X375422653Y-278047803D01*
X375441899Y-278063597D01*
X375463855Y-278075333D01*
X375487680Y-278082560D01*
X375512456Y-278085000D01*
X381677970Y-278085000D01*
X381722890Y-280331000D01*
X374366470Y-280331000D01*
X373139456Y-279056793D01*
X373139456Y-270814493D01*
X375385456Y-270805509D01*
X375385456Y-277958000D01*
D12*
G36*
X375385456Y-277958000D02*
G01*
X375387896Y-277982776D01*
X375395123Y-278006601D01*
X375406859Y-278028557D01*
X375422653Y-278047803D01*
X375441899Y-278063597D01*
X375463855Y-278075333D01*
X375487680Y-278082560D01*
X375512456Y-278085000D01*
X381677970Y-278085000D01*
X381722890Y-280331000D01*
X374366470Y-280331000D01*
X373139456Y-279056793D01*
X373139456Y-270814493D01*
X375385456Y-270805509D01*
X375385456Y-277958000D01*
G37*
D16*
X392910992Y-278028000D02*
X392913432Y-278052776D01*
X392920659Y-278076601D01*
X392932395Y-278098557D01*
X392948189Y-278117803D01*
X392967435Y-278133597D01*
X392989391Y-278145333D01*
X393013216Y-278152560D01*
X393037992Y-278155000D01*
X399203506Y-278155000D01*
X399248426Y-280401000D01*
X391892006Y-280401000D01*
X390664992Y-279126793D01*
X390664992Y-270884493D01*
X392910992Y-270875509D01*
X392910992Y-278028000D01*
D12*
G36*
X392910992Y-278028000D02*
G01*
X392913432Y-278052776D01*
X392920659Y-278076601D01*
X392932395Y-278098557D01*
X392948189Y-278117803D01*
X392967435Y-278133597D01*
X392989391Y-278145333D01*
X393013216Y-278152560D01*
X393037992Y-278155000D01*
X399203506Y-278155000D01*
X399248426Y-280401000D01*
X391892006Y-280401000D01*
X390664992Y-279126793D01*
X390664992Y-270884493D01*
X392910992Y-270875509D01*
X392910992Y-278028000D01*
G37*
D16*
X407951199Y-277988000D02*
X407953639Y-278012776D01*
X407960866Y-278036601D01*
X407972602Y-278058557D01*
X407988396Y-278077803D01*
X408007642Y-278093597D01*
X408029598Y-278105333D01*
X408053423Y-278112560D01*
X408078199Y-278115000D01*
X414243713Y-278115000D01*
X414288633Y-280361000D01*
X406932213Y-280361000D01*
X405705199Y-279086793D01*
X405705199Y-270844493D01*
X407951199Y-270835509D01*
X407951199Y-277988000D01*
D12*
G36*
X407951199Y-277988000D02*
G01*
X407953639Y-278012776D01*
X407960866Y-278036601D01*
X407972602Y-278058557D01*
X407988396Y-278077803D01*
X408007642Y-278093597D01*
X408029598Y-278105333D01*
X408053423Y-278112560D01*
X408078199Y-278115000D01*
X414243713Y-278115000D01*
X414288633Y-280361000D01*
X406932213Y-280361000D01*
X405705199Y-279086793D01*
X405705199Y-270844493D01*
X407951199Y-270835509D01*
X407951199Y-277988000D01*
G37*
D16*
X425430322Y-277978000D02*
X425432762Y-278002776D01*
X425439989Y-278026601D01*
X425451725Y-278048557D01*
X425467519Y-278067803D01*
X425486765Y-278083597D01*
X425508721Y-278095333D01*
X425532546Y-278102560D01*
X425557322Y-278105000D01*
X431722836Y-278105000D01*
X431767756Y-280351000D01*
X424411336Y-280351000D01*
X423184322Y-279076793D01*
X423184322Y-270834493D01*
X425430322Y-270825509D01*
X425430322Y-277978000D01*
D12*
G36*
X425430322Y-277978000D02*
G01*
X425432762Y-278002776D01*
X425439989Y-278026601D01*
X425451725Y-278048557D01*
X425467519Y-278067803D01*
X425486765Y-278083597D01*
X425508721Y-278095333D01*
X425532546Y-278102560D01*
X425557322Y-278105000D01*
X431722836Y-278105000D01*
X431767756Y-280351000D01*
X424411336Y-280351000D01*
X423184322Y-279076793D01*
X423184322Y-270834493D01*
X425430322Y-270825509D01*
X425430322Y-277978000D01*
G37*
D16*
X440432555Y-277998000D02*
X440434995Y-278022776D01*
X440442222Y-278046601D01*
X440453958Y-278068557D01*
X440469752Y-278087803D01*
X440488998Y-278103597D01*
X440510954Y-278115333D01*
X440534779Y-278122560D01*
X440559555Y-278125000D01*
X446725069Y-278125000D01*
X446769989Y-280371000D01*
X439413569Y-280371000D01*
X438186555Y-279096793D01*
X438186555Y-270854493D01*
X440432555Y-270845509D01*
X440432555Y-277998000D01*
D12*
G36*
X440432555Y-277998000D02*
G01*
X440434995Y-278022776D01*
X440442222Y-278046601D01*
X440453958Y-278068557D01*
X440469752Y-278087803D01*
X440488998Y-278103597D01*
X440510954Y-278115333D01*
X440534779Y-278122560D01*
X440559555Y-278125000D01*
X446725069Y-278125000D01*
X446769989Y-280371000D01*
X439413569Y-280371000D01*
X438186555Y-279096793D01*
X438186555Y-270854493D01*
X440432555Y-270845509D01*
X440432555Y-277998000D01*
G37*
D16*
X457866459Y-278008000D02*
X457868899Y-278032776D01*
X457876126Y-278056601D01*
X457887862Y-278078557D01*
X457903656Y-278097803D01*
X457922902Y-278113597D01*
X457944858Y-278125333D01*
X457968683Y-278132560D01*
X457993459Y-278135000D01*
X464158973Y-278135000D01*
X464203893Y-280381000D01*
X456847473Y-280381000D01*
X455620459Y-279106793D01*
X455620459Y-270864493D01*
X457866459Y-270855509D01*
X457866459Y-278008000D01*
D12*
G36*
X457866459Y-278008000D02*
G01*
X457868899Y-278032776D01*
X457876126Y-278056601D01*
X457887862Y-278078557D01*
X457903656Y-278097803D01*
X457922902Y-278113597D01*
X457944858Y-278125333D01*
X457968683Y-278132560D01*
X457993459Y-278135000D01*
X464158973Y-278135000D01*
X464203893Y-280381000D01*
X456847473Y-280381000D01*
X455620459Y-279106793D01*
X455620459Y-270864493D01*
X457866459Y-270855509D01*
X457866459Y-278008000D01*
G37*
D16*
X472905015Y-277938000D02*
X472907455Y-277962776D01*
X472914682Y-277986601D01*
X472926418Y-278008557D01*
X472942212Y-278027803D01*
X472961458Y-278043597D01*
X472983414Y-278055333D01*
X473007239Y-278062560D01*
X473032015Y-278065000D01*
X479197529Y-278065000D01*
X479242449Y-280311000D01*
X471886029Y-280311000D01*
X470659015Y-279036793D01*
X470659015Y-270794493D01*
X472905015Y-270785509D01*
X472905015Y-277938000D01*
D12*
G36*
X472905015Y-277938000D02*
G01*
X472907455Y-277962776D01*
X472914682Y-277986601D01*
X472926418Y-278008557D01*
X472942212Y-278027803D01*
X472961458Y-278043597D01*
X472983414Y-278055333D01*
X473007239Y-278062560D01*
X473032015Y-278065000D01*
X479197529Y-278065000D01*
X479242449Y-280311000D01*
X471886029Y-280311000D01*
X470659015Y-279036793D01*
X470659015Y-270794493D01*
X472905015Y-270785509D01*
X472905015Y-277938000D01*
G37*
D16*
X302543000Y-350285604D02*
X302543000Y-358527904D01*
X300297000Y-358536888D01*
X300297000Y-351384397D01*
X300294560Y-351359621D01*
X300287333Y-351335796D01*
X300275597Y-351313840D01*
X300259803Y-351294594D01*
X300240557Y-351278800D01*
X300218601Y-351267064D01*
X300194776Y-351259837D01*
X300170000Y-351257397D01*
X294004486Y-351257397D01*
X293959566Y-349011397D01*
X301315986Y-349011397D01*
X302543000Y-350285604D01*
D12*
G36*
X302543000Y-350285604D02*
G01*
X302543000Y-358527904D01*
X300297000Y-358536888D01*
X300297000Y-351384397D01*
X300294560Y-351359621D01*
X300287333Y-351335796D01*
X300275597Y-351313840D01*
X300259803Y-351294594D01*
X300240557Y-351278800D01*
X300218601Y-351267064D01*
X300194776Y-351259837D01*
X300170000Y-351257397D01*
X294004486Y-351257397D01*
X293959566Y-349011397D01*
X301315986Y-349011397D01*
X302543000Y-350285604D01*
G37*
D16*
X317633000Y-350344546D02*
X317633000Y-358586846D01*
X315387000Y-358595830D01*
X315387000Y-351443339D01*
X315384560Y-351418563D01*
X315377333Y-351394738D01*
X315365597Y-351372782D01*
X315349803Y-351353536D01*
X315330557Y-351337742D01*
X315308601Y-351326006D01*
X315284776Y-351318779D01*
X315260000Y-351316339D01*
X309094486Y-351316339D01*
X309049566Y-349070339D01*
X316405986Y-349070339D01*
X317633000Y-350344546D01*
D12*
G36*
X317633000Y-350344546D02*
G01*
X317633000Y-358586846D01*
X315387000Y-358595830D01*
X315387000Y-351443339D01*
X315384560Y-351418563D01*
X315377333Y-351394738D01*
X315365597Y-351372782D01*
X315349803Y-351353536D01*
X315330557Y-351337742D01*
X315308601Y-351326006D01*
X315284776Y-351318779D01*
X315260000Y-351316339D01*
X309094486Y-351316339D01*
X309049566Y-349070339D01*
X316405986Y-349070339D01*
X317633000Y-350344546D01*
G37*
D16*
X335133000Y-350333240D02*
X335133000Y-358575540D01*
X332887000Y-358584524D01*
X332887000Y-351432033D01*
X332884560Y-351407257D01*
X332877333Y-351383432D01*
X332865597Y-351361476D01*
X332849803Y-351342230D01*
X332830557Y-351326436D01*
X332808601Y-351314700D01*
X332784776Y-351307473D01*
X332760000Y-351305033D01*
X326594486Y-351305033D01*
X326549566Y-349059033D01*
X333905986Y-349059033D01*
X335133000Y-350333240D01*
D12*
G36*
X335133000Y-350333240D02*
G01*
X335133000Y-358575540D01*
X332887000Y-358584524D01*
X332887000Y-351432033D01*
X332884560Y-351407257D01*
X332877333Y-351383432D01*
X332865597Y-351361476D01*
X332849803Y-351342230D01*
X332830557Y-351326436D01*
X332808601Y-351314700D01*
X332784776Y-351307473D01*
X332760000Y-351305033D01*
X326594486Y-351305033D01*
X326549566Y-349059033D01*
X333905986Y-349059033D01*
X335133000Y-350333240D01*
G37*
D16*
X335145831Y-350339207D02*
X335145831Y-358581507D01*
X332899831Y-358590491D01*
X332899831Y-351438000D01*
X332897391Y-351413224D01*
X332890164Y-351389399D01*
X332878428Y-351367443D01*
X332862634Y-351348197D01*
X332843388Y-351332403D01*
X332821432Y-351320667D01*
X332797607Y-351313440D01*
X332772831Y-351311000D01*
X326607317Y-351311000D01*
X326562397Y-349065000D01*
X333918817Y-349065000D01*
X335145831Y-350339207D01*
D12*
G36*
X335145831Y-350339207D02*
G01*
X335145831Y-358581507D01*
X332899831Y-358590491D01*
X332899831Y-351438000D01*
X332897391Y-351413224D01*
X332890164Y-351389399D01*
X332878428Y-351367443D01*
X332862634Y-351348197D01*
X332843388Y-351332403D01*
X332821432Y-351320667D01*
X332797607Y-351313440D01*
X332772831Y-351311000D01*
X326607317Y-351311000D01*
X326562397Y-349065000D01*
X333918817Y-349065000D01*
X335145831Y-350339207D01*
G37*
D16*
X350260427Y-350289207D02*
X350260427Y-358531507D01*
X348014427Y-358540491D01*
X348014427Y-351388000D01*
X348011987Y-351363224D01*
X348004760Y-351339399D01*
X347993024Y-351317443D01*
X347977230Y-351298197D01*
X347957984Y-351282403D01*
X347936028Y-351270667D01*
X347912203Y-351263440D01*
X347887427Y-351261000D01*
X341721913Y-351261000D01*
X341676993Y-349015000D01*
X349033413Y-349015000D01*
X350260427Y-350289207D01*
D12*
G36*
X350260427Y-350289207D02*
G01*
X350260427Y-358531507D01*
X348014427Y-358540491D01*
X348014427Y-351388000D01*
X348011987Y-351363224D01*
X348004760Y-351339399D01*
X347993024Y-351317443D01*
X347977230Y-351298197D01*
X347957984Y-351282403D01*
X347936028Y-351270667D01*
X347912203Y-351263440D01*
X347887427Y-351261000D01*
X341721913Y-351261000D01*
X341676993Y-349015000D01*
X349033413Y-349015000D01*
X350260427Y-350289207D01*
G37*
D16*
X367593000Y-350339207D02*
X367593000Y-358581507D01*
X365347000Y-358590491D01*
X365347000Y-351438000D01*
X365344560Y-351413224D01*
X365337333Y-351389399D01*
X365325597Y-351367443D01*
X365309803Y-351348197D01*
X365290557Y-351332403D01*
X365268601Y-351320667D01*
X365244776Y-351313440D01*
X365220000Y-351311000D01*
X359054486Y-351311000D01*
X359009566Y-349065000D01*
X366365986Y-349065000D01*
X367593000Y-350339207D01*
D12*
G36*
X367593000Y-350339207D02*
G01*
X367593000Y-358581507D01*
X365347000Y-358590491D01*
X365347000Y-351438000D01*
X365344560Y-351413224D01*
X365337333Y-351389399D01*
X365325597Y-351367443D01*
X365309803Y-351348197D01*
X365290557Y-351332403D01*
X365268601Y-351320667D01*
X365244776Y-351313440D01*
X365220000Y-351311000D01*
X359054486Y-351311000D01*
X359009566Y-349065000D01*
X366365986Y-349065000D01*
X367593000Y-350339207D01*
G37*
D16*
X382713000Y-350235604D02*
X382713000Y-358477904D01*
X380467000Y-358486888D01*
X380467000Y-351334397D01*
X380464560Y-351309621D01*
X380457333Y-351285796D01*
X380445597Y-351263840D01*
X380429803Y-351244594D01*
X380410557Y-351228800D01*
X380388601Y-351217064D01*
X380364776Y-351209837D01*
X380340000Y-351207397D01*
X374174486Y-351207397D01*
X374129566Y-348961397D01*
X381485986Y-348961397D01*
X382713000Y-350235604D01*
D12*
G36*
X382713000Y-350235604D02*
G01*
X382713000Y-358477904D01*
X380467000Y-358486888D01*
X380467000Y-351334397D01*
X380464560Y-351309621D01*
X380457333Y-351285796D01*
X380445597Y-351263840D01*
X380429803Y-351244594D01*
X380410557Y-351228800D01*
X380388601Y-351217064D01*
X380364776Y-351209837D01*
X380340000Y-351207397D01*
X374174486Y-351207397D01*
X374129566Y-348961397D01*
X381485986Y-348961397D01*
X382713000Y-350235604D01*
G37*
D16*
X400143000Y-350358517D02*
X400143000Y-358600817D01*
X397897000Y-358609801D01*
X397897000Y-351457310D01*
X397894560Y-351432534D01*
X397887333Y-351408709D01*
X397875597Y-351386753D01*
X397859803Y-351367507D01*
X397840557Y-351351713D01*
X397818601Y-351339977D01*
X397794776Y-351332750D01*
X397770000Y-351330310D01*
X391604486Y-351330310D01*
X391559566Y-349084310D01*
X398915986Y-349084310D01*
X400143000Y-350358517D01*
D12*
G36*
X400143000Y-350358517D02*
G01*
X400143000Y-358600817D01*
X397897000Y-358609801D01*
X397897000Y-351457310D01*
X397894560Y-351432534D01*
X397887333Y-351408709D01*
X397875597Y-351386753D01*
X397859803Y-351367507D01*
X397840557Y-351351713D01*
X397818601Y-351339977D01*
X397794776Y-351332750D01*
X397770000Y-351330310D01*
X391604486Y-351330310D01*
X391559566Y-349084310D01*
X398915986Y-349084310D01*
X400143000Y-350358517D01*
G37*
D16*
X415233000Y-350402327D02*
X415233000Y-358644627D01*
X412987000Y-358653611D01*
X412987000Y-351501120D01*
X412984560Y-351476344D01*
X412977333Y-351452519D01*
X412965597Y-351430563D01*
X412949803Y-351411317D01*
X412930557Y-351395523D01*
X412908601Y-351383787D01*
X412884776Y-351376560D01*
X412860000Y-351374120D01*
X406694486Y-351374120D01*
X406649566Y-349128120D01*
X414005986Y-349128120D01*
X415233000Y-350402327D01*
D12*
G36*
X415233000Y-350402327D02*
G01*
X415233000Y-358644627D01*
X412987000Y-358653611D01*
X412987000Y-351501120D01*
X412984560Y-351476344D01*
X412977333Y-351452519D01*
X412965597Y-351430563D01*
X412949803Y-351411317D01*
X412930557Y-351395523D01*
X412908601Y-351383787D01*
X412884776Y-351376560D01*
X412860000Y-351374120D01*
X406694486Y-351374120D01*
X406649566Y-349128120D01*
X414005986Y-349128120D01*
X415233000Y-350402327D01*
G37*
D16*
X432813000Y-350369207D02*
X432813000Y-358611507D01*
X430567000Y-358620491D01*
X430567000Y-351468000D01*
X430564560Y-351443224D01*
X430557333Y-351419399D01*
X430545597Y-351397443D01*
X430529803Y-351378197D01*
X430510557Y-351362403D01*
X430488601Y-351350667D01*
X430464776Y-351343440D01*
X430440000Y-351341000D01*
X424274486Y-351341000D01*
X424229566Y-349095000D01*
X431585986Y-349095000D01*
X432813000Y-350369207D01*
D12*
G36*
X432813000Y-350369207D02*
G01*
X432813000Y-358611507D01*
X430567000Y-358620491D01*
X430567000Y-351468000D01*
X430564560Y-351443224D01*
X430557333Y-351419399D01*
X430545597Y-351397443D01*
X430529803Y-351378197D01*
X430510557Y-351362403D01*
X430488601Y-351350667D01*
X430464776Y-351343440D01*
X430440000Y-351341000D01*
X424274486Y-351341000D01*
X424229566Y-349095000D01*
X431585986Y-349095000D01*
X432813000Y-350369207D01*
G37*
D16*
X447833000Y-350390834D02*
X447833000Y-358633134D01*
X445587000Y-358642118D01*
X445587000Y-351489627D01*
X445584560Y-351464851D01*
X445577333Y-351441026D01*
X445565597Y-351419070D01*
X445549803Y-351399824D01*
X445530557Y-351384030D01*
X445508601Y-351372294D01*
X445484776Y-351365067D01*
X445460000Y-351362627D01*
X439294486Y-351362627D01*
X439249566Y-349116627D01*
X446605986Y-349116627D01*
X447833000Y-350390834D01*
D12*
G36*
X447833000Y-350390834D02*
G01*
X447833000Y-358633134D01*
X445587000Y-358642118D01*
X445587000Y-351489627D01*
X445584560Y-351464851D01*
X445577333Y-351441026D01*
X445565597Y-351419070D01*
X445549803Y-351399824D01*
X445530557Y-351384030D01*
X445508601Y-351372294D01*
X445484776Y-351365067D01*
X445460000Y-351362627D01*
X439294486Y-351362627D01*
X439249566Y-349116627D01*
X446605986Y-349116627D01*
X447833000Y-350390834D01*
G37*
D16*
X465413000Y-350314598D02*
X465413000Y-358556898D01*
X463167000Y-358565882D01*
X463167000Y-351413391D01*
X463164560Y-351388615D01*
X463157333Y-351364790D01*
X463145597Y-351342834D01*
X463129803Y-351323588D01*
X463110557Y-351307794D01*
X463088601Y-351296058D01*
X463064776Y-351288831D01*
X463040000Y-351286391D01*
X456874486Y-351286391D01*
X456829566Y-349040391D01*
X464185986Y-349040391D01*
X465413000Y-350314598D01*
D12*
G36*
X465413000Y-350314598D02*
G01*
X465413000Y-358556898D01*
X463167000Y-358565882D01*
X463167000Y-351413391D01*
X463164560Y-351388615D01*
X463157333Y-351364790D01*
X463145597Y-351342834D01*
X463129803Y-351323588D01*
X463110557Y-351307794D01*
X463088601Y-351296058D01*
X463064776Y-351288831D01*
X463040000Y-351286391D01*
X456874486Y-351286391D01*
X456829566Y-349040391D01*
X464185986Y-349040391D01*
X465413000Y-350314598D01*
G37*
D16*
X480433000Y-350337740D02*
X480433000Y-358580040D01*
X478187000Y-358589024D01*
X478187000Y-351436533D01*
X478184560Y-351411757D01*
X478177333Y-351387932D01*
X478165597Y-351365976D01*
X478149803Y-351346730D01*
X478130557Y-351330936D01*
X478108601Y-351319200D01*
X478084776Y-351311973D01*
X478060000Y-351309533D01*
X471894486Y-351309533D01*
X471849566Y-349063533D01*
X479205986Y-349063533D01*
X480433000Y-350337740D01*
D12*
G36*
X480433000Y-350337740D02*
G01*
X480433000Y-358580040D01*
X478187000Y-358589024D01*
X478187000Y-351436533D01*
X478184560Y-351411757D01*
X478177333Y-351387932D01*
X478165597Y-351365976D01*
X478149803Y-351346730D01*
X478130557Y-351330936D01*
X478108601Y-351319200D01*
X478084776Y-351311973D01*
X478060000Y-351309533D01*
X471894486Y-351309533D01*
X471849566Y-349063533D01*
X479205986Y-349063533D01*
X480433000Y-350337740D01*
G37*
M02*
