%TF.GenerationSoftware,KiCad,Pcbnew,(5.1.12)-1*%
%TF.CreationDate,2021-12-07T00:39:26+01:00*%
%TF.ProjectId,boneIO - relay board,626f6e65-494f-4202-9d20-72656c617920,rev?*%
%TF.SameCoordinates,Original*%
%TF.FileFunction,Legend,Bot*%
%TF.FilePolarity,Positive*%
%FSLAX46Y46*%
G04 Gerber Fmt 4.6, Leading zero omitted, Abs format (unit mm)*
G04 Created by KiCad (PCBNEW (5.1.12)-1) date 2021-12-07 00:39:26*
%MOMM*%
%LPD*%
G01*
G04 APERTURE LIST*
%ADD10C,0.150000*%
%ADD11C,0.120000*%
G04 APERTURE END LIST*
D10*
X384435714Y-320269428D02*
X383673809Y-320269428D01*
X384054761Y-320650380D02*
X384054761Y-319888476D01*
X382721428Y-319650380D02*
X383197619Y-319650380D01*
X383245238Y-320126571D01*
X383197619Y-320078952D01*
X383102380Y-320031333D01*
X382864285Y-320031333D01*
X382769047Y-320078952D01*
X382721428Y-320126571D01*
X382673809Y-320221809D01*
X382673809Y-320459904D01*
X382721428Y-320555142D01*
X382769047Y-320602761D01*
X382864285Y-320650380D01*
X383102380Y-320650380D01*
X383197619Y-320602761D01*
X383245238Y-320555142D01*
X382388095Y-319650380D02*
X382054761Y-320650380D01*
X381721428Y-319650380D01*
X377091904Y-320269428D02*
X376330000Y-320269428D01*
X376710952Y-320650380D02*
X376710952Y-319888476D01*
X375901428Y-319745619D02*
X375853809Y-319698000D01*
X375758571Y-319650380D01*
X375520476Y-319650380D01*
X375425238Y-319698000D01*
X375377619Y-319745619D01*
X375330000Y-319840857D01*
X375330000Y-319936095D01*
X375377619Y-320078952D01*
X375949047Y-320650380D01*
X375330000Y-320650380D01*
X374472857Y-319983714D02*
X374472857Y-320650380D01*
X374710952Y-319602761D02*
X374949047Y-320317047D01*
X374330000Y-320317047D01*
X374091904Y-319650380D02*
X373758571Y-320650380D01*
X373425238Y-319650380D01*
D11*
%TO.C,JP4*%
X378230000Y-318958000D02*
X378530000Y-318658000D01*
X377930000Y-318658000D02*
X378530000Y-318658000D01*
X378230000Y-318958000D02*
X377930000Y-318658000D01*
X377380000Y-319858000D02*
X377380000Y-320458000D01*
X380830000Y-319158000D02*
X378030000Y-319158000D01*
X381480000Y-320458000D02*
X381480000Y-319858000D01*
X378030000Y-321158000D02*
X380830000Y-321158000D01*
X377380000Y-320458000D02*
G75*
G03*
X378080000Y-321158000I700000J0D01*
G01*
X378080000Y-319158000D02*
G75*
G03*
X377380000Y-319858000I0J-700000D01*
G01*
X381480000Y-319858000D02*
G75*
G03*
X380780000Y-319158000I-700000J0D01*
G01*
X380780000Y-321158000D02*
G75*
G03*
X381480000Y-320458000I0J700000D01*
G01*
D10*
X380263333Y-321410380D02*
X380263333Y-322124666D01*
X380310952Y-322267523D01*
X380406190Y-322362761D01*
X380549047Y-322410380D01*
X380644285Y-322410380D01*
X379787142Y-322410380D02*
X379787142Y-321410380D01*
X379406190Y-321410380D01*
X379310952Y-321458000D01*
X379263333Y-321505619D01*
X379215714Y-321600857D01*
X379215714Y-321743714D01*
X379263333Y-321838952D01*
X379310952Y-321886571D01*
X379406190Y-321934190D01*
X379787142Y-321934190D01*
X378358571Y-321743714D02*
X378358571Y-322410380D01*
X378596666Y-321362761D02*
X378834761Y-322077047D01*
X378215714Y-322077047D01*
%TD*%
M02*
