M48
; DRILL file {KiCad (5.1.12)-1} date 12/07/21 00:39:24
; FORMAT={-:-/ absolute / inch / decimal}
; #@! TF.CreationDate,2021-12-07T00:39:24+01:00
; #@! TF.GenerationSoftware,Kicad,Pcbnew,(5.1.12)-1
; #@! TF.FileFunction,Plated,1,2,PTH
FMAT,2
INCH
T1C0.0157
T2C0.0197
T3C0.0394
T4C0.0512
T5C0.0551
%
G90
G05
T1
X11.5621Y-12.1381
X11.5621Y-12.2381
X11.5621Y-12.5451
X11.5621Y-12.6451
X11.6621Y-12.1381
X11.6621Y-12.2381
X11.6621Y-12.5451
X11.6621Y-12.6451
X11.7621Y-12.1381
X11.7621Y-12.2381
X11.7621Y-12.5451
X11.7621Y-12.6451
X11.8621Y-12.1381
X11.8621Y-12.2381
X11.8621Y-12.5451
X11.8621Y-12.6451
X11.9621Y-12.1381
X11.9621Y-12.2381
X11.9621Y-12.5451
X11.9621Y-12.6451
X12.0621Y-12.1381
X12.0621Y-12.2381
X12.0621Y-12.5451
X12.0621Y-12.6451
X12.1621Y-12.1381
X12.1621Y-12.2381
X12.1621Y-12.5451
X12.1621Y-12.6451
X12.2621Y-12.1381
X12.2621Y-12.2381
X12.2621Y-12.5451
X12.2621Y-12.6451
X12.7571Y-12.6791
X12.8232Y-12.6818
X13.0748Y-12.4991
X13.085Y-12.1385
X13.2028Y-12.5239
X13.2081Y-12.1385
X13.2169Y-12.3365
X13.3312Y-12.1385
X13.4413Y-12.6557
X13.4543Y-12.1385
X13.5941Y-12.7917
X13.6405Y-12.6557
X13.6752Y-12.4275
X13.736Y-12.1857
X13.7787Y-12.6557
X13.8205Y-12.4405
X13.8557Y-12.1857
X13.8827Y-11.9653
X13.8923Y-12.8094
X13.9141Y-12.6557
X13.988Y-12.1857
X14.011Y-11.9641
X14.0621Y-12.3371
X14.0621Y-12.4371
X14.0974Y-12.1857
X14.1621Y-12.3371
X14.1621Y-12.4371
X14.2621Y-12.3371
X14.2621Y-12.4371
X14.3621Y-12.3371
X14.3621Y-12.4371
X14.4621Y-12.3371
X14.4621Y-12.4371
X14.5621Y-12.3371
X14.5621Y-12.4371
X14.6621Y-12.3371
X14.6817Y-12.6102
X14.6949Y-12.1944
X14.7181Y-12.6676
X14.7571Y-12.9728
X14.7608Y-12.6102
X14.7752Y-12.6962
X14.8503Y-12.1944
X14.8622Y-12.8015
X14.961Y-12.9728
X15.0057Y-12.1944
X15.125Y-12.6102
X15.1612Y-12.1944
X15.2093Y-12.6102
X15.2193Y-12.8007
X15.2193Y-12.9743
X15.3166Y-12.1944
X15.4524Y-12.3259
X15.472Y-12.1944
X15.5083Y-12.9822
X15.5484Y-12.8039
X15.5547Y-12.3763
X15.7035Y-12.9822
X15.763Y-12.4275
X15.8567Y-12.8066
X15.8583Y-12.4279
X15.8606Y-12.983
X15.9472Y-12.1291
X15.9561Y-12.6339
X16.0031Y-12.5495
X16.025Y-12.1291
X16.0581Y-12.6339
X16.1027Y-12.1291
X16.2774Y-12.5818
X16.2898Y-12.2779
X16.2902Y-12.2157
X16.4146Y-12.6121
X16.524Y-12.6145
X17.1941Y-12.2761
X17.1941Y-12.3981
X17.2631Y-12.4791
X17.2984Y-12.1628
X17.324Y-12.2761
X17.324Y-12.3981
X17.3261Y-12.5561
X17.393Y-12.4791
X17.3961Y-12.6381
X17.4466Y-12.1628
X17.4539Y-12.2761
X17.4539Y-12.3981
X17.456Y-12.5561
X17.5229Y-12.4791
X17.526Y-12.6381
X17.5859Y-12.5561
X17.5949Y-12.1628
X17.6559Y-12.6381
X17.8425Y-12.609
X17.8445Y-12.2428
X17.8453Y-12.1743
X17.8469Y-12.3106
X17.8689Y-12.4385
X17.8709Y-12.4889
X17.8713Y-12.5385
X17.902Y-12.3854
X17.965Y-12.4019
X18.0094Y-12.5365
X18.037Y-12.3113
X18.0378Y-12.2448
X18.0438Y-12.5172
X18.0827Y-12.4893
X18.1055Y-12.1767
X18.1409Y-12.3798
X18.2106Y-12.5389
X18.2122Y-12.5885
X18.224Y-12.4046
X18.265Y-12.596
X18.352Y-12.3767
X18.3547Y-12.2582
X18.3563Y-12.1389
X18.3571Y-12.6141
X18.7371Y-12.1411
X18.7371Y-12.2411
X18.7371Y-12.3411
X18.7371Y-12.4411
X18.7371Y-12.5411
X18.7371Y-12.6411
X18.8371Y-12.1411
X18.8371Y-12.2411
X18.8371Y-12.3411
X18.8371Y-12.4411
X18.8371Y-12.5411
X18.8371Y-12.6411
X18.9371Y-12.1411
X18.9371Y-12.2411
X18.9371Y-12.3411
X18.9371Y-12.4411
X18.9371Y-12.5411
X18.9371Y-12.6411
X19.0371Y-12.1411
X19.0371Y-12.2411
X19.0371Y-12.3411
X19.0371Y-12.4411
X19.0371Y-12.5411
X19.0371Y-12.6411
T2
X12.9317Y-12.1224
X12.9327Y-12.0741
X13.1004Y-12.6235
X13.976Y-12.8251
X13.9772Y-12.7802
X13.9967Y-12.5505
X14.7594Y-12.5318
X14.8047Y-12.5318
X15.65Y-12.3755
X16.2937Y-12.3279
X17.1138Y-12.0505
X17.1138Y-12.0948
X17.7094Y-12.4109
X17.7098Y-12.4535
T3
X14.8871Y-12.3291
X14.8871Y-12.4291
X14.9871Y-12.3291
X14.9871Y-12.4291
X15.0871Y-12.3291
X15.0871Y-12.4291
X15.1871Y-12.3291
X15.1871Y-12.4291
T4
X11.572Y-12.7924
X11.572Y-13.3909
X11.572Y-13.5877
X11.572Y-13.7846
X11.5744Y-10.9924
X11.5744Y-11.1893
X11.5744Y-11.3861
X11.5744Y-11.9846
X11.8673Y-12.7924
X11.8673Y-13.3909
X11.8673Y-13.5877
X11.8673Y-13.7846
X11.8697Y-10.9924
X11.8697Y-11.1893
X11.8697Y-11.3861
X11.8697Y-11.9846
X12.1654Y-10.9936
X12.1654Y-11.1905
X12.1654Y-11.3873
X12.1654Y-11.9857
X12.1661Y-12.7944
X12.1661Y-13.3928
X12.1661Y-13.5897
X12.1661Y-13.7865
X12.4606Y-10.9936
X12.4606Y-11.1905
X12.4606Y-11.3873
X12.4606Y-11.9857
X12.4614Y-12.7944
X12.4614Y-13.3928
X12.4614Y-13.5897
X12.4614Y-13.7865
X12.8551Y-12.7948
X12.8551Y-13.3932
X12.8551Y-13.5901
X12.8551Y-13.7869
X12.8579Y-10.9924
X12.8579Y-11.1893
X12.8579Y-11.3861
X12.8579Y-11.9846
X13.1504Y-12.7948
X13.1504Y-13.3932
X13.1504Y-13.5901
X13.1504Y-13.7869
X13.1531Y-10.9924
X13.1531Y-11.1893
X13.1531Y-11.3861
X13.1531Y-11.9846
X13.45Y-12.7928
X13.45Y-13.3913
X13.45Y-13.5881
X13.45Y-13.785
X13.4516Y-10.9932
X13.4516Y-11.1901
X13.4516Y-11.3869
X13.4516Y-11.9854
X13.7453Y-12.7928
X13.7453Y-13.3913
X13.7453Y-13.5881
X13.7453Y-13.785
X13.7469Y-10.9932
X13.7469Y-11.1901
X13.7469Y-11.3869
X13.7469Y-11.9854
X14.1323Y-12.7948
X14.1323Y-13.3932
X14.1323Y-13.5901
X14.1323Y-13.7869
X14.1437Y-10.9932
X14.1437Y-11.1901
X14.1437Y-11.3869
X14.1437Y-11.9854
X14.4276Y-12.7948
X14.4276Y-13.3932
X14.4276Y-13.5901
X14.4276Y-13.7869
X14.439Y-10.9932
X14.439Y-11.1901
X14.439Y-11.3869
X14.439Y-11.9854
X14.7272Y-12.7913
X14.7272Y-13.3897
X14.7272Y-13.5865
X14.7272Y-13.7834
X14.7346Y-10.9924
X14.7346Y-11.1893
X14.7346Y-11.3861
X14.7346Y-11.9846
X15.0224Y-12.7913
X15.0224Y-13.3897
X15.0224Y-13.5865
X15.0224Y-13.7834
X15.0299Y-10.9924
X15.0299Y-11.1893
X15.0299Y-11.3861
X15.0299Y-11.9846
X15.4142Y-12.796
X15.4142Y-13.3944
X15.4142Y-13.5913
X15.4142Y-13.7881
X15.426Y-10.9952
X15.426Y-11.192
X15.426Y-11.3889
X15.426Y-11.9873
X15.7094Y-12.796
X15.7094Y-13.3944
X15.7094Y-13.5913
X15.7094Y-13.7881
X15.7213Y-10.9952
X15.7213Y-11.192
X15.7213Y-11.3889
X15.7213Y-11.9873
X16.0083Y-12.7972
X16.0083Y-13.3956
X16.0083Y-13.5924
X16.0083Y-13.7893
X16.0169Y-10.9936
X16.0169Y-11.1905
X16.0169Y-11.3873
X16.0169Y-11.9857
X16.3035Y-12.7972
X16.3035Y-13.3956
X16.3035Y-13.5924
X16.3035Y-13.7893
X16.3122Y-10.9936
X16.3122Y-11.1905
X16.3122Y-11.3873
X16.3122Y-11.9857
X16.7008Y-12.7964
X16.7008Y-13.3948
X16.7008Y-13.5917
X16.7008Y-13.7885
X16.7059Y-10.9932
X16.7059Y-11.1901
X16.7059Y-11.3869
X16.7059Y-11.9854
X16.9961Y-12.7964
X16.9961Y-13.3948
X16.9961Y-13.5917
X16.9961Y-13.7885
X17.0012Y-10.9932
X17.0012Y-11.1901
X17.0012Y-11.3869
X17.0012Y-11.9854
X17.2917Y-12.7972
X17.2917Y-13.3956
X17.2917Y-13.5924
X17.2917Y-13.7893
X17.2933Y-10.994
X17.2933Y-11.1909
X17.2933Y-11.3877
X17.2933Y-11.9861
X17.587Y-12.7972
X17.587Y-13.3956
X17.587Y-13.5924
X17.587Y-13.7893
X17.5886Y-10.994
X17.5886Y-11.1909
X17.5886Y-11.3877
X17.5886Y-11.9861
X17.9815Y-10.9944
X17.9815Y-11.1913
X17.9815Y-11.3881
X17.9815Y-11.9865
X17.9835Y-12.794
X17.9835Y-13.3924
X17.9835Y-13.5893
X17.9835Y-13.7861
X18.2768Y-10.9944
X18.2768Y-11.1913
X18.2768Y-11.3881
X18.2768Y-11.9865
X18.2787Y-12.794
X18.2787Y-13.3924
X18.2787Y-13.5893
X18.2787Y-13.7861
X18.574Y-10.9917
X18.574Y-11.1885
X18.574Y-11.3854
X18.574Y-11.9838
X18.5752Y-12.7956
X18.5752Y-13.394
X18.5752Y-13.5909
X18.5752Y-13.7877
X18.8693Y-10.9917
X18.8693Y-11.1885
X18.8693Y-11.3854
X18.8693Y-11.9838
X18.8705Y-12.7956
X18.8705Y-13.394
X18.8705Y-13.5909
X18.8705Y-13.7877
T5
X11.5744Y-10.7015
X11.5744Y-14.0791
X11.8697Y-10.7015
X11.8697Y-14.0791
X12.165Y-10.7015
X12.165Y-14.0791
X12.4602Y-10.7015
X12.4602Y-14.0791
X12.8547Y-14.0779
X12.8591Y-10.6995
X13.15Y-14.0779
X13.1543Y-10.6995
X13.4453Y-14.0779
X13.4496Y-10.6995
X13.7406Y-14.0779
X13.7449Y-10.6995
X14.135Y-14.0783
X14.1433Y-10.7003
X14.4303Y-14.0783
X14.4386Y-10.7003
X14.7256Y-14.0783
X14.7339Y-10.7003
X15.0209Y-14.0783
X15.0291Y-10.7003
X15.4157Y-14.0794
X15.4248Y-10.7007
X15.711Y-14.0794
X15.7201Y-10.7007
X16.0063Y-14.0794
X16.0154Y-10.7007
X16.3016Y-14.0794
X16.3106Y-10.7007
X16.7008Y-14.0775
X16.7047Y-10.7015
X16.9961Y-14.0775
X17.0Y-10.7015
X17.2913Y-14.0775
X17.2953Y-10.7015
X17.5866Y-14.0775
X17.5906Y-10.7015
X17.9823Y-10.7015
X17.9839Y-14.0791
X18.2776Y-10.7015
X18.2791Y-14.0791
X18.5728Y-10.7015
X18.5744Y-14.0791
X18.8681Y-10.7015
X18.8697Y-14.0791
T0
M30
